<svg width="513" height="512" viewBox="0 0 513 512" fill="none" xmlns="http://www.w3.org/2000/svg">
<rect width="512" height="512" transform="translate(0.43811)" fill="#F4F7FA"/>
<path fill-rule="evenodd" clip-rule="evenodd" d="M248.37 144.069L268.549 179.02L268.543 179.031L281.329 201.177L281.328 201.178C280.077 198.993 278.249 197.1 275.912 195.751C268.944 191.728 260.058 194.04 255.922 200.901L255.919 200.896L230.291 245.285L202.762 196.248C197.46 186.803 197.53 175.264 202.945 165.884L206.575 159.597C211.99 150.217 221.949 144.387 232.779 144.257L248.37 144.069Z" fill="#EFF2F5"/>
<path fill-rule="evenodd" clip-rule="evenodd" d="M303.36 143.406C314.587 143.27 324.991 149.277 330.487 159.068L365.04 220.618C370.342 230.062 370.273 241.602 364.857 250.982L337.477 298.406L254.447 154.593C252.453 151.803 249.845 149.385 246.682 147.559C242.823 145.331 238.613 144.259 234.455 144.237L248.37 144.069L303.36 143.406ZM233.447 144.252L233.444 144.249L233.59 144.247C233.543 144.248 233.495 144.25 233.447 144.252Z" fill="#DEE4EB"/>
<path fill-rule="evenodd" clip-rule="evenodd" d="M264.506 367.931L244.327 332.98L244.334 332.969L231.548 310.823L231.549 310.822C232.8 313.007 234.628 314.9 236.965 316.249C243.932 320.272 252.819 317.959 256.954 311.099L256.957 311.104L282.586 266.714L310.115 315.752C315.416 325.196 315.347 336.736 309.931 346.116L306.302 352.403C300.886 361.782 290.927 367.613 280.097 367.743L264.506 367.931Z" fill="#EFF2F5"/>
<path fill-rule="evenodd" clip-rule="evenodd" d="M209.517 368.594C198.29 368.729 187.885 362.722 182.389 352.932L147.836 291.382C142.534 281.938 142.604 270.398 148.019 261.018L175.4 213.594L258.43 357.407C260.423 360.196 263.031 362.615 266.194 364.441C270.053 366.669 274.263 367.741 278.422 367.763L264.506 367.931L209.517 368.594ZM279.429 367.748L279.432 367.751L279.286 367.753C279.334 367.751 279.382 367.75 279.429 367.748Z" fill="#DEE4EB"/>
</svg>
