<svg width="160" height="155" viewBox="0 0 160 155" fill="none" xmlns="http://www.w3.org/2000/svg">
<g clip-path="url(#clip0_386_13495)">
<path d="M101.574 34.859H58.461C57.4786 34.8602 56.5367 35.248 55.842 35.9375C55.1473 36.6269 54.7565 37.5617 54.7553 38.5368V133.632L54.2612 133.782L43.6848 136.996C43.1836 137.148 42.6422 137.096 42.1795 136.852C41.7168 136.608 41.3706 136.191 41.2169 135.694L9.75714 33.7091C9.60404 33.2116 9.65622 32.6742 9.90221 32.2149C10.1482 31.7556 10.5679 31.412 11.069 31.2597L27.3671 26.3069L74.6158 11.9537L90.9138 7.00097C91.1618 6.92521 91.4225 6.89874 91.6808 6.92306C91.9392 6.94739 92.1901 7.02204 92.4194 7.14274C92.6486 7.26344 92.8517 7.42782 93.0168 7.62648C93.182 7.82513 93.306 8.05416 93.3819 8.30045L101.423 34.3686L101.574 34.859Z" fill="#EFF2F5"/>
<path d="M110.983 34.3688L101.291 2.95072C101.13 2.42724 100.866 1.94042 100.515 1.51808C100.164 1.09574 99.733 0.746166 99.246 0.489324C98.7589 0.232481 98.2256 0.0734058 97.6765 0.0211938C97.1275 -0.0310182 96.5734 0.0246562 96.0461 0.18503L73.132 7.14585L25.8858 21.5015L2.97168 28.4648C1.90721 28.7891 1.01592 29.5194 0.493435 30.4953C-0.0290461 31.4712 -0.140028 32.613 0.184853 33.67L33.3096 141.044C33.5736 141.897 34.1061 142.644 34.8291 143.175C35.5521 143.706 36.4274 143.993 37.3268 143.994C37.743 143.994 38.1569 143.932 38.5546 143.81L54.2622 139.039L54.7563 138.887V138.374L54.2622 138.524L38.4088 143.342C37.4693 143.626 36.4544 143.529 35.5869 143.071C34.7195 142.614 34.0702 141.834 33.7815 140.902L0.659295 33.5254C0.516274 33.0637 0.466427 32.5785 0.512608 32.0977C0.558788 31.6168 0.700085 31.1497 0.928415 30.7231C1.15675 30.2966 1.46763 29.9189 1.84324 29.6117C2.21886 29.3045 2.65184 29.0739 3.11739 28.9331L26.0315 21.9698L73.2778 7.61661L96.1919 0.653339C96.545 0.546389 96.9121 0.491857 97.2813 0.491516C98.0737 0.493282 98.8446 0.746793 99.4813 1.21492C100.118 1.68304 100.587 2.34118 100.819 3.09294L110.467 34.3688L110.62 34.8592H111.134L110.983 34.3688Z" fill="#717794"/>
<path d="M30.3084 31.34C29.8322 31.3396 29.3687 31.1879 28.9858 30.9069C28.6029 30.626 28.3209 30.2306 28.181 29.7789L24.9988 19.4635C24.9133 19.1864 24.8836 18.8954 24.9115 18.6069C24.9394 18.3184 25.0242 18.0382 25.1612 17.7823C25.2982 17.5264 25.4847 17.2997 25.7099 17.1153C25.9352 16.9309 26.1948 16.7924 26.474 16.7076L69.9402 3.50096C70.504 3.3302 71.1131 3.38844 71.6338 3.6629C72.1544 3.93736 72.5441 4.40561 72.7172 4.96489L75.8993 15.2804C76.0713 15.84 76.0126 16.4445 75.736 16.9612C75.4595 17.4778 74.9877 17.8646 74.4243 18.0365L30.958 31.2431C30.7475 31.3072 30.5286 31.3399 30.3084 31.34Z" fill="#131D4D"/>
<path d="M46.9782 11.0223C49.707 11.0223 51.9192 8.8268 51.9192 6.11856C51.9192 3.41031 49.707 1.21484 46.9782 1.21484C44.2493 1.21484 42.0371 3.41031 42.0371 6.11856C42.0371 8.8268 44.2493 11.0223 46.9782 11.0223Z" fill="#131D4D"/>
<path d="M46.9775 9.2238C48.7055 9.2238 50.1063 7.83356 50.1063 6.11861C50.1063 4.40367 48.7055 3.01343 46.9775 3.01343C45.2495 3.01343 43.8486 4.40367 43.8486 6.11861C43.8486 7.83356 45.2495 9.2238 46.9775 9.2238Z" fill="white"/>
<path d="M148.883 142.741H65.3792C64.8225 142.74 64.2887 142.52 63.8951 142.129C63.5014 141.739 63.2799 141.209 63.2793 140.657V41.3563C63.2799 40.8038 63.5014 40.274 63.895 39.8833C64.2887 39.4926 64.8225 39.2728 65.3792 39.2722H148.883C149.44 39.2729 149.973 39.4926 150.367 39.8833C150.761 40.274 150.982 40.8038 150.983 41.3563V140.657C150.982 141.209 150.761 141.739 150.367 142.129C149.973 142.52 149.44 142.74 148.883 142.741Z" fill="#DEE4EB"/>
<path d="M110.466 34.3687H58.4616C57.3482 34.3702 56.2809 34.8099 55.4936 35.5912C54.7063 36.3725 54.2633 37.4318 54.2617 38.5368V138.524L54.7558 138.374V38.5368C54.757 37.5618 55.1478 36.627 55.8425 35.9375C56.5373 35.2481 57.4791 34.8602 58.4616 34.859H110.619L110.466 34.3687ZM155.8 34.3687H58.4616C57.3482 34.3702 56.2809 34.8099 55.4936 35.5912C54.7063 36.3725 54.2633 37.4318 54.2617 38.5368V150.832C54.2633 151.937 54.7063 152.996 55.4936 153.777C56.2809 154.559 57.3482 154.998 58.4616 155H155.8C156.914 154.998 157.981 154.559 158.768 153.777C159.556 152.996 159.999 151.937 160 150.832V38.5368C159.999 37.4318 159.556 36.3725 158.768 35.5912C157.981 34.8099 156.914 34.3702 155.8 34.3687ZM159.506 150.832C159.505 151.807 159.114 152.742 158.419 153.431C157.725 154.121 156.783 154.508 155.8 154.51H58.4616C57.4791 154.508 56.5373 154.121 55.8425 153.431C55.1478 152.742 54.757 151.807 54.7558 150.832V38.5368C54.757 37.5618 55.1478 36.627 55.8425 35.9375C56.5373 35.2481 57.4791 34.8602 58.4616 34.859H155.8C156.783 34.8602 157.725 35.2481 158.419 35.9375C159.114 36.627 159.505 37.5618 159.506 38.5368V150.832Z" fill="#717794"/>
<path d="M129.86 45.1568H84.4022C83.8127 45.1562 83.2475 44.9235 82.8307 44.5098C82.4138 44.0961 82.1794 43.5352 82.1787 42.9502V32.162C82.1794 31.577 82.4139 31.0161 82.8307 30.6024C83.2475 30.1887 83.8127 29.956 84.4022 29.9553H129.86C130.449 29.956 131.014 30.1887 131.431 30.6024C131.848 31.0161 132.083 31.577 132.083 32.162V42.9502C132.083 43.5352 131.848 44.0961 131.431 44.5098C131.014 44.9235 130.449 45.1562 129.86 45.1568Z" fill="#131D4D"/>
<path d="M107.13 30.6907C109.859 30.6907 112.072 28.4953 112.072 25.787C112.072 23.0788 109.859 20.8833 107.13 20.8833C104.402 20.8833 102.189 23.0788 102.189 25.787C102.189 28.4953 104.402 30.6907 107.13 30.6907Z" fill="#131D4D"/>
<path d="M107.131 28.7739C108.793 28.7739 110.14 27.4367 110.14 25.7871C110.14 24.1375 108.793 22.8003 107.131 22.8003C105.469 22.8003 104.121 24.1375 104.121 25.7871C104.121 27.4367 105.469 28.7739 107.131 28.7739Z" fill="white"/>
</g>
<defs>
<clipPath id="clip0_386_13495">
<rect width="160" height="155" fill="white"/>
</clipPath>
</defs>
</svg>
