<svg width="384" height="384" viewBox="0 0 384 384" fill="none" xmlns="http://www.w3.org/2000/svg">
<path d="M79.6803 326.4C143.033 362.842 245.745 362.842 309.097 326.4C372.45 289.959 372.45 230.876 309.097 194.435C245.745 157.993 143.033 157.993 79.6803 194.435C16.3279 230.876 16.3279 289.982 79.6803 326.4Z" fill="#F5F5F5"/>
<path d="M320.187 256.166C312.738 260.144 300.657 260.144 293.207 256.166C285.758 252.188 285.765 245.721 293.207 241.736C300.649 237.75 312.738 237.75 320.187 241.736C327.637 245.721 327.629 252.18 320.187 256.166Z" fill="#E0E0E0"/>
<path d="M254.669 273.216C247.219 277.202 235.146 277.202 227.697 273.216C220.247 269.23 220.247 262.771 227.697 258.793C235.146 254.814 247.219 254.807 254.669 258.793C262.118 262.779 262.118 269.238 254.669 273.216Z" fill="#E0E0E0"/>
<path d="M224.626 283.392C217.176 287.378 205.103 287.378 197.654 283.392C190.204 279.406 190.204 272.947 197.654 268.961C205.103 264.975 217.176 264.975 224.626 268.961C232.075 272.947 232.075 279.437 224.626 283.392Z" fill="#E0E0E0"/>
<path d="M171.626 335.754C164.176 339.74 152.103 339.74 144.654 335.754C137.204 331.768 137.204 325.309 144.654 321.323C152.103 317.338 164.176 317.338 171.626 321.323C179.075 325.309 179.075 331.776 171.626 335.754Z" fill="#E0E0E0"/>
<path d="M67.9368 286.157L65.0261 284.475C64.5421 284.159 64.1395 283.734 63.8512 283.234C63.5629 282.733 63.3971 282.172 63.3672 281.595V137.741C63.3985 137.163 63.5658 136.601 63.8554 136.101C64.145 135.6 64.5488 135.175 65.0337 134.861L248.878 28.7153C249.393 28.4542 249.963 28.3181 250.54 28.3181C251.118 28.3181 251.688 28.4542 252.203 28.7153L255.114 30.3972C255.599 30.7121 256.002 31.1371 256.292 31.6376C256.582 32.1381 256.749 32.6999 256.78 33.2772V177.131C256.748 177.708 256.58 178.27 256.29 178.77C256.001 179.27 255.598 179.696 255.114 180.011L71.2622 286.157C70.7469 286.418 70.1772 286.554 69.5995 286.554C69.0218 286.554 68.4521 286.418 67.9368 286.157Z" fill="#37474F"/>
<path d="M256.765 33.0238C256.65 32.156 255.951 31.8411 255.122 32.3326L71.2704 138.463C70.7795 138.767 70.3749 139.193 70.0954 139.699L63.8516 136.097C64.1379 135.596 64.541 135.172 65.0266 134.861L248.886 28.7154C249.4 28.4506 249.97 28.3125 250.549 28.3125C251.127 28.3125 251.697 28.4506 252.211 28.7154L255.122 30.3973C255.569 30.6907 255.947 31.0774 256.231 31.5308C256.515 31.9841 256.697 32.4934 256.765 33.0238Z" fill="#455A64"/>
<path d="M71.0003 286.287H70.9005C70.8635 286.306 70.825 286.321 70.7853 286.333L70.6547 286.372L70.409 286.433H70.3168C69.5326 286.577 68.7228 286.458 68.0128 286.095L65.0944 284.413C64.6117 284.097 64.2101 283.671 63.922 283.171C63.6339 282.671 63.4672 282.11 63.4355 281.533V137.741C63.4553 137.161 63.6218 136.595 63.9194 136.097L70.1632 139.699C69.8598 140.195 69.6904 140.761 69.6717 141.343V285.197C69.6717 285.965 70.048 286.387 70.5933 286.387C70.6723 286.398 70.7524 286.398 70.8314 286.387L71.0003 286.287Z" fill="#263238"/>
<path d="M75.8398 143.025V283.515L250.544 182.653V42.1631L75.8398 143.025Z" fill="#FAFAFA"/>
<path d="M125.752 254.692V139.423L200.624 96.1919L200.632 211.469L197.414 213.327L197.506 101.599L128.878 141.22V252.895L125.752 254.692Z" fill="#E0E0E0"/>
<path d="M75.8398 283.515L78.9656 281.71V148.431L247.042 51.3868L247.419 184.45L250.544 182.653V42.1631L75.8398 143.025V283.515Z" fill="#E0E0E0"/>
<path d="M75.8398 143.025L237.788 49.5205L264.776 65.1109L235.522 81.9992L232.927 83.4968L102.835 158.607L75.8398 143.025Z" fill="#FAFAFA"/>
<path d="M75.8398 143.024L102.835 158.607L116.329 150.82L89.3413 135.229L75.8398 143.024Z" fill="#121F4C"/>
<path d="M102.836 127.442L129.823 143.024L143.317 135.229L116.33 119.646L102.836 127.442Z" fill="#121F4C"/>
<path d="M129.822 111.859L156.817 127.442L170.311 119.647L143.316 104.064L129.822 111.859Z" fill="#121F4C"/>
<path d="M156.818 96.2762L183.806 111.859L197.3 104.064L170.312 88.481L156.818 96.2762Z" fill="#121F4C"/>
<path d="M183.805 80.686L210.792 96.2764L224.294 88.4812L197.298 72.8984L183.805 80.686Z" fill="#121F4C"/>
<path d="M210.793 65.1032L237.788 80.6936L251.282 72.8984L224.294 57.3157L210.793 65.1032Z" fill="#121F4C"/>
<path d="M237.795 49.5204L264.782 65.1031L278.276 57.3156L251.289 41.7329L237.795 49.5204Z" fill="#121F4C"/>
<g opacity="0.5">
<path d="M75.8398 143.024L102.835 158.607L116.329 150.82L89.3413 135.229L75.8398 143.024Z" fill="white"/>
<path d="M102.836 127.442L129.823 143.024L143.317 135.229L116.33 119.646L102.836 127.442Z" fill="white"/>
<path d="M129.822 111.859L156.817 127.442L170.311 119.647L143.316 104.064L129.822 111.859Z" fill="white"/>
<path d="M156.818 96.2762L183.806 111.859L197.3 104.064L170.312 88.481L156.818 96.2762Z" fill="white"/>
<path d="M183.805 80.686L210.792 96.2764L224.294 88.4812L197.298 72.8984L183.805 80.686Z" fill="white"/>
<path d="M210.793 65.1032L237.788 80.6936L251.282 72.8984L224.294 57.3157L210.793 65.1032Z" fill="white"/>
<path d="M237.795 49.5204L264.782 65.1031L278.276 57.3156L251.289 41.7329L237.795 49.5204Z" fill="white"/>
</g>
<path d="M102.836 158.607C102.836 162.908 105.854 164.659 109.579 162.501C113.304 160.343 116.33 155.121 116.33 150.82L102.836 158.607Z" fill="#121F4C"/>
<path d="M116.328 150.82C116.328 155.12 119.346 156.864 123.079 154.713C126.811 152.563 129.822 147.325 129.822 143.024L116.328 150.82Z" fill="#E6E6E6"/>
<path d="M129.791 143.024C129.791 147.325 132.817 149.068 136.542 146.918C140.267 144.768 143.292 139.537 143.292 135.229L129.791 143.024Z" fill="#121F4C"/>
<path d="M143.316 135.229C143.316 139.538 146.342 141.281 150.067 139.131C153.792 136.98 156.818 131.742 156.818 127.442L143.316 135.229Z" fill="#E6E6E6"/>
<path d="M156.818 127.442C156.818 131.742 159.837 133.486 163.569 131.335C167.302 129.185 170.312 123.955 170.312 119.646L156.818 127.442Z" fill="#121F4C"/>
<path d="M170.311 119.646C170.311 123.955 173.329 125.698 177.061 123.54C180.794 121.382 183.804 116.16 183.804 111.859L170.311 119.646Z" fill="#E6E6E6"/>
<path d="M183.805 111.859C183.805 116.16 186.831 117.903 190.555 115.753C194.28 113.603 197.306 108.365 197.306 104.064L183.805 111.859Z" fill="#121F4C"/>
<path d="M197.307 104.064C197.307 108.365 200.325 110.116 204.05 107.958C207.775 105.799 210.801 100.577 210.801 96.2686L197.307 104.064Z" fill="#E6E6E6"/>
<path d="M210.801 96.2685C210.801 100.577 213.819 102.32 217.551 100.17C221.284 98.0195 224.295 92.7818 224.295 88.481L210.801 96.2685Z" fill="#121F4C"/>
<path d="M224.295 88.4812C224.295 92.782 227.321 94.5254 231.046 92.375C234.77 90.2246 237.789 84.9945 237.789 80.686L224.295 88.4812Z" fill="#E6E6E6"/>
<path d="M237.795 80.686C237.795 84.9944 240.813 86.7378 244.538 84.5874C248.263 82.437 251.289 77.1992 251.289 72.8984L237.795 80.686Z" fill="#121F4C"/>
<path d="M264.783 65.1032C264.783 69.4117 267.801 71.155 271.534 69.0046C275.266 66.8542 278.277 61.6165 278.277 57.3157L264.783 65.1032Z" fill="#121F4C"/>
<path d="M251.289 72.8982C251.289 77.199 254.307 78.9424 258.032 76.792C261.757 74.6416 264.783 69.4115 264.783 65.103L251.289 72.8982Z" fill="#E6E6E6"/>
<path d="M94.5638 191.294C94.4996 191.293 94.4365 191.277 94.3795 191.247C94.2904 191.2 94.2235 191.12 94.1934 191.023C94.1632 190.927 94.1721 190.823 94.2182 190.733L103.58 172.723C103.609 172.664 103.654 172.613 103.709 172.576C103.764 172.54 103.829 172.519 103.895 172.516C103.96 172.512 104.026 172.524 104.085 172.553C104.144 172.581 104.195 172.624 104.233 172.677L110.477 181.686C110.533 181.77 110.554 181.872 110.536 181.971C110.517 182.07 110.46 182.158 110.377 182.216C110.293 182.273 110.19 182.296 110.089 182.279C109.989 182.261 109.899 182.206 109.839 182.124L103.964 173.676L94.9018 191.125C94.8648 191.179 94.8142 191.224 94.755 191.253C94.6958 191.283 94.6299 191.297 94.5638 191.294Z" fill="#455A64"/>
<path d="M93.1042 190.694L111.613 180.011C112.535 179.474 113.28 179.904 113.28 180.971V191.539C113.248 192.116 113.081 192.678 112.791 193.179C112.502 193.679 112.098 194.104 111.613 194.419L93.1042 205.102C92.1826 205.632 91.4376 205.202 91.4376 204.142V193.574C91.469 192.997 91.6363 192.435 91.9259 191.935C92.2155 191.434 92.6192 191.009 93.1042 190.694Z" fill="#121F4C"/>
<path d="M93.7637 198.036C93.7637 195.847 94.885 193.513 96.275 192.714C97.6651 191.915 98.7941 192.937 98.7941 195.133C98.7941 197.33 97.6651 199.657 96.275 200.455C94.885 201.254 93.7637 200.225 93.7637 198.036ZM97.6882 195.732C97.6882 194.404 97.0661 193.874 96.275 194.334C95.8122 194.687 95.4418 195.146 95.1957 195.673C94.9496 196.2 94.835 196.779 94.8619 197.36C94.8619 198.689 95.484 199.211 96.275 198.758C96.7324 198.41 97.0994 197.956 97.3453 197.436C97.5912 196.917 97.7088 196.345 97.6882 195.771V195.732Z" fill="#FAFAFA"/>
<path d="M102.912 191.57C102.924 192.249 102.777 192.922 102.482 193.534C102.187 194.146 101.753 194.681 101.215 195.095L100.493 195.517V197.821L99.3867 198.459V191.009L101.215 189.949C102.198 189.442 102.912 190.149 102.912 191.57ZM101.806 192.207C101.806 191.662 101.552 191.393 101.215 191.585L100.493 192.008V193.92L101.215 193.505C101.413 193.353 101.573 193.156 101.681 192.931C101.789 192.705 101.842 192.457 101.837 192.207H101.806Z" fill="#FAFAFA"/>
<path d="M106.537 192.768V194.411L103.465 196.162V188.713L106.468 186.977V188.621L104.601 189.696V190.925L106.329 189.934V191.547L104.601 192.545V193.866L106.537 192.768Z" fill="#FAFAFA"/>
<path d="M110.96 184.381V191.831L110.131 192.315L108.288 189.343V193.39L107.182 194.027V186.578L108.011 186.102L109.877 189.066V185.026L110.96 184.381Z" fill="#FAFAFA"/>
<path d="M216.761 220.462C217.517 221.986 218.363 223.463 219.295 224.886C221.968 228.465 223.788 229.125 225.608 228.518C228.511 227.558 228.104 226.491 226.084 225.185C225.209 224.618 224.431 223.912 223.78 223.096C224.336 223.273 224.911 223.381 225.493 223.419C225.757 223.442 226.019 223.366 226.23 223.206C226.44 223.045 226.583 222.812 226.63 222.551C226.63 222.321 226.077 222.336 225.263 221.891C224.367 221.288 223.389 220.818 222.36 220.493C221.914 220.31 221.545 219.979 221.315 219.556C220.939 219.049 217.129 210.01 216.876 207.921C216.876 207.921 216.492 202.867 216.016 198.159C215.609 194.227 214.81 191.186 211.216 190.986C208.52 192.453 209.68 194.25 211.277 206.915C211.538 209.157 215.179 217.482 216.761 220.462Z" fill="#B16668"/>
<path d="M210.433 190.917C210.433 190.917 213.006 190.594 214.434 192.146C215.862 193.697 216.362 196.792 216.684 199.526C217.007 202.26 217.329 204.902 217.329 204.902C216.258 205.577 215.062 206.028 213.812 206.23C212.563 206.432 211.285 206.38 210.056 206.077L210.433 190.917Z" fill="#E0E0E0"/>
<path d="M211.084 184.167C214.019 184.167 216.398 181.787 216.398 178.852C216.398 175.917 214.019 173.538 211.084 173.538C208.149 173.538 205.769 175.917 205.769 178.852C205.769 181.787 208.149 184.167 211.084 184.167Z" fill="#263238"/>
<path d="M198.359 275.19H202.099V268.785H198.359V275.19Z" fill="#B16668"/>
<path d="M211.338 270.705L215.078 270.836L215.262 264.054L211.522 263.924L211.338 270.705Z" fill="#B16668"/>
<path d="M198.604 217.982C198.604 221.553 198.143 243.218 198.143 243.218C198.051 244.247 197.091 246.144 197.299 250.092C197.583 255.468 198.067 269.415 198.067 269.415C198.067 269.415 199.825 271.15 202.306 269.415C202.306 269.415 205.693 250.115 206.361 244.793C206.945 240.185 207.943 227.543 207.943 227.543L210.017 245.046C210.017 245.046 209.41 248.533 209.249 250.998C209.087 253.463 211.276 265.959 211.276 265.959C211.883 266.338 212.579 266.552 213.295 266.579C214.01 266.606 214.72 266.445 215.354 266.112C215.354 266.112 216.967 247.058 217.351 244.831C217.735 242.604 216.115 217.951 216.115 217.951L198.604 217.982Z" fill="#37474F"/>
<path d="M202.198 192.123C201.4 192.261 200.661 192.634 200.076 193.193C199.49 193.753 199.085 194.474 198.91 195.264C198.706 196.198 198.603 197.15 198.603 198.106V217.982C201.23 220.839 210.377 222.167 216.114 217.982C216.114 217.982 215.998 200.425 215.568 197.545C214.8 192.53 212.427 190.741 210.016 190.933L204.24 191.755L202.198 192.123Z" fill="#F0F0F0"/>
<path d="M201.898 182.631C202.217 184.223 202.619 185.797 203.104 187.346C203.336 187.755 203.715 188.06 204.164 188.199L204.102 185.35L201.898 182.631Z" fill="#263238"/>
<path d="M202.982 176.84C202.681 176.804 202.376 176.837 202.089 176.937C201.803 177.037 201.544 177.2 201.331 177.416C200.616 178.184 201.016 180.411 201.899 182.631L203.519 182.823L202.982 176.84Z" fill="#263238"/>
<path d="M204.004 182.823C203.681 183.015 203.236 182.393 202.814 181.97C202.656 181.79 202.456 181.653 202.231 181.572C202.006 181.49 201.764 181.468 201.528 181.506C201.292 181.545 201.069 181.643 200.882 181.791C200.694 181.94 200.548 182.134 200.456 182.354C199.788 183.76 201.032 185.611 202.061 185.933C203.835 186.494 204.104 185.35 204.104 185.35L204.242 191.762C204.634 192.621 205.233 193.37 205.985 193.94C206.736 194.511 207.618 194.887 208.551 195.034C211.699 195.464 211.054 192.861 210.017 191.593V189.643C210.809 189.77 211.613 189.811 212.414 189.766C213.719 189.558 214.541 188.529 214.933 187.116C215.57 184.812 215.816 183.007 215.271 178.545C214.679 173.645 208.988 173.592 205.909 175.535C202.829 177.478 204.004 182.823 204.004 182.823Z" fill="#B16668"/>
<path d="M204.004 183.368C203.842 183.368 203.236 182.339 202.813 181.97C202.253 181.463 202.982 176.84 202.982 176.84C202.841 176.445 202.816 176.017 202.911 175.609C203.007 175.2 203.218 174.828 203.52 174.536C204.288 173.691 205.57 173.599 207.767 173.253C208.919 173.069 210.662 172.747 211.806 172.539C213.181 172.278 214.318 172.009 215.285 172.854C215.666 173.183 215.935 173.622 216.056 174.11C216.177 174.598 216.144 175.112 215.961 175.58C215.861 175.791 215.729 175.985 215.57 176.156C215.309 176.471 214.966 176.708 214.579 176.84C214.579 176.84 213.988 177.37 211.906 177.608C209.985 177.753 208.054 177.717 206.139 177.5C205.532 177.416 205.371 178 205.079 179.597C204.795 180.98 204.557 183.36 204.004 183.368Z" fill="#263238"/>
<path d="M202.981 177.193L201.015 176.141C201.078 176.009 201.167 175.89 201.277 175.793C201.387 175.696 201.516 175.622 201.655 175.576C201.794 175.53 201.942 175.513 202.088 175.526C202.234 175.538 202.376 175.58 202.505 175.65C202.767 175.797 202.962 176.04 203.051 176.327C203.139 176.614 203.114 176.924 202.981 177.193Z" fill="#263238"/>
<path d="M210.017 189.642C208.672 189.385 207.354 189.007 206.077 188.513C205.478 188.201 204.988 187.713 204.672 187.116C204.812 187.711 205.073 188.27 205.44 188.759C206.208 189.712 209.986 190.418 209.986 190.418L210.017 189.642Z" fill="#9A4A4D"/>
<path d="M209.31 182.093C209.31 182.248 209.249 182.396 209.139 182.506C209.03 182.615 208.881 182.677 208.726 182.677C208.572 182.677 208.423 182.615 208.314 182.506C208.204 182.396 208.143 182.248 208.143 182.093C208.141 182.015 208.154 181.938 208.183 181.865C208.211 181.792 208.254 181.726 208.308 181.67C208.363 181.615 208.428 181.57 208.499 181.54C208.571 181.51 208.648 181.494 208.726 181.494C208.804 181.495 208.881 181.511 208.952 181.542C209.023 181.573 209.088 181.617 209.142 181.673C209.196 181.728 209.239 181.794 209.268 181.866C209.297 181.938 209.311 182.016 209.31 182.093Z" fill="#263238"/>
<path d="M208.696 179.881L207.444 180.573C207.361 180.401 207.344 180.204 207.398 180.021C207.452 179.838 207.573 179.681 207.736 179.582C207.818 179.537 207.909 179.509 208.002 179.5C208.095 179.49 208.19 179.5 208.279 179.528C208.369 179.556 208.452 179.601 208.523 179.662C208.595 179.723 208.654 179.798 208.696 179.881Z" fill="#263238"/>
<path d="M209.748 186.133L211.085 186.632C211.055 186.721 211.008 186.804 210.946 186.874C210.885 186.945 210.809 187.003 210.724 187.044C210.64 187.084 210.548 187.108 210.454 187.112C210.36 187.117 210.266 187.102 210.178 187.07C210.003 186.995 209.862 186.857 209.783 186.684C209.703 186.511 209.691 186.315 209.748 186.133Z" fill="#9A4A4D"/>
<path d="M214.525 180.373L213.388 179.497C213.441 179.419 213.509 179.353 213.589 179.303C213.668 179.252 213.757 179.219 213.85 179.204C213.943 179.19 214.038 179.195 214.129 179.219C214.22 179.243 214.305 179.285 214.379 179.344C214.528 179.466 214.626 179.639 214.653 179.83C214.68 180.021 214.634 180.214 214.525 180.373Z" fill="#263238"/>
<path d="M214.171 181.924C214.166 182.038 214.128 182.149 214.061 182.242C213.994 182.335 213.902 182.406 213.795 182.447C213.688 182.487 213.571 182.496 213.46 182.471C213.348 182.446 213.246 182.388 213.167 182.306C213.087 182.223 213.034 182.119 213.013 182.007C212.993 181.894 213.005 181.778 213.05 181.673C213.095 181.567 213.17 181.478 213.265 181.414C213.361 181.351 213.472 181.317 213.587 181.317C213.665 181.318 213.743 181.335 213.814 181.366C213.886 181.397 213.951 181.442 214.006 181.499C214.06 181.555 214.102 181.622 214.131 181.695C214.159 181.768 214.173 181.846 214.171 181.924Z" fill="#263238"/>
<path d="M211.199 181.371L211.391 184.889L213.227 184.259L211.199 181.371Z" fill="#9A4A4D"/>
<path d="M202.099 273.339V272.809C202.46 272.963 203.289 276.135 204.779 277.494C205.954 278.569 207.567 279.798 207.982 281.011C208.397 282.225 205.732 282.955 204.633 282.755C203.351 282.532 201.131 281.626 200.571 280.789C200.01 279.952 199.749 278.723 199.296 278.108C198.843 277.494 197.798 276.811 197.552 276.096C197.483 275.433 197.556 274.763 197.767 274.13C197.944 273.47 198.128 272.74 198.359 272.809V273.216C198.892 273.636 199.554 273.858 200.233 273.846C200.778 273.869 202.107 273.762 202.099 273.339Z" fill="#263238"/>
<path d="M215.116 269.684C215.315 269.684 215.469 269.96 215.884 270.452C216.525 271.098 217.27 271.632 218.088 272.034C219.486 272.733 222.212 273.816 223.464 274.338C224.232 274.683 224.193 275.62 223.402 276.143C222.611 276.665 220.676 277.057 218.372 276.542C217.112 276.258 215.477 275.098 214.44 275.16C213.403 275.221 211.46 275.206 210.7 274.683C209.939 274.161 210.239 273.025 210.454 272.057C210.669 271.089 211.03 269.384 211.375 269.461V269.791C211.829 270.475 214.117 270.751 215.108 270.252L215.116 269.684Z" fill="#263238"/>
<path d="M207.92 227.543C209.854 226.938 211.634 225.918 213.134 224.556C212.132 226.087 210.754 227.338 209.133 228.188L209.993 245.046L207.92 227.543Z" fill="#263238"/>
<path d="M192.806 223.611C192.931 225.307 193.157 226.995 193.482 228.664C194.603 232.996 196.04 234.286 197.952 234.417C201.024 234.616 201.024 233.48 199.657 231.506C199.053 230.648 198.592 229.699 198.29 228.695C198.741 229.064 199.233 229.378 199.757 229.632C199.991 229.756 200.264 229.787 200.52 229.719C200.777 229.651 200.998 229.488 201.139 229.263C201.239 229.056 200.709 228.849 200.125 228.134C199.522 227.239 198.795 226.432 197.967 225.738C197.621 225.403 197.402 224.958 197.345 224.479C197.192 223.864 197.084 214.057 197.637 212.03L200.264 202.598C202.399 201.132 204.68 193.874 201.431 192.33C198.359 192.676 196.155 196.662 192.829 208.981C192.238 211.2 192.461 220.255 192.806 223.611Z" fill="#B16668"/>
<path d="M202.099 192.161C202.517 192.531 202.851 192.987 203.079 193.497C203.307 194.007 203.423 194.559 203.42 195.118C203.512 197.176 202.544 200.133 201.96 201.984C201.377 203.835 200.163 207.191 200.163 207.191C200.163 207.191 195.148 206.615 194.019 203.674C194.019 203.674 196.369 196.063 198.627 193.582C199.058 193.095 199.595 192.713 200.197 192.467C200.799 192.22 201.45 192.116 202.099 192.161Z" fill="#E0E0E0"/>
<path d="M238.079 177.807H237.311C235.154 177.807 233.085 176.951 231.56 175.425C230.034 173.9 229.177 171.831 229.177 169.674C229.18 167.602 230.004 165.616 231.47 164.151C232.936 162.686 234.924 161.864 236.996 161.864H238.386C239.412 161.864 240.427 162.066 241.375 162.458C242.322 162.851 243.183 163.426 243.909 164.151C244.634 164.877 245.209 165.738 245.602 166.685C245.994 167.633 246.196 168.649 246.196 169.674C246.197 170.741 245.988 171.798 245.581 172.784C245.173 173.771 244.576 174.667 243.822 175.422C243.068 176.177 242.173 176.777 241.187 177.186C240.202 177.595 239.146 177.806 238.079 177.807Z" fill="#263238"/>
<path d="M225.385 181.033C226.071 181.034 226.75 180.9 227.384 180.638C228.018 180.376 228.594 179.991 229.08 179.506C229.565 179.021 229.949 178.445 230.211 177.81C230.474 177.176 230.608 176.497 230.607 175.811V166.226C229.222 166.226 227.894 166.776 226.914 167.756C225.935 168.735 225.385 170.063 225.385 171.448V181.033Z" fill="#263238"/>
<path d="M236.421 267.779L235.33 266.803C234.324 265.726 233.54 264.46 233.026 263.079C232.764 262.44 232.628 261.757 232.627 261.066V258.885H228.787V262.433V262.533C228.971 263.301 230.73 265.444 231.728 266.819C232.536 268.008 233.776 268.835 235.184 269.123C236.62 269.322 237.358 268.869 236.421 267.779Z" fill="#FFA8A7"/>
<path d="M247.48 261.957C247.589 261.897 247.683 261.813 247.756 261.711C248.048 261.304 247.818 261.082 247.595 260.759C247.334 260.301 247.115 259.82 246.942 259.323C246.765 258.901 246.535 258.109 246.535 258.109C246.535 258.109 246.535 257.541 246.535 257.341V255.13H242.695V258.816C243.053 259.674 243.572 260.456 244.223 261.12C244.788 261.624 245.492 261.945 246.243 262.042C246.512 262.106 246.79 262.124 247.065 262.095C247.21 262.074 247.35 262.027 247.48 261.957Z" fill="#FFA8A7"/>
<path d="M229.532 203.106C226.567 209.587 229.639 232.405 229.639 232.405C229.547 233.457 228.349 235.531 227.904 240.154C227.374 245.622 228.733 259.354 228.733 259.354C229.313 259.689 229.965 259.879 230.634 259.905C231.303 259.932 231.969 259.796 232.573 259.507C232.573 259.507 236.221 238.833 236.905 233.395C237.504 228.649 238.656 218.22 238.656 218.22L240.96 233.388C240.483 234.92 240.136 236.49 239.923 238.08C239.616 241.283 242.711 256.167 242.711 256.167C243.965 256.496 245.279 256.536 246.551 256.282C246.551 256.282 247.641 236.529 247.933 232.674C248.417 226.207 247.68 206.009 246.497 202.176L229.532 203.106Z" fill="#37474F"/>
<path d="M238.677 218.22L239.614 212.199C239.614 212.199 243.693 211.354 245.536 209.618C244.261 211.114 242.593 212.224 240.72 212.821L239.637 217.429L240.628 231.168L238.677 218.22Z" fill="#263238"/>
<path d="M232.611 261.888V261.335C232.98 261.496 233.832 264.753 235.353 266.143C236.566 267.241 238.218 268.516 238.64 269.752C239.062 270.989 236.336 271.734 235.207 271.534C233.894 271.304 231.62 270.375 231.044 269.522C230.468 268.67 230.207 267.402 229.746 266.773C229.286 266.143 228.21 265.444 227.957 264.714C227.883 264.035 227.959 263.349 228.18 262.702C228.356 262.019 228.548 261.274 228.779 261.343V261.758C229.326 262.186 230.003 262.416 230.699 262.41C231.252 262.395 232.611 262.288 232.611 261.888Z" fill="#263238"/>
<path d="M246.527 258.11C246.719 258.11 246.934 258.425 247.372 258.878C248.031 259.54 248.794 260.09 249.63 260.506C251.066 261.22 253.862 262.326 255.121 262.902C255.889 263.255 255.889 264.208 255.06 264.753C254.23 265.298 252.272 265.682 249.907 265.152C248.616 264.868 246.942 263.678 245.882 263.739C244.822 263.801 242.81 263.793 242.042 263.248C241.274 262.702 241.574 261.558 241.789 260.567C242.004 259.577 242.334 257.795 242.695 257.872V258.24C243.156 258.939 245.537 259.223 246.535 258.709L246.527 258.11Z" fill="#263238"/>
<path d="M241.097 180.426C242.027 180.345 242.963 180.503 243.815 180.885C244.667 181.267 245.407 181.86 245.966 182.608C247.502 184.604 251.219 192.085 251.219 192.085C251.219 192.085 260.067 191.493 260.497 190.986C260.68 190.806 260.812 190.58 260.878 190.331C260.944 190.083 260.943 189.821 260.873 189.573C260.758 188.997 260.566 187.73 260.435 187.377C260.212 186.755 261.134 186.924 261.679 187.507C262.225 188.091 262.447 189.22 262.732 189.412C263.016 189.604 264.89 187.623 265.888 186.478C266.886 185.334 266.84 184.827 267.508 185.303C267.992 185.641 267.685 186.317 266.971 187.292C266.257 188.268 266.318 187.999 266.203 188.214C266.088 188.429 266.379 188.529 266.487 188.621C266.595 188.713 267.025 189.082 267.048 189.389C267.036 189.669 267.129 189.943 267.309 190.157C267.493 190.364 267.754 190.487 267.862 190.756C267.89 190.833 267.911 190.913 267.923 190.994C267.963 191.199 267.983 191.407 267.985 191.616C267.945 191.988 267.792 192.339 267.547 192.622C266.848 193.459 266.395 193.49 265.473 193.997C264.705 194.419 263.937 194.604 263.046 194.995C262.156 195.387 251.404 198.167 249.791 197.299C248.178 196.432 242.003 186.709 242.003 186.709C239.615 182.684 241.097 180.426 241.097 180.426Z" fill="#FFA8A7"/>
<path d="M263.523 183.898L270.858 176.502C270.858 176.502 270.95 177.147 269.421 179.236C267.893 181.325 263.746 185.749 263.746 185.749L263.285 185.365L263.523 183.898Z" fill="#263238"/>
<path d="M266.448 173.96C266.554 174.901 266.554 175.852 266.448 176.793C266.256 177.938 265.442 184.55 265.442 184.55L264.897 186.086L264.413 185.925L263.922 183.752C263.922 183.752 265.35 177.308 265.673 175.949C265.995 174.589 266.418 173.637 266.448 173.96Z" fill="#455A64"/>
<path d="M268.377 190.633C268.239 189.328 267.233 188.521 266.803 187.561C266.373 186.601 265.443 184.566 265.443 184.566L264.898 186.102C264.898 186.102 265.328 187.845 265.513 188.575C265.588 189.418 265.518 190.267 265.305 191.086C265.205 191.854 265.559 193.39 266.91 193.352C268.262 193.313 268.523 191.939 268.377 190.633ZM266.895 192.438C266.648 192.495 266.39 192.474 266.155 192.378C265.921 192.282 265.722 192.116 265.587 191.901C265.451 191.687 265.386 191.436 265.399 191.183C265.413 190.93 265.504 190.688 265.662 190.489C265.819 190.291 266.035 190.146 266.278 190.076C266.521 190.005 266.781 190.012 267.02 190.095C267.259 190.179 267.467 190.334 267.614 190.541C267.76 190.747 267.839 190.994 267.84 191.248C267.868 191.53 267.785 191.812 267.609 192.034C267.432 192.257 267.176 192.401 266.895 192.438Z" fill="#121F4C"/>
<path d="M264.675 184.251C264.879 184.251 265.044 184.086 265.044 183.882C265.044 183.679 264.879 183.514 264.675 183.514C264.472 183.514 264.307 183.679 264.307 183.882C264.307 184.086 264.472 184.251 264.675 184.251Z" fill="#263238"/>
<path d="M263.423 183.683C263.423 183.683 262.363 184.719 261.987 184.996C261.296 185.326 260.624 185.695 259.975 186.102C259.022 186.785 257.932 189.266 258.585 190.81C259.237 192.353 260.19 192.008 260.697 191.416C261.203 190.825 261.357 190.241 261.979 188.736C262.809 186.724 263.377 185.426 263.377 185.426L263.607 183.836L263.423 183.683ZM262.002 186.924C261.554 187.585 261.173 188.29 260.865 189.028C260.466 189.98 260.505 190.472 260.151 190.871C259.798 191.27 259.345 191.025 259.184 190.257C259.096 189.759 259.109 189.248 259.224 188.756C259.339 188.264 259.553 187.8 259.852 187.392C260.551 186.348 261.388 186.048 261.91 186.194C262.094 186.255 262.286 186.47 261.987 186.924H262.002Z" fill="#121F4C"/>
<path d="M234.762 180.603C230.96 180.864 230.692 182.7 229.747 184.712C229.126 186.306 229.148 188.079 229.808 189.658L232.212 197.276C232.212 197.276 230.976 200.272 229.532 203.106C236.183 206.823 244.485 204.872 246.489 202.161C246.574 201.585 246.059 197.092 245.721 194.158C246.896 191.225 247.204 189.358 246.712 187.415C245.79 183.813 242.235 180.304 240.66 180.426L234.762 180.603Z" fill="#121F4C"/>
<path d="M229.893 162.9L231.045 164.751C230.927 164.832 230.794 164.889 230.654 164.917C230.515 164.946 230.37 164.945 230.23 164.917C230.091 164.888 229.958 164.831 229.841 164.75C229.723 164.669 229.623 164.565 229.547 164.444C229.395 164.192 229.346 163.89 229.41 163.603C229.475 163.315 229.647 163.064 229.893 162.9Z" fill="#263238"/>
<path d="M243.394 165.304C244.293 165.834 245.406 168.1 245.299 172.838C245.207 176.855 243.901 177.846 243.248 178.13C242.595 178.414 241.336 178.245 240.107 178.038V180.48C240.107 180.48 241.804 182.446 241.697 183.552C241.589 184.658 239.247 184.919 237.665 183.844C236.636 183.104 235.753 182.179 235.061 181.117V175.257C234.933 175.416 234.774 175.547 234.594 175.643C234.414 175.74 234.217 175.799 234.014 175.818C233.811 175.838 233.606 175.816 233.412 175.756C233.217 175.695 233.036 175.596 232.88 175.465C231.529 174.566 231.475 172.339 232.266 171.54C233.057 170.742 234.746 170.995 235.061 172.101C236.671 172.033 238.239 171.565 239.623 170.742C240.636 170.197 241.506 169.421 242.161 168.476C242.817 167.53 243.239 166.444 243.394 165.304Z" fill="#FFA8A7"/>
<path d="M240.383 171.825C240.384 171.925 240.356 172.022 240.302 172.106C240.248 172.19 240.171 172.256 240.08 172.296C239.989 172.336 239.888 172.349 239.79 172.332C239.692 172.315 239.601 172.269 239.528 172.201C239.456 172.133 239.405 172.045 239.382 171.948C239.36 171.851 239.366 171.749 239.4 171.656C239.435 171.563 239.496 171.481 239.577 171.423C239.657 171.364 239.753 171.33 239.853 171.326C239.989 171.324 240.12 171.375 240.219 171.468C240.318 171.561 240.377 171.689 240.383 171.825Z" fill="#263238"/>
<path d="M240.944 175.235L242.119 175.611C242.098 175.69 242.061 175.764 242.01 175.828C241.96 175.892 241.897 175.945 241.825 175.984C241.753 176.023 241.674 176.047 241.592 176.054C241.511 176.061 241.429 176.051 241.351 176.026C241.195 175.971 241.065 175.859 240.989 175.712C240.914 175.564 240.897 175.394 240.944 175.235Z" fill="#F28F8F"/>
<path d="M244.507 170.273L243.478 169.567C243.522 169.498 243.579 169.439 243.646 169.393C243.713 169.347 243.788 169.315 243.868 169.299C243.948 169.283 244.03 169.284 244.11 169.301C244.189 169.318 244.264 169.351 244.331 169.398C244.467 169.493 244.562 169.637 244.595 169.8C244.628 169.963 244.597 170.133 244.507 170.273Z" fill="#263238"/>
<path d="M244.27 171.464C244.275 171.531 244.267 171.599 244.246 171.663C244.225 171.727 244.191 171.786 244.147 171.837C244.102 171.887 244.048 171.929 243.988 171.958C243.927 171.988 243.861 172.005 243.794 172.009C243.69 172.018 243.586 171.996 243.495 171.946C243.404 171.895 243.33 171.818 243.283 171.726C243.236 171.633 243.217 171.528 243.23 171.425C243.243 171.321 243.287 171.224 243.355 171.146C243.424 171.067 243.514 171.011 243.615 170.984C243.715 170.958 243.822 170.962 243.92 170.996C244.019 171.03 244.104 171.093 244.167 171.176C244.229 171.26 244.265 171.36 244.27 171.464Z" fill="#263238"/>
<path d="M241.804 171.172L241.881 174.213L243.486 173.722L241.804 171.172Z" fill="#F28F8F"/>
<path d="M240.106 178.038C238.816 177.869 236.159 177.109 235.744 176.057C235.91 176.589 236.234 177.058 236.673 177.401C237.441 178.076 240.106 178.844 240.106 178.844V178.038Z" fill="#F28F8F"/>
<path opacity="0.1" d="M236.466 203.827C234.654 203.397 232.818 201.423 233.648 199.488C233.885 198.944 234.292 198.491 234.808 198.198C234.997 198.09 235.215 198.045 235.432 198.068C235.648 198.092 235.852 198.183 236.013 198.328C235.153 197.76 233.64 194.98 233.441 193.966L232.419 190.549C232.324 189.775 232.392 188.99 232.619 188.245L229.946 185.173L229.455 185.518C229.135 186.916 229.259 188.379 229.808 189.704L232.212 197.322C232.212 197.322 230.975 200.318 229.531 203.151C231.694 204.316 234.082 205.003 236.533 205.166C238.984 205.329 241.441 204.964 243.739 204.096C241.32 204.469 238.852 204.377 236.466 203.827Z" fill="black"/>
<path d="M223.864 210.163C223.981 211.86 224.206 213.548 224.539 215.217C225.653 219.541 227.097 220.838 229.009 220.969C232.081 221.169 232.081 220.024 230.714 218.058C230.111 217.201 229.649 216.252 229.347 215.247C229.795 215.622 230.288 215.939 230.814 216.192C231.048 216.317 231.321 216.348 231.576 216.278C231.832 216.208 232.051 216.042 232.189 215.816C232.289 215.616 231.759 215.409 231.175 214.694C230.576 213.795 229.849 212.988 229.017 212.298C228.673 211.962 228.456 211.517 228.402 211.039C228.241 210.424 228.456 200.225 228.571 198.136L231.521 190.886C233.656 189.42 235.361 184.497 233.325 180.81C230.253 181.156 227.181 183.222 223.887 195.541C223.295 197.722 223.487 206.807 223.864 210.163Z" fill="#FFA8A7"/>
<path d="M160.797 246.897C163.869 246.897 166.035 248.233 166.857 251.359C167.678 254.485 169.114 262.111 169.114 262.111C169.114 262.111 175.128 261.934 176.556 262.111L177.063 265.667L167.847 267.648C165.705 268.109 165.052 265.997 163.523 262.218C161.995 258.44 160.797 246.897 160.797 246.897Z" fill="#FFA8A7"/>
<path d="M165.267 245.699H157.94C155.427 245.697 153.018 244.697 151.241 242.921C149.464 241.144 148.465 238.734 148.463 236.221C148.463 233.993 149.348 231.856 150.924 230.28C152.5 228.705 154.637 227.82 156.865 227.82C159.093 227.82 161.23 228.705 162.806 230.28C164.382 231.856 165.267 233.993 165.267 236.221V245.699Z" fill="#263238"/>
<path d="M150.36 231.168L148.324 230.077C148.389 229.94 148.48 229.818 148.594 229.717C148.707 229.617 148.839 229.54 148.982 229.492C149.126 229.444 149.278 229.425 149.429 229.437C149.58 229.45 149.726 229.492 149.86 229.563C150.132 229.717 150.335 229.968 150.427 230.266C150.52 230.565 150.496 230.887 150.36 231.168Z" fill="#263238"/>
<path d="M150.482 231.36L148.324 232.166C148.263 232.028 148.232 231.878 148.231 231.727C148.23 231.575 148.26 231.425 148.318 231.286C148.377 231.146 148.464 231.02 148.573 230.916C148.683 230.811 148.812 230.73 148.954 230.676C149.248 230.572 149.57 230.585 149.855 230.712C150.139 230.84 150.364 231.072 150.482 231.36Z" fill="#263238"/>
<path d="M164.299 316.838C164.238 317.52 164.213 318.204 164.222 318.889V322.913H160.72V320.555C160.722 319.487 160.634 318.421 160.459 317.368L164.299 316.838Z" fill="#FFA8A7"/>
<path d="M164.221 321.185V320.686C164.321 321.454 166.525 324.311 167.876 325.578C168.982 326.584 170.488 327.744 170.872 328.865C171.256 329.986 169.09 330.493 167.669 330.355C166.282 330.184 165.005 329.516 164.075 328.473C163.502 327.748 162.988 326.977 162.539 326.169C162.116 325.601 160.235 324.426 159.989 323.766C159.917 323.146 159.985 322.519 160.189 321.93C160.35 321.308 160.527 320.632 160.734 320.686V321.07C161.233 321.462 161.851 321.671 162.485 321.661C162.984 321.677 164.221 321.577 164.221 321.185Z" fill="#263238"/>
<path d="M160.719 321.07C161.217 321.462 161.836 321.671 162.47 321.661C162.984 321.661 164.221 321.577 164.221 321.185V320.686C164.321 321.454 166.525 324.311 167.877 325.578L168.721 326.346C169.305 326.999 169.136 327.567 167.761 327.69C166.387 327.813 165.166 326.976 164.121 325.693C163.077 324.411 160.719 321.07 160.719 321.07Z" fill="#FFA8A7"/>
<path d="M150.329 321.707C150.26 322.552 150.26 323.435 150.245 323.819V327.836H146.75V325.478C146.75 324.411 146.643 323.005 146.643 322.007L150.329 321.707Z" fill="#FFA8A7"/>
<path d="M150.243 326.116V325.632C150.343 326.4 152.547 329.257 153.907 330.524C155.013 331.53 156.518 332.69 156.894 333.811C157.27 334.933 155.12 335.439 153.692 335.301C152.308 335.129 151.033 334.46 150.105 333.42C149.534 332.692 149.021 331.922 148.569 331.116C148.147 330.54 146.265 329.365 146.012 328.704C145.947 328.084 146.018 327.458 146.219 326.869C146.38 326.246 146.557 325.571 146.764 325.624V326.008C147.263 326.4 147.881 326.609 148.515 326.6C148.991 326.607 150.251 326.5 150.243 326.116Z" fill="#263238"/>
<path d="M146.75 325.993C147.249 326.385 147.867 326.594 148.501 326.584C149.008 326.584 150.252 326.5 150.245 326.116V325.632C150.344 326.4 152.549 329.257 153.908 330.524L154.745 331.292C155.336 331.945 155.167 332.521 153.793 332.636C152.418 332.751 151.197 331.922 150.152 330.639C149.108 329.357 146.75 325.993 146.75 325.993Z" fill="#FFA8A7"/>
<path d="M148.846 266.719C147.653 268.998 146.952 271.501 146.787 274.068C146.158 283.108 147.425 296.102 147.425 296.102C147.34 297.154 146.135 299.22 145.689 303.851C145.159 309.32 146.519 323.051 146.519 323.051C147.098 323.386 147.751 323.575 148.42 323.602C149.089 323.629 149.754 323.492 150.359 323.205C150.359 323.205 154.007 302.53 154.69 297.093C155.289 292.354 156.595 280.965 156.595 280.965L158.722 297.093C158.246 298.622 157.902 300.19 157.693 301.778C157.378 304.973 160.442 318.628 160.442 318.628C161.697 318.958 163.01 318.998 164.282 318.743C164.282 318.743 165.411 300.226 165.703 296.371C166.187 289.904 165.45 269.698 164.267 265.874L148.846 266.719Z" fill="#121F4C"/>
<path opacity="0.1" d="M156.619 280.942C158.51 280.268 160.275 279.285 161.842 278.031C160.891 279.517 159.538 280.702 157.94 281.449V291.018L156.611 280.942" fill="black"/>
<path d="M153.969 247.058C153.969 247.058 149.015 247.626 148.424 247.887C148.837 248.281 149.163 248.758 149.379 249.286C149.596 249.814 149.698 250.382 149.68 250.952C149.662 251.523 149.524 252.083 149.274 252.597C149.025 253.11 148.67 253.565 148.232 253.932L150.536 264.038C148.562 266.565 147.464 268.516 146.957 271.542C149.077 275.274 160.989 275.789 165.351 273.009C164.974 267.794 164.13 264.062 164.406 262.495C165.497 256.835 165.888 255.583 165.696 254.101C165.312 251.244 162.432 247.957 160.812 246.897H159.276L153.969 247.058Z" fill="#F5F5F5"/>
<path d="M162.509 231.936C163.4 232.466 164.49 234.693 164.383 239.378C164.29 243.341 163.008 244.316 162.363 244.6C161.718 244.884 160.474 244.715 159.291 244.508V246.889C159.291 246.889 160.965 248.832 160.827 249.961C160.689 251.09 158.415 251.312 156.849 250.245C155.717 249.369 154.743 248.307 153.969 247.104V241.628C153.969 241.628 153.254 242.319 152.049 241.267C151.05 240.391 150.72 238.963 151.496 238.134C151.698 237.947 151.941 237.811 152.206 237.737C152.471 237.663 152.749 237.652 153.019 237.706C153.288 237.76 153.541 237.877 153.757 238.047C153.973 238.218 154.145 238.437 154.26 238.687C154.26 238.687 154.929 236.82 157.716 235.906C160.259 235.008 161.626 234.094 162.509 231.936Z" fill="#FFA8A7"/>
<path d="M159.69 238.372C159.691 238.47 159.664 238.566 159.611 238.648C159.558 238.73 159.483 238.795 159.393 238.835C159.304 238.874 159.205 238.887 159.109 238.871C159.012 238.855 158.923 238.811 158.851 238.745C158.78 238.678 158.729 238.592 158.706 238.497C158.683 238.402 158.688 238.303 158.721 238.211C158.753 238.119 158.813 238.038 158.891 237.98C158.969 237.921 159.062 237.886 159.16 237.88C159.295 237.876 159.427 237.925 159.526 238.017C159.625 238.109 159.684 238.237 159.69 238.372Z" fill="#263238"/>
<path d="M159.82 241.736L160.98 242.104C160.959 242.183 160.922 242.257 160.872 242.321C160.821 242.386 160.758 242.439 160.686 242.478C160.614 242.516 160.535 242.54 160.453 242.547C160.372 242.554 160.29 242.545 160.212 242.519C160.059 242.463 159.933 242.351 159.86 242.205C159.788 242.06 159.773 241.891 159.82 241.736Z" fill="#F28F8F"/>
<path d="M163.776 236.836L162.77 236.137C162.812 236.069 162.868 236.011 162.934 235.966C163 235.921 163.074 235.89 163.152 235.874C163.23 235.858 163.311 235.858 163.389 235.874C163.467 235.891 163.541 235.922 163.607 235.968C163.74 236.064 163.832 236.207 163.863 236.368C163.895 236.53 163.863 236.697 163.776 236.836Z" fill="#263238"/>
<path d="M158.209 237.204L159.215 236.506C159.172 236.438 159.116 236.38 159.051 236.335C158.985 236.29 158.911 236.258 158.833 236.242C158.754 236.227 158.674 236.227 158.596 236.243C158.517 236.259 158.443 236.291 158.378 236.337C158.245 236.433 158.153 236.576 158.121 236.737C158.09 236.898 158.121 237.065 158.209 237.204Z" fill="#263238"/>
<path d="M163.583 238.011C163.588 238.077 163.579 238.144 163.557 238.207C163.535 238.27 163.501 238.329 163.457 238.379C163.413 238.428 163.359 238.469 163.299 238.498C163.239 238.528 163.174 238.545 163.107 238.548C162.973 238.551 162.844 238.5 162.746 238.409C162.649 238.317 162.591 238.191 162.585 238.057C162.581 237.99 162.59 237.924 162.612 237.861C162.633 237.797 162.667 237.739 162.712 237.689C162.756 237.639 162.809 237.599 162.869 237.569C162.929 237.54 162.995 237.523 163.061 237.519C163.195 237.517 163.325 237.567 163.422 237.659C163.52 237.751 163.578 237.877 163.583 238.011Z" fill="#263238"/>
<path d="M161.188 237.727L161.272 240.729L162.847 240.238L161.188 237.727Z" fill="#F28F8F"/>
<path d="M159.26 244.5C157.985 244.339 155.366 243.579 154.951 242.542C155.117 243.068 155.438 243.531 155.873 243.87C156.641 244.539 159.26 245.299 159.26 245.299V244.5Z" fill="#F28F8F"/>
<path d="M149.498 259.522L153.722 265.682L150.527 264.038L149.498 259.522Z" fill="#E0E0E0"/>
<path d="M144.653 276.634C144.979 278.121 145.392 279.588 145.889 281.027C147.425 284.713 148.869 285.673 150.582 285.55C153.308 285.343 153.185 284.329 151.718 282.755C151.087 282.073 150.568 281.296 150.182 280.451C150.624 280.725 151.099 280.941 151.595 281.096C151.818 281.176 152.063 281.17 152.281 281.077C152.499 280.985 152.674 280.813 152.771 280.596C152.832 280.397 152.34 280.282 151.726 279.729C151.082 279.009 150.337 278.385 149.514 277.878C149.167 277.623 148.918 277.257 148.808 276.841C148.593 276.319 147.272 267.625 147.487 265.782L149.023 257.188C150.728 255.652 151.795 248.778 148.723 247.826C145.367 248.494 144.253 252.365 142.871 263.693C142.579 265.728 143.923 273.708 144.653 276.634Z" fill="#FFA8A7"/>
<path d="M299.521 193.367C298.765 194.89 297.918 196.368 296.986 197.79C294.314 201.377 292.493 202.03 290.673 201.423C287.77 200.463 288.185 199.396 290.197 198.09C291.073 197.522 291.851 196.817 292.501 196.001C291.945 196.177 291.37 196.286 290.788 196.324C290.525 196.347 290.262 196.271 290.052 196.11C289.841 195.95 289.699 195.716 289.652 195.456C289.652 195.233 290.205 195.241 291.019 194.795C291.915 194.193 292.892 193.722 293.922 193.397C294.369 193.213 294.739 192.883 294.974 192.46C295.35 191.954 299.152 182.914 299.405 180.825C299.405 180.825 299.789 175.772 300.273 171.072C300.673 167.132 301.471 164.091 305.066 163.891C307.761 165.358 306.602 167.155 305.004 179.819C304.712 182.062 301.057 190.387 299.521 193.367Z" fill="#FFA8A7"/>
<path d="M305.856 163.822C305.856 163.822 303.283 163.499 301.855 165.051C300.426 166.602 299.927 169.705 299.612 172.439C299.297 175.173 298.967 177.815 298.967 177.815C300.038 178.487 301.233 178.937 302.481 179.138C303.729 179.338 305.005 179.285 306.232 178.982L305.856 163.822Z" fill="#121F4C"/>
<path d="M305.164 157.071C308.1 157.071 310.479 154.692 310.479 151.757C310.479 148.822 308.1 146.442 305.164 146.442C302.229 146.442 299.85 148.822 299.85 151.757C299.85 154.692 302.229 157.071 305.164 157.071Z" fill="#263238"/>
<path d="M317.891 241.689H314.15V248.095H317.891V241.689Z" fill="#FFA8A7"/>
<path d="M304.911 243.609L301.171 243.74L300.987 236.958L304.727 236.828L304.911 243.609Z" fill="#FFA8A7"/>
<path d="M317.644 190.886C317.644 194.457 318.105 216.123 318.105 216.123C318.197 217.152 319.157 219.049 318.949 222.996C318.665 228.372 318.181 242.319 318.181 242.319C318.181 242.319 316.423 244.055 313.95 242.319C313.95 242.319 310.555 223.019 309.887 217.697C309.303 213.089 308.305 200.448 308.305 200.448L306.231 217.95C306.231 217.95 306.838 221.437 306.999 223.902C307.161 226.368 304.972 238.848 304.972 238.848C304.365 239.227 303.669 239.441 302.953 239.468C302.238 239.495 301.528 239.334 300.894 239.001C300.894 239.001 299.281 219.947 298.897 217.72C298.513 215.493 300.133 190.84 300.133 190.84L317.644 190.886Z" fill="#37474F"/>
<path d="M314.051 165.028C314.852 165.167 315.593 165.543 316.179 166.107C316.764 166.671 317.168 167.397 317.338 168.192C317.543 169.125 317.646 170.078 317.645 171.033V190.909C315.019 193.766 305.872 195.095 300.135 190.909C300.135 190.909 300.25 173.353 300.68 170.473C301.448 165.458 303.821 163.676 306.233 163.86L312.008 164.69L314.051 165.028Z" fill="#F0F0F0"/>
<path d="M314.35 155.535C314.031 157.127 313.629 158.701 313.144 160.251C312.912 160.659 312.533 160.964 312.084 161.103L312.146 158.254L314.35 155.535Z" fill="#263238"/>
<path d="M313.274 149.76C313.574 149.724 313.878 149.757 314.163 149.857C314.448 149.957 314.706 150.121 314.918 150.336C315.632 151.104 315.232 153.331 314.349 155.551L312.729 155.743L313.274 149.76Z" fill="#263238"/>
<path d="M312.245 155.727C312.568 155.919 313.013 155.297 313.436 154.875C313.594 154.695 313.795 154.558 314.02 154.477C314.246 154.396 314.488 154.373 314.725 154.412C314.961 154.45 315.184 154.548 315.373 154.696C315.561 154.844 315.708 155.038 315.801 155.259C316.462 156.664 315.218 158.515 314.188 158.838C312.414 159.399 312.146 158.254 312.146 158.254L312.007 164.667C311.616 165.527 311.018 166.276 310.266 166.847C309.514 167.418 308.632 167.793 307.699 167.939C304.55 168.369 305.195 165.773 306.232 164.498V162.547C305.443 162.675 304.642 162.716 303.843 162.67C302.53 162.471 301.708 161.434 301.317 160.021C300.679 157.717 300.434 155.919 300.979 151.45C301.57 146.55 307.261 146.504 310.341 148.439C313.42 150.375 312.245 155.727 312.245 155.727Z" fill="#FFA8A7"/>
<path d="M312.246 156.273C312.407 156.273 313.014 155.243 313.436 154.875C313.997 154.368 313.275 149.745 313.275 149.745C313.414 149.349 313.436 148.921 313.339 148.513C313.243 148.104 313.031 147.732 312.73 147.441C311.962 146.596 310.679 146.504 308.483 146.158C307.331 145.974 305.587 145.659 304.443 145.444C303.068 145.19 301.932 144.914 300.964 145.759C300.583 146.088 300.314 146.526 300.193 147.015C300.072 147.503 300.105 148.016 300.288 148.485C300.39 148.697 300.522 148.894 300.68 149.069C300.941 149.381 301.284 149.615 301.67 149.745C301.67 149.745 302.269 150.274 304.351 150.513C306.27 150.658 308.198 150.622 310.111 150.405C310.717 150.321 310.879 150.904 311.171 152.509C311.455 153.884 311.693 156.265 312.246 156.273Z" fill="#263238"/>
<path d="M313.267 150.106L315.233 149.046C315.17 148.913 315.081 148.795 314.971 148.697C314.861 148.6 314.733 148.527 314.593 148.481C314.454 148.435 314.307 148.417 314.161 148.43C314.014 148.443 313.872 148.485 313.743 148.554C313.481 148.703 313.285 148.947 313.197 149.235C313.108 149.524 313.133 149.835 313.267 150.106Z" fill="#263238"/>
<path d="M306.233 162.547C307.577 162.29 308.896 161.912 310.173 161.418C310.774 161.105 311.266 160.618 311.586 160.02C311.443 160.614 311.182 161.173 310.818 161.664C310.05 162.624 306.271 163.323 306.271 163.323L306.233 162.547Z" fill="#F28F8F"/>
<path d="M306.938 154.998C306.942 155.112 306.98 155.222 307.047 155.315C307.114 155.408 307.207 155.479 307.314 155.52C307.421 155.561 307.537 155.569 307.649 155.544C307.761 155.519 307.862 155.462 307.942 155.379C308.021 155.297 308.074 155.193 308.095 155.08C308.116 154.968 308.103 154.851 308.058 154.746C308.014 154.641 307.939 154.551 307.843 154.488C307.748 154.425 307.636 154.391 307.522 154.391C307.443 154.392 307.366 154.408 307.294 154.44C307.222 154.471 307.157 154.516 307.103 154.572C307.049 154.629 307.006 154.695 306.978 154.768C306.949 154.841 306.936 154.919 306.938 154.998Z" fill="#263238"/>
<path d="M307.553 152.832L308.805 153.516C308.888 153.344 308.904 153.147 308.85 152.964C308.796 152.781 308.676 152.624 308.513 152.525C308.43 152.48 308.339 152.452 308.245 152.444C308.152 152.435 308.057 152.445 307.968 152.474C307.878 152.503 307.795 152.549 307.724 152.611C307.652 152.672 307.594 152.747 307.553 152.832Z" fill="#263238"/>
<path d="M306.501 159.037L305.164 159.537C305.194 159.626 305.241 159.708 305.302 159.779C305.364 159.85 305.44 159.907 305.524 159.948C305.609 159.989 305.701 160.012 305.795 160.017C305.889 160.021 305.982 160.007 306.071 159.974C306.246 159.899 306.387 159.762 306.466 159.589C306.546 159.416 306.558 159.219 306.501 159.037Z" fill="#F28F8F"/>
<path d="M301.723 153.277L302.868 152.402C302.814 152.324 302.745 152.257 302.665 152.207C302.585 152.156 302.495 152.123 302.402 152.108C302.308 152.094 302.213 152.099 302.121 152.123C302.029 152.147 301.944 152.19 301.869 152.248C301.72 152.37 301.623 152.544 301.596 152.734C301.569 152.925 301.614 153.119 301.723 153.277Z" fill="#263238"/>
<path d="M302.077 154.829C302.081 154.943 302.119 155.053 302.186 155.146C302.253 155.239 302.345 155.311 302.452 155.351C302.559 155.392 302.676 155.4 302.788 155.375C302.899 155.35 303.001 155.293 303.08 155.21C303.16 155.128 303.213 155.024 303.234 154.911C303.255 154.799 303.242 154.683 303.197 154.577C303.152 154.472 303.077 154.382 302.982 154.319C302.887 154.256 302.775 154.222 302.66 154.222C302.582 154.223 302.505 154.239 302.433 154.271C302.361 154.302 302.296 154.347 302.242 154.403C302.187 154.46 302.145 154.526 302.116 154.599C302.088 154.672 302.075 154.75 302.077 154.829Z" fill="#263238"/>
<path d="M305.049 154.276L304.857 157.793L303.022 157.163L305.049 154.276Z" fill="#F28F8F"/>
<path d="M314.15 246.244V245.714C313.789 245.867 312.96 249.039 311.47 250.399C310.295 251.474 308.682 252.703 308.275 253.916C307.868 255.13 310.517 255.859 311.616 255.659C312.898 255.437 315.118 254.53 315.678 253.693C316.239 252.856 316.5 251.627 316.953 251.013C317.406 250.399 318.451 249.715 318.697 249.001C318.767 248.34 318.694 247.672 318.482 247.043C318.305 246.374 318.121 245.652 317.89 245.714V246.121C317.359 246.539 316.7 246.761 316.024 246.751C315.471 246.774 314.112 246.666 314.15 246.244Z" fill="#263238"/>
<path d="M301.133 242.588C300.941 242.588 300.78 242.865 300.365 243.356C299.723 244.002 298.978 244.537 298.161 244.938C296.763 245.637 294.037 246.72 292.785 247.242C292.017 247.588 292.017 248.525 292.854 249.055C293.691 249.585 295.573 249.961 297.877 249.446C299.136 249.162 300.772 248.002 301.809 248.064C302.845 248.125 304.789 248.11 305.549 247.588C306.309 247.065 306.01 245.937 305.795 244.969C305.58 244.001 305.219 242.296 304.873 242.365V242.688C304.428 243.371 302.131 243.648 301.141 243.149L301.133 242.588Z" fill="#263238"/>
<path d="M308.328 200.448C306.396 199.843 304.619 198.824 303.121 197.46C304.122 198.991 305.496 200.241 307.115 201.093L306.255 217.989L308.328 200.448Z" fill="#263238"/>
<path d="M323.443 196.516C323.322 198.215 323.096 199.905 322.767 201.577C321.646 205.901 320.21 207.191 318.298 207.321C315.226 207.529 315.226 206.384 316.593 204.411C317.194 203.553 317.653 202.604 317.952 201.6C317.503 201.973 317.01 202.29 316.485 202.544C316.25 202.667 315.978 202.697 315.722 202.629C315.467 202.56 315.245 202.399 315.103 202.176C315.003 201.968 315.533 201.761 316.124 201.047C316.721 200.15 317.445 199.345 318.275 198.658C318.619 198.318 318.838 197.872 318.897 197.391C319.05 196.777 319.158 186.969 318.605 184.942L315.978 175.511C313.843 174.044 311.562 166.786 314.811 165.243C317.883 165.588 320.087 169.574 323.413 181.893C324.012 184.074 323.789 193.159 323.443 196.516Z" fill="#FFA8A7"/>
<path d="M314.15 165.066C313.732 165.436 313.398 165.892 313.17 166.402C312.942 166.911 312.826 167.464 312.829 168.023C312.745 170.081 313.705 173.038 314.289 174.889C314.872 176.74 316.086 180.096 316.086 180.096C316.086 180.096 321.101 179.52 322.23 176.578C322.23 176.578 319.88 168.967 317.622 166.495C317.192 166.005 316.655 165.622 316.053 165.374C315.451 165.127 314.8 165.021 314.15 165.066Z" fill="#121F4C"/>
<path d="M293.684 198.62V221.775C293.683 221.896 293.642 222.013 293.568 222.109C293.494 222.204 293.391 222.273 293.274 222.304C293.157 222.336 293.034 222.328 292.922 222.282C292.81 222.237 292.716 222.156 292.654 222.052L290.565 218.434L288.523 224.333C288.48 224.456 288.395 224.559 288.283 224.626C288.171 224.693 288.039 224.718 287.911 224.696C287.782 224.675 287.665 224.61 287.58 224.511C287.496 224.412 287.449 224.286 287.447 224.156V202.222L293.684 198.62Z" fill="#121F4C"/>
<path opacity="0.1" d="M293.684 198.62V221.775C293.683 221.896 293.642 222.013 293.568 222.109C293.494 222.204 293.391 222.273 293.274 222.304C293.157 222.336 293.034 222.328 292.922 222.282C292.81 222.237 292.716 222.156 292.654 222.052L290.565 218.434L288.523 224.333C288.48 224.456 288.395 224.559 288.283 224.626C288.171 224.693 288.039 224.718 287.911 224.696C287.782 224.675 287.665 224.61 287.58 224.511C287.496 224.412 287.449 224.286 287.447 224.156V202.222L293.684 198.62Z" fill="black"/>
<path d="M172.031 266.281L169.136 293.722C169.13 293.799 169.152 293.876 169.197 293.939C169.242 294.001 169.308 294.046 169.383 294.066C169.458 294.085 169.538 294.077 169.608 294.044C169.677 294.01 169.733 293.953 169.766 293.883L173.106 285.996L174.688 290.849C174.713 290.918 174.76 290.977 174.822 291.017C174.884 291.056 174.958 291.074 175.031 291.067C175.104 291.06 175.173 291.028 175.226 290.978C175.28 290.927 175.315 290.861 175.326 290.788L178.275 265.26L172.031 266.281Z" fill="#121F4C"/>
<path opacity="0.1" d="M172.031 266.281L169.136 293.722C169.13 293.799 169.152 293.876 169.197 293.939C169.242 294.001 169.308 294.046 169.383 294.066C169.458 294.085 169.538 294.077 169.608 294.044C169.677 294.01 169.733 293.953 169.766 293.883L173.106 285.996L174.688 290.849C174.713 290.918 174.76 290.977 174.822 291.017C174.884 291.056 174.958 291.074 175.031 291.067C175.104 291.06 175.173 291.028 175.226 290.978C175.28 290.927 175.315 290.861 175.326 290.788L178.275 265.26L172.031 266.281Z" fill="black"/>
<path d="M173.06 264.775C212.489 250.844 252.026 229.286 292.738 195.655C293.229 195.248 293.682 195.509 293.682 196.147V204.672C293.653 205.021 293.554 205.362 293.392 205.673C293.23 205.984 293.007 206.26 292.738 206.484C252.149 240.015 212.605 261.596 173.06 275.604C172.461 275.812 172.016 275.604 172.016 274.936V266.419C172.022 266.075 172.122 265.74 172.307 265.45C172.491 265.16 172.752 264.927 173.06 264.775Z" fill="#121F4C"/>
<path d="M179.62 263.624C179.25 263.162 178.783 262.789 178.252 262.53C177.721 262.271 177.139 262.133 176.548 262.126L173.476 264.622C173.476 264.622 172.401 268.354 173.038 268.508C173.675 268.662 173.806 267.855 174.251 266.972C174.697 266.089 175.181 265.713 175.787 266.696C176.394 267.679 178.783 270.843 180.495 269C182.208 267.156 180.48 264.653 179.62 263.624Z" fill="#FFA8A7"/>
</svg>
