<svg width="446" height="445" viewBox="0 0 446 445" fill="none" xmlns="http://www.w3.org/2000/svg">
<circle cx="230.016" cy="220" r="199" fill="url(#paint0_linear_102_142)"/>
<circle cx="403.911" cy="113.911" r="9.91052" stroke="#7C89FF" stroke-width="4"/>
<circle cx="274.911" cy="410.911" r="9.91052" stroke="#7C89FF" stroke-width="4"/>
<g filter="url(#filter0_f_102_142)">
<path d="M86 234L89.3761 243.124L98.5 246.5L89.3761 249.876L86 259L82.6239 249.876L73.5 246.5L82.6239 243.124L86 234Z" fill="#7C89FF"/>
</g>
<path d="M403.58 290L408.599 303.562L422.161 308.58L408.599 313.599L403.58 327.161L398.562 313.599L385 308.58L398.562 303.562L403.58 290Z" fill="#7C89FF"/>
<g filter="url(#filter1_f_102_142)">
<path d="M144.392 35L150.44 51.344L166.784 57.3918L150.44 63.4396L144.392 79.7836L138.344 63.4396L122 57.3918L138.344 51.344L144.392 35Z" fill="#7C89FF"/>
</g>
<path d="M168.192 184.769V318.239L187.409 306.552L206.627 318.239L225.845 306.552L245.06 318.239L264.28 306.552L283.496 318.239L302.711 306.552L321.931 318.239V154.514C321.931 143.655 313.145 134.85 302.301 134.85H148.566" fill="url(#paint1_linear_102_142)"/>
<path d="M128.939 234.023H168.191V152.765C168.191 142.871 160.188 134.853 150.313 134.853H146.814C136.942 134.853 128.936 142.871 128.936 152.765V234.023H128.939Z" fill="url(#paint2_linear_102_142)"/>
<path d="M321.936 253.911C322.885 253.91 323.794 253.532 324.463 252.861C325.133 252.19 325.509 251.28 325.508 250.332V154.514C325.508 141.696 315.103 131.27 302.311 131.27H148.566C135.775 131.27 125.367 141.699 125.367 154.514V211.559C125.366 212.508 125.742 213.417 126.412 214.089C127.081 214.76 127.99 215.138 128.939 215.139C129.887 215.138 130.796 214.76 131.466 214.089C132.136 213.417 132.511 212.508 132.511 211.559V154.514C132.511 145.644 139.712 138.43 148.564 138.43C157.415 138.43 164.617 145.647 164.617 154.514V230.44H132.513V224.657C132.514 223.708 132.138 222.799 131.468 222.127C130.799 221.456 129.89 221.078 128.941 221.077C127.993 221.079 127.083 221.457 126.413 222.129C125.743 222.8 125.367 223.71 125.367 224.659V234.023C125.366 234.971 125.742 235.881 126.412 236.552C127.081 237.223 127.99 237.601 128.939 237.603H164.62V318.239C164.62 318.872 164.789 319.495 165.108 320.042C165.428 320.589 165.888 321.041 166.439 321.352C166.991 321.664 167.616 321.823 168.25 321.813C168.883 321.804 169.503 321.627 170.045 321.299L187.409 310.74L204.773 321.299C205.912 321.991 207.34 321.991 208.481 321.299L225.845 310.74L243.209 321.299C244.347 321.991 245.775 321.991 246.917 321.299L264.28 310.74L281.644 321.299C282.783 321.991 284.208 321.991 285.352 321.299L302.716 310.74L320.077 321.299C320.619 321.63 321.239 321.809 321.874 321.82C322.508 321.83 323.134 321.67 323.686 321.356C324.238 321.045 324.697 320.591 325.016 320.044C325.336 319.496 325.504 318.873 325.503 318.239V263.432C325.503 261.455 323.905 259.852 321.931 259.852C319.957 259.852 318.359 261.455 318.359 263.432V311.881L304.567 303.494C304.009 303.153 303.367 302.973 302.713 302.973C302.059 302.973 301.418 303.153 300.859 303.494L283.498 314.053L266.134 303.494C265.576 303.153 264.935 302.973 264.28 302.973C263.626 302.973 262.985 303.153 262.427 303.494L245.063 314.053L227.701 303.494C227.143 303.153 226.502 302.973 225.847 302.973C225.193 302.973 224.552 303.153 223.994 303.494L206.627 314.053L189.263 303.494C188.705 303.153 188.064 302.973 187.411 302.973C186.757 302.973 186.116 303.153 185.558 303.494L171.766 311.881V154.514C171.766 148.276 169.296 142.608 165.291 138.43H302.314C311.166 138.43 318.364 145.647 318.364 154.514V250.332C318.364 251.28 318.74 252.19 319.409 252.861C320.079 253.532 320.988 253.91 321.936 253.911Z" fill="#7C89FF"/>
<rect x="190" y="177" width="38" height="10" rx="5" fill="white"/>
<rect x="235" y="177" width="59" height="10" rx="5" fill="white"/>
<rect x="190" y="201" width="61" height="10" rx="5" fill="url(#paint3_linear_102_142)"/>
<rect x="190" y="247" width="40" height="10" rx="5" fill="url(#paint4_linear_102_142)"/>
<rect x="190" y="224" width="99" height="10" rx="5" fill="url(#paint5_linear_102_142)"/>
<g filter="url(#filter2_f_102_142)">
<path d="M383.87 209.601C381.711 204.982 378.625 200.838 374.695 197.283C370.781 193.741 366.225 190.961 361.154 189.021C355.917 187.017 350.355 186 344.625 186C338.895 186 333.333 187.017 328.096 189.021C323.026 190.961 318.469 193.743 314.555 197.283C310.626 200.838 307.539 204.982 305.38 209.601C303.15 214.339 301.996 219.513 302 224.75C302 235.619 306.978 245.902 315.723 253.235C312.938 256.883 308.918 260.19 302.941 263.776C302.578 263.994 302.296 264.325 302.139 264.719C301.981 265.112 301.957 265.546 302.07 265.955C302.184 266.363 302.427 266.723 302.765 266.979C303.102 267.236 303.514 267.375 303.938 267.375C309.837 267.375 315.26 266.788 320.057 265.631C324.146 264.644 327.797 263.241 330.926 261.453C335.364 262.817 339.982 263.507 344.625 263.5C350.355 263.5 355.917 262.483 361.154 260.479C366.224 258.542 370.781 255.757 374.694 252.217C378.624 248.662 381.711 244.518 383.87 239.899C386.095 235.159 387.249 229.987 387.249 224.75C387.249 219.513 386.095 214.341 383.87 209.601H383.87Z" fill="#FF4F75"/>
</g>
<path d="M383.87 209.601C381.711 204.982 378.625 200.838 374.695 197.283C370.781 193.741 366.225 190.961 361.154 189.021C355.917 187.017 350.355 186 344.625 186C338.895 186 333.333 187.017 328.096 189.021C323.026 190.961 318.469 193.743 314.555 197.283C310.626 200.838 307.539 204.982 305.38 209.601C303.15 214.339 301.996 219.513 302 224.75C302 235.619 306.978 245.902 315.723 253.235C312.938 256.883 308.918 260.19 302.941 263.776C302.578 263.994 302.296 264.325 302.139 264.719C301.981 265.112 301.957 265.546 302.07 265.955C302.184 266.363 302.427 266.723 302.765 266.979C303.102 267.236 303.514 267.375 303.938 267.375C309.837 267.375 315.26 266.788 320.057 265.631C324.146 264.644 327.797 263.241 330.926 261.453C335.364 262.817 339.982 263.507 344.625 263.5C350.355 263.5 355.917 262.483 361.154 260.479C366.224 258.542 370.781 255.757 374.694 252.217C378.624 248.662 381.711 244.518 383.87 239.899C386.095 235.159 387.249 229.987 387.249 224.75C387.249 219.513 386.095 214.341 383.87 209.601H383.87Z" fill="#FF4F75"/>
<path fill-rule="evenodd" clip-rule="evenodd" d="M330.435 235.216C328.976 236.675 328.976 239.041 330.435 240.5C331.895 241.959 334.261 241.959 335.72 240.5L344.968 231.252L354.216 240.5C355.675 241.959 358.041 241.959 359.5 240.5C360.959 239.041 360.959 236.675 359.5 235.215L350.252 225.968L359.5 216.72C360.96 215.26 360.96 212.894 359.5 211.435C358.041 209.976 355.675 209.976 354.216 211.435L344.968 220.683L335.72 211.435C334.261 209.976 331.895 209.976 330.435 211.435C328.976 212.894 328.976 215.26 330.435 216.72L339.683 225.968L330.435 235.216Z" fill="white"/>
<defs>
<filter id="filter0_f_102_142" x="69.5" y="230" width="33" height="33" filterUnits="userSpaceOnUse" color-interpolation-filters="sRGB">
<feFlood flood-opacity="0" result="BackgroundImageFix"/>
<feBlend mode="normal" in="SourceGraphic" in2="BackgroundImageFix" result="shape"/>
<feGaussianBlur stdDeviation="2" result="effect1_foregroundBlur_102_142"/>
</filter>
<filter id="filter1_f_102_142" x="118" y="31" width="52.7837" height="52.7836" filterUnits="userSpaceOnUse" color-interpolation-filters="sRGB">
<feFlood flood-opacity="0" result="BackgroundImageFix"/>
<feBlend mode="normal" in="SourceGraphic" in2="BackgroundImageFix" result="shape"/>
<feGaussianBlur stdDeviation="2" result="effect1_foregroundBlur_102_142"/>
</filter>
<filter id="filter2_f_102_142" x="282" y="166" width="125.25" height="121.375" filterUnits="userSpaceOnUse" color-interpolation-filters="sRGB">
<feFlood flood-opacity="0" result="BackgroundImageFix"/>
<feBlend mode="normal" in="SourceGraphic" in2="BackgroundImageFix" result="shape"/>
<feGaussianBlur stdDeviation="10" result="effect1_foregroundBlur_102_142"/>
</filter>
<linearGradient id="paint0_linear_102_142" x1="230.016" y1="21" x2="230.016" y2="419" gradientUnits="userSpaceOnUse">
<stop stop-color="white" stop-opacity="0"/>
<stop offset="1" stop-color="#C0C7FF"/>
</linearGradient>
<linearGradient id="paint1_linear_102_142" x1="235.249" y1="134.85" x2="235.249" y2="318.239" gradientUnits="userSpaceOnUse">
<stop stop-color="#DEE1FF"/>
<stop offset="0.808917" stop-color="#7C89FF"/>
</linearGradient>
<linearGradient id="paint2_linear_102_142" x1="148.564" y1="134.853" x2="148.564" y2="234.023" gradientUnits="userSpaceOnUse">
<stop stop-color="#5D6CF6"/>
<stop offset="1" stop-color="#B3BAFF"/>
</linearGradient>
<linearGradient id="paint3_linear_102_142" x1="190" y1="203" x2="255" y2="206" gradientUnits="userSpaceOnUse">
<stop stop-color="white"/>
<stop offset="1" stop-color="white" stop-opacity="0"/>
</linearGradient>
<linearGradient id="paint4_linear_102_142" x1="190" y1="249" x2="232.675" y2="250.292" gradientUnits="userSpaceOnUse">
<stop stop-color="white"/>
<stop offset="1" stop-color="white" stop-opacity="0"/>
</linearGradient>
<linearGradient id="paint5_linear_102_142" x1="190" y1="226" x2="295.127" y2="233.875" gradientUnits="userSpaceOnUse">
<stop stop-color="white"/>
<stop offset="1" stop-color="white" stop-opacity="0"/>
</linearGradient>
</defs>
</svg>
