<svg width="300" height="300" viewBox="0 0 300 300" fill="none" xmlns="http://www.w3.org/2000/svg">
<g clip-path="url(#clip0_1413_1246)">
<path d="M155.5 274C220.393 274 273 221.393 273 156.5C273 91.6065 220.393 39 155.5 39C90.6065 39 38 91.6065 38 156.5C38 221.393 90.6065 274 155.5 274Z" fill="url(#paint0_linear_1413_1246)"/>
<path d="M84.6654 202L134.039 66.4232L238.157 176.512L117.229 232.024C97.858 240.916 77.3717 222.028 84.6654 202Z" fill="#E1DCEB"/>
<path d="M199.569 109.239C213.945 124.556 225.532 139.741 232.648 151.902C236.208 157.986 238.634 163.289 239.739 167.459C240.292 169.544 240.507 171.32 240.383 172.756C240.259 174.187 239.803 175.247 239.044 175.959C238.285 176.672 237.199 177.06 235.763 177.092C234.322 177.125 232.563 176.798 230.517 176.114C226.425 174.747 221.287 171.99 215.44 168.052C203.754 160.18 189.333 147.655 174.958 132.338C160.582 117.022 148.995 101.837 141.879 89.6757C138.319 83.5916 135.893 78.2886 134.788 74.1185C134.235 72.0331 134.02 70.257 134.144 68.8214C134.267 67.3898 134.724 66.3306 135.483 65.6182C136.242 64.9057 137.328 64.5176 138.764 64.4851C140.205 64.4525 141.964 64.7796 144.01 65.4632C148.102 66.8301 153.24 69.5873 159.087 73.5253C170.773 81.3967 185.194 93.9223 199.569 109.239Z" fill="#073149" stroke="#073149"/>
<mask id="mask0_1413_1246" style="mask-type:alpha" maskUnits="userSpaceOnUse" x="83" y="66" width="156" height="169">
<path d="M84.6654 202L134.039 66.4232L238.157 176.512L117.229 232.024C97.858 240.916 77.3717 222.028 84.6654 202Z" fill="#E1DCEB"/>
</mask>
<g mask="url(#mask0_1413_1246)">
<path fill-rule="evenodd" clip-rule="evenodd" d="M131.724 156.574C110.864 129.256 100.309 96.687 96.9048 74.8213L113.702 72.2061C116.767 91.888 126.439 121.641 145.235 146.257C163.855 170.641 191.096 189.657 229.947 189.657V206.657C184.607 206.657 152.761 184.124 131.724 156.574Z" fill="#073149"/>
<path fill-rule="evenodd" clip-rule="evenodd" d="M133.963 151.35C113.103 124.031 102.548 91.4625 99.144 69.5968L115.942 66.9816C119.006 86.6635 128.678 116.416 147.474 141.032C166.094 165.417 193.336 184.432 232.186 184.432V201.432C186.846 201.432 155 178.9 133.963 151.35Z" fill="white"/>
<path fill-rule="evenodd" clip-rule="evenodd" d="M107.094 190.907C86.2337 163.588 75.6791 131.02 72.2748 109.154L89.0725 106.539C92.1367 126.221 101.809 155.974 120.605 180.59C139.225 204.974 166.466 223.99 205.317 223.99V240.99C159.977 240.99 128.131 218.457 107.094 190.907Z" fill="white"/>
</g>
<circle cx="180" cy="213" r="30" fill="#0DBC92"/>
<path fill-rule="evenodd" clip-rule="evenodd" d="M192.139 203.897C193.301 205.078 193.285 206.978 192.103 208.139L177.861 222.139C176.693 223.287 174.822 223.287 173.655 222.139L167.897 216.48C166.715 215.318 166.699 213.419 167.861 212.237C169.022 211.056 170.921 211.039 172.103 212.201L175.758 215.793L187.897 203.86C189.079 202.699 190.978 202.715 192.139 203.897Z" fill="white"/>
<path d="M238.664 69.7691L238.665 69.7689C240.44 65.2606 241.147 60.7643 241.889 56.0515C242.015 55.2485 242.142 54.4392 242.276 53.6225L238.664 69.7691ZM238.664 69.7691C238.362 70.5386 237.49 70.9192 236.721 70.6153L236.718 70.6142C235.948 70.3152 235.568 69.4453 235.871 68.6768L235.871 68.6767M238.664 69.7691L235.871 68.6767M235.871 68.6767C237.564 64.3725 238.233 60.0623 238.912 55.6856M235.871 68.6767L238.912 55.6856M238.912 55.6856C239.043 54.84 239.174 53.9919 239.314 53.141L238.912 55.6856ZM241.037 51.9025C241.856 52.0374 242.41 52.8067 242.276 53.6224L239.314 53.1407C239.448 52.323 240.221 51.7679 241.037 51.9025Z" fill="#073149" stroke="#073149"/>
<path d="M248.983 81.7937L248.983 81.7941C248.304 82.2657 247.368 82.096 246.894 81.4179C246.422 80.7426 246.589 79.8102 247.269 79.3376C257.338 72.3676 267.202 62.9814 274.539 53.1485L274.539 53.1482C275.032 52.4864 275.973 52.3489 276.64 52.8418C277.303 53.3322 277.441 54.2702 276.948 54.933C269.43 65.0108 259.311 74.64 248.983 81.7937Z" fill="#073149" stroke="#073149"/>
<path d="M276.696 88.3841L276.696 88.385C276.923 89.1702 276.467 89.9999 275.668 90.2314C267.571 92.5446 258.653 93.7214 250.522 91.2394C249.73 90.9972 249.285 90.1568 249.526 89.3721L249.526 89.3718C249.766 88.5864 250.606 88.139 251.399 88.3813L251.399 88.3813C259.065 90.7203 267.397 89.4841 274.838 87.3554C275.636 87.1298 276.468 87.5905 276.696 88.3841Z" fill="#073149" stroke="#073149"/>
<circle cx="251" cy="106" r="6" fill="#28CA9E"/>
<circle cx="201" cy="44" r="6" fill="#28CA9E"/>
<path d="M212.542 70.4607C212.025 68.3167 208.975 68.3167 208.458 70.4607L207.787 73.2378C207.602 74.004 207.004 74.6022 206.238 74.7872L203.461 75.4576C201.317 75.9751 201.317 79.0248 203.461 79.5423L206.238 80.2127C207.004 80.3977 207.602 80.9959 207.787 81.7621L208.458 84.5392C208.975 86.6833 212.025 86.6832 212.542 84.5392L213.213 81.7621C213.398 80.9959 213.996 80.3977 214.762 80.2127L217.539 79.5423C219.683 79.0248 219.683 75.9751 217.539 75.4576L214.762 74.7872C213.996 74.6022 213.398 74.004 213.213 73.2378L212.542 70.4607Z" fill="#28CA9E"/>
<path fill-rule="evenodd" clip-rule="evenodd" d="M186.965 24.3105C187.572 25.8524 186.813 27.5939 185.271 28.2003C180.87 29.931 175.23 35.5057 171.464 42.4445C168.597 47.7262 167.205 53.0603 167.789 57.4256C169.55 54.9118 171.659 52.8497 174.104 51.5251C178.488 49.1506 183.49 49.4026 188.332 52.7024C192.563 55.5856 194.288 59.6882 193.831 63.7759C193.394 67.6843 191.01 71.2175 187.776 73.4372C184.493 75.69 180.134 76.7289 175.637 75.352C173.088 74.5714 170.644 73.0621 168.407 70.7703C166.273 79.0786 166.35 89.4857 169.877 98.6899C170.47 100.237 169.696 101.972 168.149 102.565C166.602 103.158 164.867 102.384 164.274 100.837C159.622 88.6982 160.227 74.8347 164.02 64.7377C163.912 64.543 163.805 64.3456 163.699 64.1456C159.709 56.6111 162.098 47.1223 166.19 39.5825C170.314 31.9844 176.853 25.0633 183.075 22.6165C184.617 22.0101 186.359 22.7686 186.965 24.3105ZM170.757 64.2219C173.023 67.4405 175.373 68.9961 177.394 69.615C179.939 70.3942 182.42 69.8353 184.381 68.49C186.389 67.1115 187.652 65.0462 187.868 63.1094C188.065 61.3519 187.45 59.3625 184.953 57.6606C181.787 55.5034 179.188 55.5951 176.962 56.8008C174.743 58.0031 172.545 60.5189 170.757 64.2219Z" fill="#E3E3E3"/>
<path fill-rule="evenodd" clip-rule="evenodd" d="M283.809 141.642C252.363 129.954 228.298 144.487 220.516 152.707C218.618 154.713 215.453 154.799 213.448 152.901C211.443 151.002 211.356 147.838 213.254 145.832C223.137 135.393 251.267 118.878 287.293 132.268C289.881 133.23 291.2 136.108 290.238 138.697C289.276 141.285 286.397 142.604 283.809 141.642Z" fill="#CCC6D9"/>
<path fill-rule="evenodd" clip-rule="evenodd" d="M251.818 152.149C252.52 151.892 253.259 151.55 253.828 151.056C254.504 150.469 254.779 149.712 254.964 148.916C255.201 147.893 255.296 146.804 255.584 145.779C255.69 145.399 255.895 145.255 255.983 145.191C256.205 145.03 256.43 144.987 256.641 145.003C256.892 145.022 257.236 145.119 257.462 145.551C257.494 145.612 257.536 145.706 257.564 145.835C257.585 145.93 257.598 146.225 257.62 146.347C257.674 146.647 257.72 146.947 257.763 147.249C257.905 148.253 257.987 149.106 258.437 150.028C259.047 151.281 259.658 152.047 260.487 152.387C261.289 152.715 262.248 152.653 263.472 152.396C263.589 152.367 263.704 152.342 263.818 152.322C264.358 152.225 264.875 152.589 264.981 153.142C265.087 153.694 264.744 154.232 264.208 154.354C264.097 154.379 263.987 154.403 263.878 154.425C262.223 154.846 260.307 156.349 259.193 157.665C258.85 158.07 258.347 159.205 257.835 159.928C257.457 160.462 257.031 160.814 256.675 160.938C256.435 161.022 256.234 161.009 256.067 160.967C255.825 160.906 255.624 160.771 255.47 160.557C255.386 160.439 255.309 160.282 255.271 160.082C255.254 159.985 255.252 159.74 255.252 159.629C255.148 159.259 255.02 158.899 254.927 158.526C254.704 157.637 254.268 157.075 253.751 156.331C253.266 155.635 252.746 155.198 251.983 154.849C251.884 154.824 251.084 154.623 250.801 154.507C250.388 154.338 250.191 154.054 250.12 153.901C249.998 153.641 249.986 153.415 250.01 153.226C250.046 152.947 250.168 152.708 250.384 152.515C250.518 152.396 250.718 152.279 250.986 152.222C251.193 152.178 251.741 152.152 251.818 152.149ZM256.515 150.7C256.552 150.785 256.591 150.87 256.633 150.956C257.527 152.791 258.526 153.815 259.741 154.312L259.782 154.328C258.969 154.948 258.234 155.641 257.671 156.305C257.44 156.579 257.133 157.147 256.802 157.729C256.502 156.724 256.01 156.014 255.391 155.125C254.918 154.447 254.423 153.936 253.814 153.52C254.287 153.271 254.737 152.979 255.13 152.639C255.783 152.071 256.215 151.414 256.515 150.7Z" fill="#28CA9E"/>
<path d="M77.7842 154.891L77.7843 154.891C78.4598 154.283 78.5178 153.238 77.9099 152.558C77.3051 151.875 76.2602 151.817 75.5829 152.426C71.0686 156.489 68.4954 161.529 67.7521 167.549C67.6382 168.455 68.2834 169.282 69.1829 169.396L69.1836 169.396C70.0895 169.511 70.9143 168.866 71.0228 167.96C71.6666 162.745 73.8798 158.403 77.7842 154.891Z" fill="#073149" stroke="#073149"/>
<path d="M68.3909 210.296C68.12 210.288 67.7226 210.216 67.4277 209.742C67.3658 209.645 67.2009 209.141 67.0832 208.265C67.0223 207.803 66.9486 207.195 66.86 206.464C66.2673 201.575 65.0049 191.161 62.3939 181.944C60.4672 175.139 57.8742 168.962 54.1414 166.423C43.4762 159.17 31.0967 158.95 23.834 166.116M68.3909 210.296L23.834 166.116M68.3909 210.296C68.7826 210.303 69.0745 210.181 69.2987 210.014M68.3909 210.296L69.2987 210.014M23.834 166.116L24.1851 166.472C24.1851 166.472 24.1851 166.472 24.1851 166.472L23.834 166.116ZM69.2987 210.014C69.6014 209.786 69.8238 209.434 69.8742 208.938M69.2987 210.014L69.8742 208.938M69.8742 208.938C69.9 208.664 69.8593 208.296 69.7875 207.908L69.8742 208.938ZM17.8976 169.205C17.2432 170.328 16.6795 171.508 16.2279 172.736C16.0074 173.334 15.6331 174.629 15.7151 175.72C15.8008 176.911 16.3799 177.942 17.5953 178.336L17.5956 178.336C19.0175 178.795 20.128 178.57 20.9473 177.98C21.7288 177.419 22.2202 176.507 22.4364 175.435L22.4364 175.435C22.6423 174.413 22.5959 173.202 22.4301 172.075C22.281 171.061 22.0303 170.082 21.7527 169.321L17.8976 169.205ZM-5.33745 162.677C-5.33754 162.677 -5.33763 162.678 -5.33773 162.678C-5.33783 162.678 -5.33793 162.678 -5.33804 162.678L-5.05989 163.093L-5.33745 162.677ZM19.8523 166.357C19.746 166.491 19.641 166.625 19.5375 166.761C19.6463 166.893 19.7538 167.027 19.8599 167.163C19.9634 167.026 20.0685 166.89 20.175 166.755C20.0688 166.621 19.9612 166.488 19.8523 166.357ZM68.7299 199.209C68.6667 198.772 68.6008 198.325 68.532 197.87C68.4248 198.309 68.3213 198.748 68.2218 199.189C68.2927 199.678 68.3603 200.156 68.4246 200.62C68.5216 200.148 68.6235 199.678 68.7299 199.209ZM91.0802 150.582C91.0798 150.582 91.0795 150.582 91.0792 150.581C91.0788 150.581 91.0785 150.581 91.0781 150.58L90.7613 150.967L91.0802 150.582ZM70.153 207.207L69.6563 207.15L70.1528 207.209C70.1529 207.208 70.153 207.207 70.153 207.207ZM67.0031 210.006C67.0035 210.006 67.004 210.007 67.0044 210.008C67.0054 210.009 67.0064 210.011 67.0074 210.012L67.4276 209.742L67.0031 210.006ZM53.8602 166.836C53.8602 166.836 53.8603 166.836 53.8603 166.836L54.1378 166.428L53.8602 166.836ZM19.0349 175.282C19.0288 175.282 19.0196 175.282 19.0065 175.282C19.0044 175.282 19.0023 175.282 19.0001 175.281C19.0002 175.278 19.0002 175.275 19.0003 175.272C19.0264 174.801 19.1801 174.279 19.2935 173.957C19.285 174.248 19.257 174.524 19.2061 174.774L19.2059 174.775C19.1711 174.947 19.141 175.071 19.1027 175.165C19.0738 175.237 19.0494 175.268 19.0349 175.282Z" fill="#073149" stroke="#073149"/>
</g>
<defs>
<linearGradient id="paint0_linear_1413_1246" x1="154.594" y1="0.739115" x2="157.001" y2="413.381" gradientUnits="userSpaceOnUse">
<stop stop-color="#F2F2F2"/>
<stop offset="1" stop-color="#EFEFEF"/>
</linearGradient>
<clipPath id="clip0_1413_1246">
<rect width="300" height="300" fill="white"/>
</clipPath>
</defs>
</svg>
