<?xml version="1.0" standalone="no"?>
<!DOCTYPE svg PUBLIC "-//W3C//DTD SVG 20010904//EN"
 "http://www.w3.org/TR/2001/REC-SVG-20010904/DTD/svg10.dtd">
<svg version="1.0" xmlns="http://www.w3.org/2000/svg"
 width="512.000000pt" height="512.000000pt" viewBox="0 0 512.000000 512.000000"
 preserveAspectRatio="xMidYMid meet">
<metadata>
Created by potrace 1.14, written by Peter Selinger 2001-2017
</metadata>
<g transform="translate(0.000000,512.000000) scale(0.100000,-0.100000)"
fill="#000000" stroke="none">
<path d="M2395 5036 c-75 -21 -181 -78 -444 -237 -34 -22 -65 -39 -67 -39 -3
0 -17 -9 -32 -19 -15 -10 -99 -61 -187 -113 -653 -384 -678 -400 -750 -473
-70 -70 -119 -148 -149 -237 -46 -139 -40 -423 12 -553 71 -176 148 -249 442
-417 19 -11 142 -84 275 -163 267 -159 270 -160 387 -229 45 -27 91 -55 101
-64 16 -14 17 -12 17 24 0 21 2 269 3 549 2 506 2 510 24 555 53 106 135 163
252 174 65 6 132 -18 271 -99 69 -40 271 -157 450 -260 179 -103 398 -230 486
-281 89 -52 166 -94 172 -94 6 0 12 -4 14 -8 2 -5 81 -53 176 -108 95 -54 185
-106 200 -115 15 -9 47 -27 72 -41 25 -14 89 -51 143 -82 53 -31 103 -59 110
-61 9 -4 12 114 11 567 0 315 -4 589 -7 608 -4 19 -9 45 -11 57 -9 45 -55 146
-92 199 -76 110 -95 124 -594 419 -91 54 -177 105 -192 114 -15 9 -84 50 -153
91 -182 108 -177 105 -320 190 -240 143 -287 160 -435 165 -86 3 -119 -1 -185
-19z"/>
<path d="M3119 2593 c0 -21 0 -258 0 -527 0 -410 -3 -497 -16 -535 -50 -154
-207 -238 -358 -194 -27 8 -117 54 -200 102 -82 48 -298 173 -480 278 -181
105 -413 238 -514 297 -101 58 -188 106 -192 106 -5 0 -9 5 -9 10 0 6 -4 10
-9 10 -5 0 -107 57 -228 127 -120 69 -231 133 -248 142 -16 9 -32 18 -35 21
-14 14 -90 50 -91 43 -6 -45 -2 -1123 4 -1168 18 -131 92 -272 190 -362 49
-44 316 -213 338 -213 5 0 9 -4 9 -10 0 -5 4 -10 9 -10 5 0 134 -74 286 -165
152 -91 279 -165 281 -165 3 0 17 -9 32 -19 41 -29 400 -241 407 -241 4 0 21
-6 38 -14 93 -41 244 -58 338 -37 65 15 171 57 219 87 37 23 395 236 445 264
17 9 60 36 98 58 37 23 70 42 72 42 3 0 29 15 58 34 28 19 153 93 277 166 124
73 249 148 278 167 125 84 229 246 254 394 19 112 12 387 -10 424 -4 6 -7 16
-8 22 -1 7 -19 47 -40 89 -66 130 -133 189 -394 343 -124 73 -237 142 -252
152 -15 10 -30 19 -33 19 -3 0 -22 11 -43 24 -59 38 -462 276 -467 276 -3 0
-5 -17 -6 -37z"/>
</g>
</svg>
