<svg width="73" height="72" viewBox="0 0 73 72" fill="none" xmlns="http://www.w3.org/2000/svg">
<path fill-rule="evenodd" clip-rule="evenodd" d="M19.2918 10.0433L29.0572 15.6814V15.685L35.2448 19.2574L35.2446 19.2578C34.6367 18.9039 33.9299 18.7012 33.1758 18.7012C30.928 18.7012 29.1008 20.5022 29.0585 22.7399L29.0572 22.7391V37.0602L15.5455 29.0405C12.9432 27.4959 11.3479 24.694 11.3479 21.6678V19.6396C11.3479 16.6134 12.9432 13.8115 15.5455 12.2669L19.2918 10.0433Z" fill="#DEE4EB"/>
<path fill-rule="evenodd" clip-rule="evenodd" d="M32.5049 2.20086C35.2025 0.599714 38.5592 0.599712 41.2569 2.20086L58.2162 12.2669C60.8185 13.8115 62.4137 16.6135 62.4137 19.6396V34.9398L22.2324 11.741C21.3603 11.3445 20.3914 11.1236 19.3709 11.1236C18.1259 11.1236 16.9576 11.4524 15.9482 12.0279L19.2919 10.0433L32.5049 2.20086ZM15.7065 12.1724L15.7053 12.1721L15.7405 12.1512C15.7291 12.1582 15.7178 12.1653 15.7065 12.1724Z" fill="#EFF2F5"/>
<path fill-rule="evenodd" clip-rule="evenodd" d="M54.4697 61.9567L44.7043 56.3186V56.315L38.5167 52.7426L38.5169 52.7422C39.1248 53.0961 39.8316 53.2988 40.5856 53.2988C42.8335 53.2988 44.6607 51.4978 44.703 49.2601L44.7043 49.2609V34.9398L58.216 42.9595C60.8183 44.5041 62.4136 47.306 62.4136 50.3322V52.3604C62.4136 55.3866 60.8183 58.1885 58.216 59.7331L54.4697 61.9567Z" fill="#DEE4EB"/>
<path fill-rule="evenodd" clip-rule="evenodd" d="M41.2568 69.7991C38.5592 71.4003 35.2025 71.4003 32.5049 69.7991L15.5455 59.7331C12.9433 58.1885 11.348 55.3865 11.348 52.3604V37.0602L51.5294 60.259C52.4014 60.6555 53.3703 60.8764 54.3908 60.8764C55.6358 60.8764 56.8041 60.5476 57.8135 59.9721L54.4699 61.9567L41.2568 69.7991ZM58.0552 59.8276L58.0564 59.8279L58.0213 59.8488C58.0326 59.8418 58.0439 59.8347 58.0552 59.8276Z" fill="#EFF2F5"/>
</svg>
