<svg width="73" height="72" viewBox="0 0 73 72" fill="none" xmlns="http://www.w3.org/2000/svg">
<path fill-rule="evenodd" clip-rule="evenodd" d="M19.1729 10.0433L28.9383 15.6814V15.685L35.1259 19.2574L35.1257 19.2578C34.5178 18.9039 33.811 18.7012 33.0569 18.7012C30.8091 18.7012 28.9819 20.5022 28.9396 22.7399L28.9383 22.7391V37.0602L15.4266 29.0405C12.8243 27.4959 11.229 24.694 11.229 21.6678V19.6396C11.229 16.6134 12.8243 13.8115 15.4266 12.2669L19.1729 10.0433Z" fill="#1B1D21"/>
<path fill-rule="evenodd" clip-rule="evenodd" d="M32.386 2.20086C35.0836 0.599714 38.4403 0.599712 41.138 2.20086L58.0973 12.2669C60.6996 13.8115 62.2948 16.6135 62.2948 19.6396V34.9398L22.1135 11.741C21.2414 11.3445 20.2725 11.1236 19.2521 11.1236C18.007 11.1236 16.8387 11.4524 15.8293 12.0279L19.173 10.0433L32.386 2.20086ZM15.5876 12.1724L15.5864 12.1721L15.6216 12.1512C15.6102 12.1582 15.5989 12.1653 15.5876 12.1724Z" fill="#505862"/>
<path fill-rule="evenodd" clip-rule="evenodd" d="M54.3508 61.9567L44.5854 56.3186V56.315L38.3978 52.7426L38.398 52.7422C39.0059 53.0961 39.7127 53.2988 40.4668 53.2988C42.7146 53.2988 44.5418 51.4978 44.5841 49.2601L44.5854 49.2609V34.9398L58.0971 42.9595C60.6994 44.5041 62.2947 47.306 62.2947 50.3322V52.3604C62.2947 55.3866 60.6994 58.1885 58.0971 59.7331L54.3508 61.9567Z" fill="#1B1D21"/>
<path fill-rule="evenodd" clip-rule="evenodd" d="M41.1379 69.7991C38.4403 71.4003 35.0836 71.4003 32.386 69.7991L15.4266 59.7331C12.8244 58.1885 11.2291 55.3865 11.2291 52.3604V37.0602L51.4105 60.259C52.2825 60.6555 53.2514 60.8764 54.2719 60.8764C55.517 60.8764 56.6852 60.5476 57.6946 59.9721L54.351 61.9567L41.1379 69.7991ZM57.9363 59.8276L57.9375 59.8279L57.9024 59.8488C57.9137 59.8418 57.925 59.8347 57.9363 59.8276Z" fill="#505862"/>
</svg>
