<svg width="281" height="73" viewBox="0 0 281 73" fill="none" xmlns="http://www.w3.org/2000/svg">
<path fill-rule="evenodd" clip-rule="evenodd" d="M9.05168 10.007L19.0961 15.8062V15.8098L25.4605 19.4843L25.4603 19.4847C24.835 19.1207 24.1081 18.9123 23.3324 18.9123C21.0204 18.9123 19.141 20.7647 19.0975 23.0663L19.0961 23.0655V37.7958L5.19835 29.547C2.52173 27.9583 0.880859 25.0762 0.880859 21.9636V19.8774C0.880859 16.7649 2.52172 13.8828 5.19835 12.2941L9.05168 10.007Z" fill="#DEE4EB"/>
<path fill-rule="evenodd" clip-rule="evenodd" d="M22.6421 1.94049C25.4168 0.2936 28.8694 0.293597 31.6441 1.94049L49.088 12.2941C51.7646 13.8828 53.4055 16.7649 53.4055 19.8775V35.6148L12.0761 11.7532C11.1791 11.3454 10.1825 11.1182 9.13291 11.1182C7.85225 11.1182 6.6506 11.4564 5.61237 12.0483L9.05157 10.007L22.6421 1.94049ZM5.36374 12.1969L5.36255 12.1966L5.39869 12.1752C5.38702 12.1824 5.37537 12.1896 5.36374 12.1969Z" fill="#EFF2F5"/>
<path fill-rule="evenodd" clip-rule="evenodd" d="M45.2347 63.4036L35.1903 57.6045V57.6008L28.8259 53.9263L28.8261 53.9259C29.4514 54.2899 30.1783 54.4984 30.9539 54.4984C33.266 54.4984 35.1454 52.646 35.1889 50.3443L35.1903 50.3451V35.6148L49.088 43.8637C51.7646 45.4524 53.4055 48.3344 53.4055 51.447V53.5332C53.4055 56.6458 51.7647 59.5278 49.088 61.1165L45.2347 63.4036Z" fill="#DEE4EB"/>
<path fill-rule="evenodd" clip-rule="evenodd" d="M31.6443 71.4701C28.8696 73.117 25.4169 73.117 22.6422 71.4702L5.19836 61.1165C2.52174 59.5278 0.880874 56.6458 0.880874 53.5332V37.7959L42.2103 61.6574C43.1073 62.0653 44.1039 62.2925 45.1535 62.2925C46.4341 62.2925 47.6358 61.9543 48.674 61.3623L45.2348 63.4036L31.6443 71.4701ZM48.9226 61.2138L48.9238 61.214L48.8877 61.2355C48.8994 61.2283 48.911 61.221 48.9226 61.2138Z" fill="#EFF2F5"/>
<path d="M269.647 51.6918C267.644 51.6918 265.875 51.1859 264.342 50.174C262.808 49.1516 261.609 47.712 260.743 45.855C259.877 43.9877 259.444 41.7813 259.444 39.2358C259.444 36.7112 259.877 34.5205 260.743 32.6635C261.609 30.8066 262.813 29.3722 264.357 28.3603C265.901 27.3483 267.685 26.8424 269.709 26.8424C271.274 26.8424 272.51 27.1032 273.418 27.6248C274.336 28.136 275.035 28.7202 275.515 29.3774C276.005 30.0242 276.386 30.5562 276.657 30.9735H276.97V19.1434H280.663V51.1911H277.095V47.4981H276.657C276.386 47.9363 276 48.4892 275.499 49.1568C274.998 49.8141 274.284 50.4035 273.355 50.9251C272.427 51.4363 271.19 51.6918 269.647 51.6918ZM270.147 48.3744C271.629 48.3744 272.881 47.9884 273.903 47.2164C274.925 46.434 275.702 45.3543 276.234 43.9773C276.766 42.5898 277.033 40.9884 277.033 39.1732C277.033 37.3789 276.772 35.8088 276.25 34.4631C275.728 33.1069 274.957 32.0533 273.934 31.3021C272.912 30.5406 271.65 30.1598 270.147 30.1598C268.582 30.1598 267.278 30.5615 266.235 31.3647C265.202 32.1576 264.425 33.2373 263.904 34.6039C263.392 35.9601 263.137 37.4832 263.137 39.1732C263.137 40.8841 263.398 42.4385 263.919 43.8364C264.451 45.2239 265.234 46.3297 266.266 47.1538C267.31 47.9676 268.603 48.3744 270.147 48.3744Z" fill="#EFF2F5"/>
<path d="M245.001 51.6918C242.685 51.6918 240.687 51.1806 239.007 50.1583C237.338 49.1255 236.05 47.6859 235.142 45.8394C234.245 43.9824 233.796 41.823 233.796 39.361C233.796 36.899 234.245 34.7291 235.142 32.8513C236.05 30.9631 237.312 29.4921 238.929 28.4385C240.556 27.3744 242.455 26.8423 244.625 26.8423C245.877 26.8423 247.113 27.051 248.334 27.4683C249.554 27.8856 250.665 28.5637 251.667 29.5026C252.668 30.431 253.466 31.662 254.061 33.1955C254.656 34.7291 254.953 36.6173 254.953 38.8602V40.4251H236.425V37.2328H251.197C251.197 35.8766 250.926 34.6665 250.384 33.6024C249.852 32.5383 249.09 31.6985 248.099 31.083C247.118 30.4675 245.96 30.1598 244.625 30.1598C243.154 30.1598 241.881 30.5249 240.807 31.2552C239.743 31.975 238.924 32.9139 238.35 34.0718C237.776 35.2298 237.489 36.4713 237.489 37.7961V39.9243C237.489 41.7395 237.802 43.2783 238.428 44.5406C239.065 45.7924 239.946 46.747 241.073 47.4042C242.2 48.051 243.509 48.3744 245.001 48.3744C245.971 48.3744 246.847 48.2388 247.629 47.9675C248.422 47.6859 249.106 47.2686 249.679 46.7157C250.253 46.1523 250.697 45.4534 251.009 44.6188L254.577 45.6203C254.202 46.8304 253.571 47.8945 252.684 48.8125C251.797 49.7201 250.702 50.4295 249.398 50.9407C248.094 51.4414 246.628 51.6918 245.001 51.6918Z" fill="#EFF2F5"/>
<path d="M196.221 19.1434H200.853L211.744 45.7455H212.12L223.011 19.1434H227.643V51.1911H224.012V26.8424H223.699L213.684 51.1911H210.179L200.164 26.8424H199.851V51.1911H196.221V19.1434Z" fill="#EFF2F5"/>
<path d="M180.15 51.6918C177.835 51.6918 175.837 51.1806 174.157 50.1583C172.488 49.1255 171.2 47.6859 170.292 45.8394C169.395 43.9824 168.946 41.823 168.946 39.361C168.946 36.899 169.395 34.7291 170.292 32.8513C171.2 30.9631 172.462 29.4921 174.079 28.4385C175.706 27.3744 177.605 26.8423 179.775 26.8423C181.027 26.8423 182.263 27.051 183.484 27.4683C184.704 27.8856 185.815 28.5637 186.817 29.5026C187.818 30.431 188.616 31.662 189.211 33.1955C189.805 34.7291 190.103 36.6173 190.103 38.8602V40.4251H171.575V37.2328H186.347C186.347 35.8766 186.076 34.6665 185.533 33.6024C185.001 32.5383 184.24 31.6985 183.249 31.083C182.268 30.4675 181.11 30.1598 179.775 30.1598C178.304 30.1598 177.031 30.5249 175.957 31.2552C174.893 31.975 174.074 32.9139 173.5 34.0718C172.926 35.2298 172.639 36.4713 172.639 37.7961V39.9243C172.639 41.7395 172.952 43.2783 173.578 44.5406C174.215 45.7924 175.096 46.747 176.223 47.4042C177.349 48.051 178.659 48.3744 180.15 48.3744C181.121 48.3744 181.997 48.2388 182.779 47.9675C183.572 47.6859 184.256 47.2686 184.829 46.7157C185.403 46.1523 185.846 45.4534 186.159 44.6188L189.727 45.6203C189.352 46.8304 188.72 47.8945 187.834 48.8125C186.947 49.7201 185.852 50.4295 184.548 50.9407C183.244 51.4414 181.778 51.6918 180.15 51.6918Z" fill="#DEE4EB"/>
<path d="M152.922 60.7052C151.138 60.7052 149.605 60.4757 148.322 60.0167C147.039 59.5681 145.969 58.9735 145.114 58.2328C144.269 57.5025 143.596 56.7201 143.095 55.8856L146.037 53.82C146.371 54.2581 146.793 54.7589 147.305 55.3222C147.816 55.896 148.515 56.3915 149.401 56.8088C150.299 57.2365 151.472 57.4504 152.922 57.4504C154.863 57.4504 156.464 56.9809 157.726 56.042C158.989 55.1031 159.62 53.6322 159.62 51.6292V46.747H159.307C159.036 47.1851 158.65 47.7276 158.149 48.3744C157.659 49.0107 156.949 49.5793 156.021 50.08C155.103 50.5704 153.861 50.8155 152.296 50.8155C150.356 50.8155 148.614 50.3565 147.07 49.4385C145.536 48.5204 144.321 47.1851 143.424 45.4325C142.537 43.6799 142.094 41.5517 142.094 39.048C142.094 36.586 142.527 34.4422 143.393 32.6166C144.258 30.7805 145.463 29.3617 147.007 28.3602C148.551 27.3483 150.335 26.8423 152.359 26.8423C153.924 26.8423 155.165 27.1032 156.083 27.6248C157.012 28.1359 157.721 28.7201 158.211 29.3774C158.712 30.0242 159.098 30.5562 159.369 30.9735H159.745V27.1553H163.313V51.8796C163.313 53.9452 162.843 55.6247 161.904 56.9183C160.976 58.2224 159.724 59.1769 158.149 59.782C156.584 60.3975 154.842 60.7052 152.922 60.7052ZM152.797 47.4981C154.279 47.4981 155.53 47.159 156.553 46.4809C157.575 45.8028 158.352 44.8274 158.884 43.5547C159.416 42.282 159.682 40.7589 159.682 38.9854C159.682 37.2537 159.422 35.7254 158.9 34.4005C158.378 33.0756 157.606 32.0376 156.584 31.2865C155.562 30.5353 154.299 30.1598 152.797 30.1598C151.232 30.1598 149.928 30.5562 148.885 31.349C147.852 32.1419 147.075 33.206 146.554 34.5413C146.042 35.8766 145.787 37.358 145.787 38.9854C145.787 40.6546 146.048 42.1307 146.569 43.4139C147.101 44.6866 147.884 45.6881 148.916 46.4183C149.96 47.1382 151.253 47.4981 152.797 47.4981Z" fill="#DEE4EB"/>
<path d="M125.463 51.7544C123.94 51.7544 122.558 51.4675 121.317 50.8937C120.075 50.3095 119.089 49.4698 118.359 48.3744C117.629 47.2686 117.264 45.9332 117.264 44.3684C117.264 42.9914 117.535 41.8751 118.077 41.0197C118.62 40.1538 119.345 39.4757 120.252 38.9854C121.16 38.4951 122.162 38.13 123.257 37.89C124.363 37.6397 125.474 37.4414 126.59 37.2954C128.051 37.1076 129.235 36.9668 130.142 36.8729C131.06 36.7686 131.728 36.5964 132.145 36.3565C132.573 36.1166 132.787 35.6993 132.787 35.1046V34.9794C132.787 33.4355 132.364 32.2358 131.519 31.3803C130.685 30.5249 129.417 30.0972 127.717 30.0972C125.954 30.0972 124.571 30.4832 123.57 31.2552C122.568 32.0271 121.864 32.8513 121.457 33.7276L117.952 32.4757C118.578 31.0152 119.413 29.8781 120.456 29.0644C121.51 28.2403 122.657 27.6665 123.899 27.3431C125.15 27.0093 126.381 26.8423 127.592 26.8423C128.364 26.8423 129.25 26.9362 130.252 27.124C131.264 27.3014 132.239 27.6717 133.178 28.235C134.127 28.7984 134.915 29.6486 135.541 30.7857C136.167 31.9228 136.48 33.4459 136.48 35.355V51.1911H132.787V47.9362H132.599C132.349 48.4578 131.931 49.016 131.347 49.6106C130.763 50.2052 129.986 50.7112 129.016 51.1285C128.045 51.5458 126.861 51.7544 125.463 51.7544ZM126.027 48.437C127.487 48.437 128.718 48.1501 129.72 47.5763C130.732 47.0025 131.493 46.2619 132.004 45.3543C132.526 44.4467 132.787 43.4921 132.787 42.4906V39.1106C132.63 39.2984 132.286 39.4705 131.754 39.627C131.232 39.773 130.627 39.9034 129.939 40.0182C129.261 40.1225 128.598 40.2164 127.951 40.2999C127.315 40.3729 126.799 40.4355 126.402 40.4876C125.443 40.6128 124.545 40.8163 123.711 41.0979C122.887 41.3692 122.219 41.7812 121.708 42.3341C121.207 42.8766 120.957 43.6173 120.957 44.5562C120.957 45.8394 121.431 46.8096 122.381 47.4668C123.34 48.1136 124.556 48.437 126.027 48.437Z" fill="#DEE4EB"/>
<path d="M112.835 27.1554V30.285H100.379V27.1554H112.835ZM104.01 21.3968H107.703V44.3059C107.703 45.3491 107.854 46.1315 108.156 46.6531C108.469 47.1643 108.866 47.5086 109.346 47.6859C109.836 47.8528 110.352 47.9363 110.895 47.9363C111.302 47.9363 111.635 47.9154 111.896 47.8737C112.157 47.8215 112.366 47.7798 112.522 47.7485L113.273 51.0659C113.023 51.1598 112.673 51.2537 112.225 51.3476C111.776 51.4519 111.208 51.5041 110.519 51.5041C109.476 51.5041 108.454 51.2798 107.452 50.8312C106.461 50.3826 105.637 49.6993 104.98 48.7813C104.333 47.8632 104.01 46.7053 104.01 45.3074V21.3968Z" fill="#DEE4EB"/>
<path d="M92.3086 27.1554C92.1209 25.5697 91.3593 24.3387 90.024 23.4624C88.6887 22.5861 87.0508 22.1479 85.1104 22.1479C83.6917 22.1479 82.4502 22.3775 81.3861 22.8365C80.3325 23.2955 79.5083 23.9266 78.9137 24.7299C78.3295 25.5332 78.0374 26.446 78.0374 27.4684C78.0374 28.3238 78.2408 29.0593 78.6477 29.6748C79.065 30.2798 79.597 30.7858 80.2438 31.1926C80.8906 31.5891 81.5687 31.9177 82.2781 32.1785C82.9875 32.4289 83.6395 32.6323 84.2341 32.7888L87.489 33.6651C88.3235 33.8842 89.252 34.1867 90.2744 34.5727C91.3071 34.9587 92.293 35.4855 93.2319 36.1532C94.1812 36.8104 94.9636 37.6554 95.5791 38.6882C96.1946 39.721 96.5024 40.9885 96.5024 42.4907C96.5024 44.2224 96.0486 45.7873 95.141 47.1852C94.2438 48.5831 92.9294 49.6941 91.1976 50.5183C89.4763 51.3424 87.3846 51.7545 84.9226 51.7545C82.6276 51.7545 80.6402 51.3841 78.9607 50.6435C77.2915 49.9028 75.9771 48.87 75.0173 47.5451C74.068 46.2202 73.5307 44.6815 73.4055 42.9289H77.4115C77.5158 44.139 77.9227 45.1405 78.632 45.9333C79.3519 46.7157 80.2595 47.2999 81.3548 47.6859C82.4607 48.0615 83.6499 48.2493 84.9226 48.2493C86.404 48.2493 87.7341 48.0093 88.913 47.5294C90.0918 47.0391 91.0255 46.361 91.714 45.4952C92.4025 44.6189 92.7468 43.5965 92.7468 42.4281C92.7468 41.364 92.4495 40.4982 91.8548 39.8305C91.2602 39.1628 90.4778 38.6204 89.5076 38.2031C88.5374 37.7858 87.489 37.4207 86.3623 37.1077L82.4189 35.981C79.9152 35.2612 77.9331 34.2336 76.4726 32.8983C75.0121 31.563 74.2818 29.8156 74.2818 27.6561C74.2818 25.8618 74.7669 24.297 75.7371 22.9617C76.7177 21.6159 78.0322 20.5727 79.6805 19.832C81.3392 19.0809 83.1909 18.7053 85.2356 18.7053C87.3012 18.7053 89.1373 19.0757 90.7438 19.8164C92.3504 20.5466 93.6231 21.5481 94.562 22.8208C95.5113 24.0935 96.0121 25.5384 96.0642 27.1554H92.3086Z" fill="#DEE4EB"/>
</svg>
