<svg id="efXnR5WidOj1" xmlns="http://www.w3.org/2000/svg" xmlns:xlink="http://www.w3.org/1999/xlink" viewBox="0 0 512 512" shape-rendering="geometricPrecision" text-rendering="geometricPrecision">
<style><![CDATA[
#efXnR5WidOj2_tr {animation: efXnR5WidOj2_tr__tr 3000ms linear infinite normal forwards}@keyframes efXnR5WidOj2_tr__tr { 0% {transform: translate(256px,256px) rotate(0deg)} 26.666667% {transform: translate(256px,256px) rotate(0deg);animation-timing-function: cubic-bezier(0.47,0,0.745,0.715)} 43.333333% {transform: translate(256px,256px) rotate(90deg)} 60% {transform: translate(256px,256px) rotate(180deg)} 100% {transform: translate(256px,256px) rotate(180deg)}} #efXnR5WidOj2_ts {animation: efXnR5WidOj2_ts__ts 3000ms linear infinite normal forwards}@keyframes efXnR5WidOj2_ts__ts { 0% {transform: scale(0.5,0.5)} 26.666667% {transform: scale(0.5,0.5);animation-timing-function: cubic-bezier(0.47,0,0.745,0.715)} 43.333333% {transform: scale(0.64,0.64)} 60% {transform: scale(0.5,0.5)} 100% {transform: scale(0.5,0.5)}} #efXnR5WidOj3_to {animation: efXnR5WidOj3_to__to 3000ms linear infinite normal forwards}@keyframes efXnR5WidOj3_to__to { 0% {transform: translate(761.6769px,295.990443px)} 20% {transform: translate(353.032px,53.563449px);animation-timing-function: cubic-bezier(0.55,0.085,0.68,0.53)} 66.666667% {transform: translate(353.032px,53.563449px)} 86.666667% {transform: translate(-81.178846px,-204.009549px)} 100% {transform: translate(-81.178846px,-204.009549px)}} #efXnR5WidOj3 {animation: efXnR5WidOj3_c_o 3000ms linear infinite normal forwards}@keyframes efXnR5WidOj3_c_o { 0% {opacity: 0} 20% {opacity: 1;animation-timing-function: cubic-bezier(0.55,0.085,0.68,0.53)} 66.666667% {opacity: 1} 86.666667% {opacity: 0} 100% {opacity: 0}} #efXnR5WidOj6_to {animation: efXnR5WidOj6_to__to 3000ms linear infinite normal forwards}@keyframes efXnR5WidOj6_to__to { 0% {transform: translate(-247.796584px,215.935608px)} 20% {transform: translate(158.9682px,458.362605px);animation-timing-function: cubic-bezier(0.55,0.085,0.68,0.53)} 66.666667% {transform: translate(158.9682px,458.362605px)} 86.666667% {transform: translate(592.259718px,715.935359px)} 100% {transform: translate(592.259718px,715.935359px)}} #efXnR5WidOj6 {animation: efXnR5WidOj6_c_o 3000ms linear infinite normal forwards}@keyframes efXnR5WidOj6_c_o { 0% {opacity: 0} 20% {opacity: 1;animation-timing-function: cubic-bezier(0.55,0.085,0.68,0.53)} 66.666667% {opacity: 1} 86.666667% {opacity: 0} 100% {opacity: 0}}
]]></style>
<g id="efXnR5WidOj2_tr" transform="translate(256,256) rotate(0)"><g id="efXnR5WidOj2_ts" transform="scale(0.5,0.5)"><g transform="translate(-256.000137,-255.999885)"><g id="efXnR5WidOj3_to" transform="translate(761.6769,295.990443)"><g id="efXnR5WidOj3" transform="translate(-353.032,-53.563449)" opacity="0"><path d="M130.364,70.5953l69.753,40.2717v.026l44.197,25.517-.001.003c-4.342-2.528-9.39-3.976-14.777-3.976-16.056,0-29.107,12.864-29.409,28.848l-.01-.006v102.294l-96.512-57.284c-18.5876-11.032-29.9826-31.046-29.9826-52.662v-14.487c0-21.615,11.3949-41.6295,29.9826-52.662l26.759-15.8827Z" clip-rule="evenodd" fill="#073149" fill-rule="evenodd"/><path d="M224.743,14.5776c19.269-11.43678,43.245-11.4368,62.514,0L408.395,86.4779c18.588,11.0325,29.983,31.0471,29.983,52.6621v109.287L151.368,82.7217c-6.229-2.8325-13.15-4.4101-20.439-4.4101-8.893,0-17.238,2.3486-24.448,6.4594l23.883-14.1758l94.379-56.0176ZM104.754,85.8025l-.008-.0018.251-.149c-.081.05-.162.1003-.243.1508Z" clip-rule="evenodd" fill="#39e6c9" fill-rule="evenodd"/></g></g><g id="efXnR5WidOj6_to" transform="translate(-247.796584,215.935608)"><g id="efXnR5WidOj6" transform="translate(-158.9682,-458.362605)" opacity="0"><path d="M381.636,441.405l-69.753-40.272v-.026L267.686,375.59l.001-.003c4.342,2.528,9.39,3.976,14.777,3.976c16.056,0,29.107-12.864,29.409-28.848l.01.006v-102.294l96.512,57.284c18.588,11.032,29.983,31.047,29.983,52.662v14.487c0,21.615-11.395,41.63-29.983,52.662l-26.759,15.883Z" clip-rule="evenodd" fill="#073149" fill-rule="evenodd"/><path d="M287.257,497.422c-19.269,11.437-43.245,11.437-62.514,0l-121.138-71.9C85.0172,414.49,73.6223,394.475,73.6223,372.86v-109.287L360.632,429.278c6.229,2.833,13.15,4.41,20.439,4.41c8.893,0,17.238-2.348,24.448-6.459l-23.883,14.176-94.379,56.017Zm119.989-71.225l.008.002-.251.149c.081-.05.162-.1.243-.151Z" clip-rule="evenodd" fill="#39e6c9" fill-rule="evenodd"/></g></g></g></g></g></svg>
