<svg width="208" height="134" viewBox="0 0 208 134" fill="none" xmlns="http://www.w3.org/2000/svg">
<path fill-rule="evenodd" clip-rule="evenodd" d="M85.5371 9.3017L95.5816 15.1008V15.1045L101.946 18.779L101.946 18.7794C101.32 18.4154 100.594 18.2069 99.8179 18.2069C97.5059 18.2069 95.6265 20.0594 95.5829 22.361L95.5816 22.3602V37.0905L81.6838 28.8416C79.0072 27.253 77.3663 24.3709 77.3663 21.2583V19.1721C77.3663 16.0595 79.0072 13.1775 81.6838 11.5888L85.5371 9.3017Z" fill="#073149"/>
<path fill-rule="evenodd" clip-rule="evenodd" d="M99.1277 1.23517C101.902 -0.411722 105.355 -0.411725 108.13 1.23517L125.574 11.5888C128.25 13.1775 129.891 16.0596 129.891 19.1721V34.9095L88.5617 11.0479C87.6647 10.64 86.6681 10.4129 85.6185 10.4129C84.3379 10.4129 83.1362 10.7511 82.098 11.343L85.5372 9.30171L99.1277 1.23517ZM81.8493 11.4916L81.8481 11.4913L81.8843 11.4698C81.8726 11.477 81.861 11.4843 81.8493 11.4916Z" fill="#39E6C9"/>
<path fill-rule="evenodd" clip-rule="evenodd" d="M121.72 62.6983L111.676 56.8992V56.8955L105.311 53.221L105.312 53.2206C105.937 53.5846 106.664 53.7931 107.439 53.7931C109.751 53.7931 111.631 51.9406 111.674 49.639L111.676 49.6398V34.9095L125.574 43.1584C128.25 44.747 129.891 47.6291 129.891 50.7417V52.8279C129.891 55.9405 128.25 58.8225 125.574 60.4112L121.72 62.6983Z" fill="#073149"/>
<path fill-rule="evenodd" clip-rule="evenodd" d="M108.13 70.7648C105.355 72.4117 101.902 72.4117 99.1276 70.7648L81.6837 60.4112C79.0071 58.8225 77.3662 55.9404 77.3662 52.8279V37.0905L118.696 60.9521C119.593 61.36 120.589 61.5871 121.639 61.5871C122.919 61.5871 124.121 61.2489 125.159 60.657L121.72 62.6983L108.13 70.7648ZM125.408 60.5084L125.409 60.5087L125.373 60.5302C125.385 60.523 125.396 60.5157 125.408 60.5084Z" fill="#39E6C9"/>
<path d="M196.241 124.987C194.238 124.987 192.47 124.481 190.936 123.469C189.403 122.446 188.203 121.007 187.337 119.15C186.471 117.282 186.038 115.076 186.038 112.53C186.038 110.006 186.471 107.815 187.337 105.958C188.203 104.101 189.408 102.667 190.952 101.655C192.496 100.643 194.28 100.137 196.304 100.137C197.869 100.137 199.105 100.398 200.012 100.919C200.93 101.431 201.629 102.015 202.109 102.672C202.6 103.319 202.98 103.851 203.252 104.268H203.565V92.4381H207.258V124.486H203.69V120.793H203.252C202.98 121.231 202.594 121.784 202.094 122.452C201.593 123.109 200.878 123.698 199.95 124.22C199.021 124.731 197.785 124.987 196.241 124.987ZM196.742 121.669C198.223 121.669 199.475 121.283 200.497 120.511C201.52 119.729 202.297 118.649 202.829 117.272C203.361 115.884 203.627 114.283 203.627 112.468C203.627 110.674 203.366 109.104 202.845 107.758C202.323 106.402 201.551 105.348 200.529 104.597C199.506 103.835 198.244 103.454 196.742 103.454C195.177 103.454 193.873 103.856 192.83 104.659C191.797 105.452 191.02 106.532 190.498 107.899C189.987 109.255 189.731 110.778 189.731 112.468C189.731 114.179 189.992 115.733 190.514 117.131C191.046 118.519 191.828 119.624 192.861 120.449C193.904 121.262 195.198 121.669 196.742 121.669Z" fill="#39E6C9"/>
<path d="M171.595 124.986C169.279 124.986 167.281 124.475 165.602 123.453C163.933 122.42 162.644 120.98 161.737 119.134C160.84 117.277 160.391 115.118 160.391 112.656C160.391 110.194 160.84 108.024 161.737 106.146C162.644 104.258 163.907 102.787 165.524 101.733C167.151 100.669 169.05 100.137 171.22 100.137C172.471 100.137 173.708 100.346 174.928 100.763C176.149 101.18 177.26 101.858 178.261 102.797C179.263 103.726 180.061 104.957 180.656 106.49C181.25 108.024 181.547 109.912 181.547 112.155V113.72H163.02V110.527H177.792C177.792 109.171 177.521 107.961 176.978 106.897C176.446 105.833 175.685 104.993 174.694 104.378C173.713 103.762 172.555 103.454 171.22 103.454C169.749 103.454 168.476 103.82 167.401 104.55C166.337 105.27 165.518 106.208 164.945 107.366C164.371 108.524 164.084 109.766 164.084 111.091V113.219C164.084 115.034 164.397 116.573 165.023 117.835C165.659 119.087 166.541 120.042 167.667 120.699C168.794 121.346 170.103 121.669 171.595 121.669C172.565 121.669 173.442 121.533 174.224 121.262C175.017 120.98 175.7 120.563 176.274 120.01C176.848 119.447 177.291 118.748 177.604 117.913L181.172 118.915C180.796 120.125 180.165 121.189 179.278 122.107C178.392 123.015 177.296 123.724 175.992 124.235C174.688 124.736 173.223 124.986 171.595 124.986Z" fill="#39E6C9"/>
<path d="M122.815 92.4381H127.447L138.339 119.04H138.714L149.605 92.4381H154.237V124.486H150.607V100.137H150.294L140.279 124.486H136.774L126.759 100.137H126.446V124.486H122.815V92.4381Z" fill="#39E6C9"/>
<path d="M106.745 124.986C104.429 124.986 102.431 124.475 100.752 123.453C99.0824 122.42 97.794 120.98 96.8864 119.134C95.9892 117.277 95.5406 115.118 95.5406 112.656C95.5406 110.194 95.9892 108.024 96.8864 106.146C97.794 104.258 99.0563 102.787 100.673 101.733C102.301 100.669 104.199 100.137 106.369 100.137C107.621 100.137 108.857 100.346 110.078 100.763C111.298 101.18 112.409 101.858 113.411 102.797C114.412 103.726 115.211 104.957 115.805 106.49C116.4 108.024 116.697 109.912 116.697 112.155V113.72H98.1696V110.527H112.942C112.942 109.171 112.67 107.961 112.128 106.897C111.596 105.833 110.834 104.993 109.843 104.378C108.863 103.762 107.705 103.454 106.369 103.454C104.898 103.454 103.626 103.82 102.551 104.55C101.487 105.27 100.668 106.208 100.094 107.366C99.5205 108.524 99.2336 109.766 99.2336 111.091V113.219C99.2336 115.034 99.5466 116.573 100.173 117.835C100.809 119.087 101.69 120.042 102.817 120.699C103.944 121.346 105.253 121.669 106.745 121.669C107.715 121.669 108.591 121.533 109.374 121.262C110.167 120.98 110.85 120.563 111.424 120.01C111.997 119.447 112.441 118.748 112.754 117.913L116.322 118.915C115.946 120.125 115.315 121.189 114.428 122.107C113.541 123.015 112.446 123.724 111.142 124.235C109.838 124.736 108.372 124.986 106.745 124.986Z" fill="#073149"/>
<path d="M79.5167 134C77.7328 134 76.1993 133.77 74.9161 133.311C73.633 132.863 72.5637 132.268 71.7082 131.527C70.8632 130.797 70.1903 130.015 69.6896 129.18L72.6315 127.115C72.9653 127.553 73.3878 128.053 73.899 128.617C74.4102 129.191 75.1091 129.686 75.9959 130.103C76.893 130.531 78.0666 130.745 79.5167 130.745C81.4571 130.745 83.0584 130.276 84.3207 129.337C85.583 128.398 86.2142 126.927 86.2142 124.924V120.042H85.9012C85.63 120.48 85.244 121.022 84.7432 121.669C84.2529 122.305 83.5435 122.874 82.6151 123.375C81.697 123.865 80.4556 124.11 78.8908 124.11C76.9504 124.11 75.2082 123.651 73.6643 122.733C72.1307 121.815 70.9154 120.48 70.0182 118.727C69.1315 116.975 68.6881 114.846 68.6881 112.343C68.6881 109.881 69.121 107.737 69.9869 105.911C70.8528 104.075 72.0577 102.656 73.6017 101.655C75.1456 100.643 76.9295 100.137 78.9534 100.137C80.5182 100.137 81.7596 100.398 82.6777 100.919C83.6061 101.431 84.3155 102.015 84.8058 102.672C85.3066 103.319 85.6926 103.851 85.9638 104.268H86.3394V100.45H89.9072V125.174C89.9072 127.24 89.4377 128.919 88.4988 130.213C87.5704 131.517 86.3185 132.472 84.7432 133.077C83.1784 133.692 81.4362 134 79.5167 134ZM79.3915 120.793C80.8729 120.793 82.1248 120.454 83.1471 119.776C84.1695 119.097 84.9467 118.122 85.4787 116.849C86.0108 115.577 86.2768 114.053 86.2768 112.28C86.2768 110.548 86.016 109.02 85.4944 107.695C84.9728 106.37 84.2008 105.332 83.1784 104.581C82.1561 103.83 80.8938 103.454 79.3915 103.454C77.8267 103.454 76.5227 103.851 75.4795 104.644C74.4467 105.437 73.6695 106.501 73.1479 107.836C72.6367 109.171 72.3811 110.653 72.3811 112.28C72.3811 113.949 72.6419 115.425 73.1635 116.708C73.6956 117.981 74.478 118.983 75.5108 119.713C76.554 120.433 77.8476 120.793 79.3915 120.793Z" fill="#073149"/>
<path d="M52.0579 125.049C50.5348 125.049 49.1525 124.762 47.9111 124.188C46.6696 123.604 45.6838 122.764 44.9535 121.669C44.2233 120.563 43.8582 119.228 43.8582 117.663C43.8582 116.286 44.1294 115.17 44.6719 114.314C45.2143 113.448 45.9394 112.77 46.847 112.28C47.7546 111.79 48.7561 111.425 49.8514 111.185C50.9573 110.934 52.0683 110.736 53.1845 110.59C54.645 110.402 55.8291 110.261 56.7367 110.168C57.6547 110.063 58.3224 109.891 58.7397 109.651C59.1674 109.411 59.3812 108.994 59.3812 108.399V108.274C59.3812 106.73 58.9587 105.53 58.1137 104.675C57.2792 103.82 56.0117 103.392 54.3112 103.392C52.5482 103.392 51.1659 103.778 50.1644 104.55C49.1629 105.322 48.4587 106.146 48.0519 107.022L44.5467 105.77C45.1726 104.31 46.0072 103.173 47.0504 102.359C48.1041 101.535 49.2516 100.961 50.493 100.638C51.7449 100.304 52.9759 100.137 54.186 100.137C54.958 100.137 55.8447 100.231 56.8462 100.419C57.8581 100.596 58.8336 100.966 59.7725 101.53C60.7218 102.093 61.5094 102.943 62.1353 104.08C62.7613 105.217 63.0742 106.741 63.0742 108.65V124.486H59.3812V121.231H59.1935C58.9431 121.752 58.5258 122.311 57.9416 122.905C57.3574 123.5 56.5802 124.006 55.61 124.423C54.6398 124.84 53.4558 125.049 52.0579 125.049ZM52.6212 121.732C54.0817 121.732 55.3127 121.445 56.3142 120.871C57.3261 120.297 58.0877 119.556 58.5988 118.649C59.1204 117.741 59.3812 116.787 59.3812 115.785V112.405C59.2248 112.593 58.8805 112.765 58.3485 112.922C57.8268 113.068 57.2218 113.198 56.5333 113.313C55.8552 113.417 55.1927 113.511 54.5459 113.594C53.9096 113.668 53.3932 113.73 52.9968 113.782C52.037 113.907 51.1398 114.111 50.3052 114.393C49.4811 114.664 48.8134 115.076 48.3023 115.629C47.8015 116.171 47.5511 116.912 47.5511 117.851C47.5511 119.134 48.0258 120.104 48.9751 120.761C49.9349 121.408 51.1503 121.732 52.6212 121.732Z" fill="#073149"/>
<path d="M39.4297 100.45V103.58H26.9736V100.45H39.4297ZM30.604 94.6915H34.297V117.601C34.297 118.644 34.4483 119.426 34.7508 119.948C35.0638 120.459 35.4602 120.803 35.9401 120.981C36.4304 121.148 36.9468 121.231 37.4893 121.231C37.8961 121.231 38.23 121.21 38.4908 121.168C38.7516 121.116 38.9602 121.075 39.1167 121.043L39.8678 124.361C39.6174 124.455 39.268 124.548 38.8194 124.642C38.3708 124.747 37.8022 124.799 37.1137 124.799C36.0705 124.799 35.0481 124.575 34.0467 124.126C33.0556 123.677 32.2315 122.994 31.5742 122.076C30.9274 121.158 30.604 120 30.604 118.602V94.6915Z" fill="#073149"/>
<path d="M18.9031 100.45C18.7153 98.8644 17.9538 97.6334 16.6185 96.7571C15.2832 95.8808 13.6453 95.4426 11.7049 95.4426C10.2861 95.4426 9.04471 95.6721 7.98062 96.1311C6.92697 96.5902 6.10283 97.2213 5.50819 98.0246C4.92399 98.8279 4.63189 99.7407 4.63189 100.763C4.63189 101.618 4.83532 102.354 5.24217 102.969C5.65946 103.575 6.1915 104.08 6.8383 104.487C7.48509 104.884 8.16319 105.212 8.87257 105.473C9.58196 105.724 10.234 105.927 10.8286 106.083L14.0835 106.96C14.918 107.179 15.8465 107.481 16.8688 107.867C17.9016 108.253 18.8875 108.78 19.8264 109.448C20.7757 110.105 21.5581 110.95 22.1736 111.983C22.7891 113.016 23.0969 114.283 23.0969 115.785C23.0969 117.517 22.6431 119.082 21.7355 120.48C20.8383 121.878 19.5238 122.989 17.7921 123.813C16.0708 124.637 13.9791 125.049 11.5171 125.049C9.22205 125.049 7.23472 124.679 5.55514 123.938C3.88599 123.197 2.57153 122.165 1.61177 120.84C0.662444 119.515 0.125186 117.976 0 116.224H4.00596C4.11028 117.434 4.51714 118.435 5.22652 119.228C5.94635 120.01 6.85395 120.595 7.94933 120.981C9.05514 121.356 10.2444 121.544 11.5171 121.544C12.9985 121.544 14.3286 121.304 15.5074 120.824C16.6863 120.334 17.62 119.656 18.3085 118.79C18.997 117.914 19.3413 116.891 19.3413 115.723C19.3413 114.659 19.044 113.793 18.4493 113.125C17.8547 112.458 17.0723 111.915 16.1021 111.498C15.1319 111.08 14.0835 110.715 12.9568 110.402L9.01341 109.276C6.50968 108.556 4.52757 107.528 3.06706 106.193C1.60656 104.858 0.876304 103.11 0.876304 100.951C0.876304 99.1565 1.3614 97.5917 2.33159 96.2563C3.31222 94.9106 4.62667 93.8674 6.27496 93.1267C7.93368 92.3756 9.78539 92 11.8301 92C13.8957 92 15.7317 92.3703 17.3383 93.111C18.9449 93.8413 20.2176 94.8428 21.1565 96.1155C22.1058 97.3882 22.6065 98.8331 22.6587 100.45H18.9031Z" fill="#073149"/>
</svg>
