<svg width="512" height="512" viewBox="0 0 512 512" fill="none" xmlns="http://www.w3.org/2000/svg">
<path fill-rule="evenodd" clip-rule="evenodd" d="M130.364 70.5953L200.117 110.867V110.893L244.314 136.41L244.313 136.413C239.971 133.885 234.923 132.437 229.536 132.437C213.48 132.437 200.429 145.301 200.127 161.285L200.117 161.279V263.573L103.605 206.289C85.0174 195.257 73.6224 175.243 73.6224 153.627V139.14C73.6224 117.525 85.0173 97.5105 103.605 86.478L130.364 70.5953Z" fill="#073149"/>
<path fill-rule="evenodd" clip-rule="evenodd" d="M224.743 14.5776C244.012 3.14082 267.988 3.1408 287.257 14.5776L408.395 86.4779C426.983 97.5104 438.378 117.525 438.378 139.14V248.427L151.368 82.7217C145.139 79.8892 138.218 78.3116 130.929 78.3116C122.036 78.3116 113.691 80.6602 106.481 84.771L130.364 70.5952L224.743 14.5776ZM104.754 85.8025L104.746 85.8007L104.997 85.6517C104.916 85.7017 104.835 85.752 104.754 85.8025Z" fill="#39E6C9"/>
<path fill-rule="evenodd" clip-rule="evenodd" d="M381.636 441.405L311.883 401.133V401.107L267.686 375.59L267.687 375.587C272.029 378.115 277.077 379.563 282.464 379.563C298.52 379.563 311.571 366.699 311.873 350.715L311.883 350.721V248.427L408.395 305.711C426.983 316.743 438.378 336.758 438.378 358.373V372.86C438.378 394.475 426.983 414.49 408.395 425.522L381.636 441.405Z" fill="#073149"/>
<path fill-rule="evenodd" clip-rule="evenodd" d="M287.257 497.422C267.988 508.859 244.012 508.859 224.743 497.422L103.605 425.522C85.0172 414.49 73.6223 394.475 73.6223 372.86V263.573L360.632 429.278C366.861 432.111 373.782 433.688 381.071 433.688C389.964 433.688 398.309 431.34 405.519 427.229L381.636 441.405L287.257 497.422ZM407.246 426.197L407.254 426.199L407.003 426.348C407.084 426.298 407.165 426.248 407.246 426.197Z" fill="#39E6C9"/>
</svg>
