<svg width="209" height="134" viewBox="0 0 209 134" fill="none" xmlns="http://www.w3.org/2000/svg">
<path fill-rule="evenodd" clip-rule="evenodd" d="M86.4181 9.3017L96.4625 15.1008V15.1045L102.827 18.779L102.827 18.7794C102.201 18.4154 101.475 18.2069 100.699 18.2069C98.3869 18.2069 96.5075 20.0594 96.4639 22.361L96.4625 22.3602V37.0905L82.5648 28.8416C79.8882 27.253 78.2473 24.3709 78.2473 21.2583V19.1721C78.2473 16.0595 79.8882 13.1775 82.5648 11.5888L86.4181 9.3017Z" fill="#DEE4EB"/>
<path fill-rule="evenodd" clip-rule="evenodd" d="M100.009 1.23517C102.783 -0.411722 106.236 -0.411725 109.011 1.23517L126.454 11.5888C129.131 13.1775 130.772 16.0596 130.772 19.1721V34.9095L89.4425 11.0479C88.5455 10.64 87.549 10.4129 86.4994 10.4129C85.2187 10.4129 84.0171 10.7511 82.9788 11.343L86.418 9.30171L100.009 1.23517ZM82.7302 11.4916L82.729 11.4913L82.7651 11.4698C82.7535 11.477 82.7418 11.4843 82.7302 11.4916Z" fill="#EFF2F5"/>
<path fill-rule="evenodd" clip-rule="evenodd" d="M122.601 62.6983L112.557 56.8992V56.8955L106.192 53.221L106.193 53.2206C106.818 53.5846 107.545 53.7931 108.32 53.7931C110.632 53.7931 112.512 51.9406 112.555 49.639L112.557 49.6398V34.9095L126.454 43.1584C129.131 44.747 130.772 47.6291 130.772 50.7417V52.8279C130.772 55.9405 129.131 58.8225 126.454 60.4112L122.601 62.6983Z" fill="#DEE4EB"/>
<path fill-rule="evenodd" clip-rule="evenodd" d="M109.011 70.7648C106.236 72.4117 102.783 72.4117 100.009 70.7648L82.5648 60.4112C79.8882 58.8225 78.2473 55.9404 78.2473 52.8279V37.0905L119.577 60.9521C120.474 61.36 121.47 61.5871 122.52 61.5871C123.801 61.5871 125.002 61.2489 126.04 60.657L122.601 62.6983L109.011 70.7648ZM126.289 60.5084L126.29 60.5087L126.254 60.5302C126.266 60.523 126.277 60.5157 126.289 60.5084Z" fill="#EFF2F5"/>
<path d="M197.122 124.987C195.119 124.987 193.351 124.481 191.817 123.469C190.284 122.446 189.084 121.007 188.218 119.15C187.352 117.282 186.919 115.076 186.919 112.53C186.919 110.006 187.352 107.815 188.218 105.958C189.084 104.101 190.289 102.667 191.833 101.655C193.377 100.643 195.161 100.137 197.184 100.137C198.749 100.137 199.986 100.398 200.893 100.919C201.811 101.431 202.51 102.015 202.99 102.672C203.48 103.319 203.861 103.851 204.132 104.268H204.445V92.4381H208.138V124.486H204.57V120.793H204.132C203.861 121.231 203.475 121.784 202.974 122.452C202.474 123.109 201.759 123.698 200.831 124.22C199.902 124.731 198.666 124.987 197.122 124.987ZM197.623 121.669C199.104 121.669 200.356 121.283 201.378 120.511C202.401 119.729 203.178 118.649 203.71 117.272C204.242 115.884 204.508 114.283 204.508 112.468C204.508 110.674 204.247 109.104 203.725 107.758C203.204 106.402 202.432 105.348 201.409 104.597C200.387 103.835 199.125 103.454 197.623 103.454C196.058 103.454 194.754 103.856 193.711 104.659C192.678 105.452 191.901 106.532 191.379 107.899C190.868 109.255 190.612 110.778 190.612 112.468C190.612 114.179 190.873 115.733 191.395 117.131C191.927 118.519 192.709 119.624 193.742 120.449C194.785 121.262 196.079 121.669 197.623 121.669Z" fill="#EFF2F5"/>
<path d="M172.476 124.986C170.16 124.986 168.162 124.475 166.483 123.453C164.813 122.42 163.525 120.98 162.617 119.134C161.72 117.277 161.272 115.118 161.272 112.656C161.272 110.194 161.72 108.024 162.617 106.146C163.525 104.258 164.787 102.787 166.404 101.733C168.032 100.669 169.93 100.137 172.1 100.137C173.352 100.137 174.588 100.346 175.809 100.763C177.03 101.18 178.141 101.858 179.142 102.797C180.144 103.726 180.942 104.957 181.536 106.49C182.131 108.024 182.428 109.912 182.428 112.155V113.72H163.901V110.527H178.673C178.673 109.171 178.401 107.961 177.859 106.897C177.327 105.833 176.565 104.993 175.574 104.378C174.594 103.762 173.436 103.454 172.1 103.454C170.629 103.454 169.357 103.82 168.282 104.55C167.218 105.27 166.399 106.208 165.825 107.366C165.252 108.524 164.965 109.766 164.965 111.091V113.219C164.965 115.034 165.278 116.573 165.904 117.835C166.54 119.087 167.422 120.042 168.548 120.699C169.675 121.346 170.984 121.669 172.476 121.669C173.446 121.669 174.322 121.533 175.105 121.262C175.898 120.98 176.581 120.563 177.155 120.01C177.729 119.447 178.172 118.748 178.485 117.913L182.053 118.915C181.677 120.125 181.046 121.189 180.159 122.107C179.272 123.015 178.177 123.724 176.873 124.235C175.569 124.736 174.103 124.986 172.476 124.986Z" fill="#EFF2F5"/>
<path d="M123.696 92.4381H128.328L139.219 119.04H139.595L150.486 92.4381H155.118V124.486H151.488V100.137H151.175L141.16 124.486H137.655L127.64 100.137H127.327V124.486H123.696V92.4381Z" fill="#EFF2F5"/>
<path d="M107.626 124.986C105.31 124.986 103.312 124.475 101.633 123.453C99.9634 122.42 98.675 120.98 97.7674 119.134C96.8702 117.277 96.4216 115.118 96.4216 112.656C96.4216 110.194 96.8702 108.024 97.7674 106.146C98.675 104.258 99.9373 102.787 101.554 101.733C103.182 100.669 105.08 100.137 107.25 100.137C108.502 100.137 109.738 100.346 110.959 100.763C112.179 101.18 113.29 101.858 114.292 102.797C115.293 103.726 116.092 104.957 116.686 106.49C117.281 108.024 117.578 109.912 117.578 112.155V113.72H99.0505V110.527H113.823C113.823 109.171 113.551 107.961 113.009 106.897C112.477 105.833 111.715 104.993 110.724 104.378C109.744 103.762 108.586 103.454 107.25 103.454C105.779 103.454 104.507 103.82 103.432 104.55C102.368 105.27 101.549 106.208 100.975 107.366C100.402 108.524 100.115 109.766 100.115 111.091V113.219C100.115 115.034 100.428 116.573 101.054 117.835C101.69 119.087 102.571 120.042 103.698 120.699C104.825 121.346 106.134 121.669 107.626 121.669C108.596 121.669 109.472 121.533 110.255 121.262C111.048 120.98 111.731 120.563 112.305 120.01C112.878 119.447 113.322 118.748 113.635 117.913L117.203 118.915C116.827 120.125 116.196 121.189 115.309 122.107C114.422 123.015 113.327 123.724 112.023 124.235C110.719 124.736 109.253 124.986 107.626 124.986Z" fill="#DEE4EB"/>
<path d="M80.3977 134C78.6138 134 77.0803 133.77 75.7971 133.311C74.5139 132.863 73.4446 132.268 72.5892 131.527C71.7442 130.797 71.0713 130.015 70.5706 129.18L73.5125 127.115C73.8463 127.553 74.2688 128.053 74.78 128.617C75.2911 129.191 75.9901 129.686 76.8768 130.103C77.774 130.531 78.9476 130.745 80.3977 130.745C82.3381 130.745 83.9394 130.276 85.2017 129.337C86.464 128.398 87.0952 126.927 87.0952 124.924V120.042H86.7822C86.511 120.48 86.125 121.022 85.6242 121.669C85.1339 122.305 84.4245 122.874 83.4961 123.375C82.578 123.865 81.3366 124.11 79.7718 124.11C77.8314 124.11 76.0892 123.651 74.5452 122.733C73.0117 121.815 71.7964 120.48 70.8992 118.727C70.0125 116.975 69.5691 114.846 69.5691 112.343C69.5691 109.881 70.002 107.737 70.8679 105.911C71.7338 104.075 72.9387 102.656 74.4827 101.655C76.0266 100.643 77.8105 100.137 79.8344 100.137C81.3992 100.137 82.6406 100.398 83.5586 100.919C84.4871 101.431 85.1965 102.015 85.6868 102.672C86.1876 103.319 86.5735 103.851 86.8448 104.268H87.2203V100.45H90.7882V125.174C90.7882 127.24 90.3187 128.919 89.3798 130.213C88.4513 131.517 87.1995 132.472 85.6242 133.077C84.0594 133.692 82.3172 134 80.3977 134ZM80.2725 120.793C81.7539 120.793 83.0057 120.454 84.0281 119.776C85.0505 119.097 85.8277 118.122 86.3597 116.849C86.8917 115.577 87.1577 114.053 87.1577 112.28C87.1577 110.548 86.897 109.02 86.3753 107.695C85.8537 106.37 85.0817 105.332 84.0594 104.581C83.037 103.83 81.7747 103.454 80.2725 103.454C78.7077 103.454 77.4037 103.851 76.3604 104.644C75.3277 105.437 74.5505 106.501 74.0288 107.836C73.5177 109.171 73.2621 110.653 73.2621 112.28C73.2621 113.949 73.5229 115.425 74.0445 116.708C74.5765 117.981 75.359 118.983 76.3917 119.713C77.435 120.433 78.7285 120.793 80.2725 120.793Z" fill="#DEE4EB"/>
<path d="M52.9387 125.049C51.4156 125.049 50.0333 124.762 48.7919 124.188C47.5505 123.604 46.5646 122.764 45.8344 121.669C45.1041 120.563 44.739 119.228 44.739 117.663C44.739 116.286 45.0103 115.17 45.5527 114.314C46.0952 113.448 46.8202 112.77 47.7278 112.28C48.6354 111.79 49.6369 111.425 50.7323 111.185C51.8381 110.934 52.9491 110.736 54.0654 110.59C55.5259 110.402 56.7099 110.261 57.6175 110.168C58.5356 110.063 59.2032 109.891 59.6205 109.651C60.0482 109.411 60.2621 108.994 60.2621 108.399V108.274C60.2621 106.73 59.8396 105.53 58.9946 104.675C58.16 103.82 56.8925 103.392 55.1921 103.392C53.429 103.392 52.0468 103.778 51.0453 104.55C50.0438 105.322 49.3396 106.146 48.9327 107.022L45.4275 105.77C46.0535 104.31 46.888 103.173 47.9313 102.359C48.9849 101.535 50.1325 100.961 51.3739 100.638C52.6257 100.304 53.8567 100.137 55.0669 100.137C55.8389 100.137 56.7256 100.231 57.7271 100.419C58.739 100.596 59.7144 100.966 60.6533 101.53C61.6026 102.093 62.3903 102.943 63.0162 104.08C63.6421 105.217 63.9551 106.741 63.9551 108.65V124.486H60.2621V121.231H60.0743C59.824 121.752 59.4067 122.311 58.8225 122.905C58.2383 123.5 57.4611 124.006 56.4909 124.423C55.5207 124.84 54.3366 125.049 52.9387 125.049ZM53.502 121.732C54.9626 121.732 56.1936 121.445 57.195 120.871C58.207 120.297 58.9685 119.556 59.4797 118.649C60.0013 117.741 60.2621 116.787 60.2621 115.785V112.405C60.1056 112.593 59.7614 112.765 59.2293 112.922C58.7077 113.068 58.1026 113.198 57.4141 113.313C56.736 113.417 56.0736 113.511 55.4268 113.594C54.7904 113.668 54.274 113.73 53.8776 113.782C52.9178 113.907 52.0207 114.111 51.1861 114.393C50.362 114.664 49.6943 115.076 49.1831 115.629C48.6824 116.171 48.432 116.912 48.432 117.851C48.432 119.134 48.9067 120.104 49.856 120.761C50.8158 121.408 52.0311 121.732 53.502 121.732Z" fill="#DEE4EB"/>
<path d="M40.3105 100.45V103.58H27.8545V100.45H40.3105ZM31.4849 94.6915H35.1779V117.601C35.1779 118.644 35.3292 119.426 35.6317 119.948C35.9447 120.459 36.3411 120.803 36.821 120.981C37.3113 121.148 37.8277 121.231 38.3701 121.231C38.777 121.231 39.1108 121.21 39.3716 121.168C39.6324 121.116 39.8411 121.075 39.9976 121.043L40.7487 124.361C40.4983 124.455 40.1488 124.548 39.7002 124.642C39.2517 124.747 38.6831 124.799 37.9946 124.799C36.9514 124.799 35.929 124.575 34.9275 124.126C33.9365 123.677 33.1123 122.994 32.4551 122.076C31.8083 121.158 31.4849 120 31.4849 118.602V94.6915Z" fill="#DEE4EB"/>
<path d="M19.784 100.45C19.5962 98.8644 18.8347 97.6334 17.4993 96.7571C16.164 95.8808 14.5262 95.4426 12.5858 95.4426C11.167 95.4426 9.92557 95.6721 8.86148 96.1311C7.80783 96.5902 6.98369 97.2213 6.38905 98.0246C5.80485 98.8279 5.51275 99.7407 5.51275 100.763C5.51275 101.618 5.71618 102.354 6.12303 102.969C6.54032 103.575 7.07236 104.08 7.71916 104.487C8.36595 104.884 9.04405 105.212 9.75343 105.473C10.4628 105.724 11.1148 105.927 11.7095 106.083L14.9643 106.96C15.7989 107.179 16.7274 107.481 17.7497 107.867C18.7825 108.253 19.7683 108.78 20.7072 109.448C21.6566 110.105 22.439 110.95 23.0545 111.983C23.67 113.016 23.9777 114.283 23.9777 115.785C23.9777 117.517 23.5239 119.082 22.6163 120.48C21.7191 121.878 20.4047 122.989 18.673 123.813C16.9516 124.637 14.86 125.049 12.398 125.049C10.1029 125.049 8.11558 124.679 6.436 123.938C4.76685 123.197 3.45239 122.165 2.49263 120.84C1.5433 119.515 1.00605 117.976 0.880859 116.224H4.88682C4.99114 117.434 5.398 118.435 6.10738 119.228C6.82721 120.01 7.73481 120.595 8.83019 120.981C9.936 121.356 11.1253 121.544 12.398 121.544C13.8794 121.544 15.2095 121.304 16.3883 120.824C17.5671 120.334 18.5008 119.656 19.1893 118.79C19.8779 117.914 20.2221 116.891 20.2221 115.723C20.2221 114.659 19.9248 113.793 19.3302 113.125C18.7355 112.458 17.9531 111.915 16.9829 111.498C16.0127 111.08 14.9643 110.715 13.8376 110.402L9.89427 109.276C7.39054 108.556 5.40843 107.528 3.94792 106.193C2.48742 104.858 1.75716 103.11 1.75716 100.951C1.75716 99.1565 2.24226 97.5917 3.21245 96.2563C4.19308 94.9106 5.50753 93.8674 7.15582 93.1267C8.81454 92.3756 10.6662 92 12.711 92C14.7765 92 16.6126 92.3703 18.2192 93.111C19.8257 93.8413 21.0984 94.8428 22.0373 96.1155C22.9867 97.3882 23.4874 98.8331 23.5396 100.45H19.784Z" fill="#DEE4EB"/>
</svg>
