<svg width="24" height="24" viewBox="0 0 24 24" fill="none" xmlns="http://www.w3.org/2000/svg">
<path fill-rule="evenodd" clip-rule="evenodd" d="M6.47198 3.84216L9.54111 5.61412V5.61525L11.4858 6.73801L11.4857 6.73812C11.2947 6.62691 11.0725 6.56321 10.8355 6.56321C10.1291 6.56321 9.55483 7.12922 9.54153 7.8325L9.54111 7.83226V12.3332L5.29457 9.8127C4.47672 9.32727 3.97534 8.44664 3.97534 7.49557V6.85812C3.97534 5.90706 4.47672 5.02643 5.29457 4.541L6.47198 3.84216Z" fill="#D9D9D9"/>
<path fill-rule="evenodd" clip-rule="evenodd" d="M6.47198 3.84216L9.54111 5.61412V5.61525L11.4858 6.73801L11.4857 6.73812C11.2947 6.62691 11.0725 6.56321 10.8355 6.56321C10.1291 6.56321 9.55483 7.12922 9.54153 7.8325L9.54111 7.83226V12.3332L5.29457 9.8127C4.47672 9.32727 3.97534 8.44664 3.97534 7.49557V6.85812C3.97534 5.90706 4.47672 5.02643 5.29457 4.541L6.47198 3.84216Z" fill="#073149"/>
<path fill-rule="evenodd" clip-rule="evenodd" d="M10.6246 1.37741C11.4724 0.874196 12.5274 0.874195 13.3752 1.37741L18.7053 4.54103C19.5231 5.02646 20.0245 5.90709 20.0245 6.85815V11.6668L7.39608 4.37575C7.122 4.25113 6.8175 4.18171 6.49678 4.18171C6.10547 4.18171 5.7383 4.28505 5.42106 4.46592L6.47193 3.84219L10.6246 1.37741ZM5.34509 4.51131L5.34473 4.51123L5.35577 4.50467C5.3522 4.50688 5.34864 4.50909 5.34509 4.51131Z" fill="#39E6C9"/>
<path fill-rule="evenodd" clip-rule="evenodd" d="M17.5279 20.1578L14.4588 18.3859V18.3848L12.5141 17.262L12.5142 17.2619C12.7052 17.3731 12.9273 17.4368 13.1643 17.4368C13.8708 17.4368 14.445 16.8708 14.4584 16.1675L14.4588 16.1677V11.6668L18.7053 14.1873C19.5232 14.6727 20.0245 15.5534 20.0245 16.5044V17.1419C20.0245 18.0929 19.5232 18.9736 18.7053 19.459L17.5279 20.1578Z" fill="#073149"/>
<path fill-rule="evenodd" clip-rule="evenodd" d="M13.3753 22.6226C12.5275 23.1258 11.4725 23.1258 10.6247 22.6226L5.29459 19.459C4.47674 18.9735 3.97536 18.0929 3.97536 17.1418V12.3332L16.6038 19.6242C16.8779 19.7489 17.1824 19.8183 17.5031 19.8183C17.8944 19.8183 18.2616 19.715 18.5788 19.5341L17.528 20.1578L13.3753 22.6226ZM18.6548 19.4887L18.6552 19.4888L18.6441 19.4953C18.6477 19.4931 18.6512 19.4909 18.6548 19.4887Z" fill="#39E6C9"/>
</svg>
