<svg width="72" height="72" viewBox="0 0 72 72" fill="none" xmlns="http://www.w3.org/2000/svg">
<path fill-rule="evenodd" clip-rule="evenodd" d="M18.411 10.0433L28.1764 15.6814V15.685L34.364 19.2574L34.3638 19.2578C33.7559 18.9039 33.0492 18.7012 32.2951 18.7012C30.0473 18.7012 28.2201 20.5022 28.1778 22.7399L28.1764 22.7391V37.0602L14.6647 29.0405C12.0625 27.4959 10.4672 24.694 10.4672 21.6678V19.6396C10.4672 16.6134 12.0624 13.8115 14.6647 12.2669L18.411 10.0433Z" fill="#073149"/>
<path fill-rule="evenodd" clip-rule="evenodd" d="M31.624 2.20086C34.3217 0.599714 37.6784 0.599712 40.376 2.20086L57.3353 12.2669C59.9376 13.8115 61.5329 16.6135 61.5329 19.6396V34.9398L21.3515 11.741C20.4794 11.3445 19.5105 11.1236 18.4901 11.1236C17.245 11.1236 16.0767 11.4524 15.0673 12.0279L18.411 10.0433L31.624 2.20086ZM14.8256 12.1724L14.8245 12.1721L14.8596 12.1512C14.8483 12.1582 14.8369 12.1653 14.8256 12.1724Z" fill="#39E6C9"/>
<path fill-rule="evenodd" clip-rule="evenodd" d="M53.589 61.9567L43.8236 56.3186V56.315L37.636 52.7426L37.6362 52.7422C38.2441 53.0961 38.9508 53.2988 39.7049 53.2988C41.9527 53.2988 43.7799 51.4978 43.8222 49.2601L43.8236 49.2609V34.9398L57.3353 42.9595C59.9375 44.5041 61.5328 47.306 61.5328 50.3322V52.3604C61.5328 55.3866 59.9376 58.1885 57.3353 59.7331L53.589 61.9567Z" fill="#073149"/>
<path fill-rule="evenodd" clip-rule="evenodd" d="M40.376 69.7991C37.6783 71.4003 34.3216 71.4003 31.624 69.7991L14.6647 59.7331C12.0624 58.1885 10.4671 55.3865 10.4671 52.3604V37.0602L50.6485 60.259C51.5206 60.6555 52.4895 60.8764 53.5099 60.8764C54.755 60.8764 55.9233 60.5476 56.9327 59.9721L53.589 61.9567L40.376 69.7991ZM57.1744 59.8276L57.1755 59.8279L57.1404 59.8488C57.1517 59.8418 57.1631 59.8347 57.1744 59.8276Z" fill="#39E6C9"/>
</svg>
