<svg width="281" height="73" viewBox="0 0 281 73" fill="none" xmlns="http://www.w3.org/2000/svg">
<path fill-rule="evenodd" clip-rule="evenodd" d="M8.93278 10.007L18.9772 15.8062V15.8098L25.3416 19.4843L25.3414 19.4847C24.7161 19.1207 23.9892 18.9123 23.2135 18.9123C20.9015 18.9123 19.0221 20.7647 18.9786 23.0663L18.9772 23.0655V37.7958L5.07945 29.547C2.40283 27.9583 0.761963 25.0762 0.761963 21.9636V19.8774C0.761963 16.7649 2.40282 13.8828 5.07945 12.2941L8.93278 10.007Z" fill="#1B1D21"/>
<path fill-rule="evenodd" clip-rule="evenodd" d="M22.5232 1.94049C25.2979 0.2936 28.7505 0.293597 31.5252 1.94049L48.9691 12.2941C51.6457 13.8828 53.2866 16.7649 53.2866 19.8775V35.6148L11.9572 11.7532C11.0602 11.3454 10.0636 11.1182 9.01401 11.1182C7.73336 11.1182 6.5317 11.4564 5.49347 12.0483L8.93267 10.007L22.5232 1.94049ZM5.24485 12.1969L5.24365 12.1966L5.27979 12.1752C5.26812 12.1824 5.25647 12.1896 5.24485 12.1969Z" fill="#505862"/>
<path fill-rule="evenodd" clip-rule="evenodd" d="M45.1158 63.4036L35.0714 57.6045V57.6008L28.707 53.9263L28.7072 53.9259C29.3325 54.2899 30.0594 54.4984 30.835 54.4984C33.1471 54.4984 35.0265 52.646 35.07 50.3443L35.0714 50.3451V35.6148L48.9691 43.8637C51.6457 45.4524 53.2866 48.3344 53.2866 51.447V53.5332C53.2866 56.6458 51.6458 59.5278 48.9691 61.1165L45.1158 63.4036Z" fill="#1B1D21"/>
<path fill-rule="evenodd" clip-rule="evenodd" d="M31.5254 71.4701C28.7507 73.117 25.298 73.117 22.5234 71.4702L5.07946 61.1165C2.40284 59.5278 0.761978 56.6458 0.761978 53.5332V37.7959L42.0914 61.6574C42.9884 62.0653 43.985 62.2925 45.0346 62.2925C46.3152 62.2925 47.5169 61.9543 48.5551 61.3623L45.1159 63.4036L31.5254 71.4701ZM48.8037 61.2138L48.8049 61.214L48.7688 61.2355C48.7805 61.2283 48.7921 61.221 48.8037 61.2138Z" fill="#505862"/>
<path d="M269.528 51.6918C267.525 51.6918 265.756 51.1859 264.223 50.174C262.689 49.1516 261.49 47.712 260.624 45.855C259.758 43.9877 259.325 41.7813 259.325 39.2358C259.325 36.7112 259.758 34.5205 260.624 32.6635C261.49 30.8066 262.695 29.3722 264.239 28.3603C265.782 27.3483 267.566 26.8424 269.59 26.8424C271.155 26.8424 272.391 27.1032 273.299 27.6248C274.217 28.136 274.916 28.7202 275.396 29.3774C275.886 30.0242 276.267 30.5562 276.538 30.9735H276.851V19.1434H280.544V51.1911H276.976V47.4981H276.538C276.267 47.9363 275.881 48.4892 275.38 49.1568C274.879 49.8141 274.165 50.4035 273.236 50.9251C272.308 51.4363 271.072 51.6918 269.528 51.6918ZM270.028 48.3744C271.51 48.3744 272.762 47.9884 273.784 47.2164C274.806 46.434 275.584 45.3543 276.116 43.9773C276.648 42.5898 276.914 40.9884 276.914 39.1732C276.914 37.3789 276.653 35.8088 276.131 34.4631C275.61 33.1069 274.838 32.0533 273.815 31.3021C272.793 30.5406 271.531 30.1598 270.028 30.1598C268.464 30.1598 267.16 30.5615 266.116 31.3647C265.084 32.1576 264.306 33.2373 263.785 34.6039C263.274 35.9601 263.018 37.4832 263.018 39.1732C263.018 40.8841 263.279 42.4385 263.8 43.8364C264.332 45.2239 265.115 46.3297 266.148 47.1538C267.191 47.9676 268.484 48.3744 270.028 48.3744Z" fill="#505862"/>
<path d="M244.882 51.6918C242.566 51.6918 240.568 51.1806 238.888 50.1583C237.219 49.1255 235.931 47.6859 235.023 45.8394C234.126 43.9824 233.677 41.823 233.677 39.361C233.677 36.899 234.126 34.7291 235.023 32.8513C235.931 30.9631 237.193 29.4921 238.81 28.4385C240.438 27.3744 242.336 26.8423 244.506 26.8423C245.758 26.8423 246.994 27.051 248.215 27.4683C249.435 27.8856 250.546 28.5637 251.548 29.5026C252.549 30.431 253.347 31.662 253.942 33.1955C254.537 34.7291 254.834 36.6173 254.834 38.8602V40.4251H236.306V37.2328H251.078C251.078 35.8766 250.807 34.6665 250.265 33.6024C249.733 32.5383 248.971 31.6985 247.98 31.083C246.999 30.4675 245.841 30.1598 244.506 30.1598C243.035 30.1598 241.762 30.5249 240.688 31.2552C239.624 31.975 238.805 32.9139 238.231 34.0718C237.657 35.2298 237.37 36.4713 237.37 37.7961V39.9243C237.37 41.7395 237.683 43.2783 238.309 44.5406C238.946 45.7924 239.827 46.747 240.954 47.4042C242.081 48.051 243.39 48.3744 244.882 48.3744C245.852 48.3744 246.728 48.2388 247.511 47.9675C248.303 47.6859 248.987 47.2686 249.56 46.7157C250.134 46.1523 250.578 45.4534 250.891 44.6188L254.458 45.6203C254.083 46.8304 253.452 47.8945 252.565 48.8125C251.678 49.7201 250.583 50.4295 249.279 50.9407C247.975 51.4414 246.509 51.6918 244.882 51.6918Z" fill="#505862"/>
<path d="M196.102 19.1434H200.734L211.625 45.7455H212.001L222.892 19.1434H227.524V51.1911H223.893V26.8424H223.58L213.566 51.1911H210.06L200.045 26.8424H199.732V51.1911H196.102V19.1434Z" fill="#505862"/>
<path d="M180.032 51.6918C177.716 51.6918 175.718 51.1806 174.038 50.1583C172.369 49.1255 171.081 47.6859 170.173 45.8394C169.276 43.9824 168.827 41.823 168.827 39.361C168.827 36.899 169.276 34.7291 170.173 32.8513C171.081 30.9631 172.343 29.4921 173.96 28.4385C175.587 27.3744 177.486 26.8423 179.656 26.8423C180.908 26.8423 182.144 27.051 183.365 27.4683C184.585 27.8856 185.696 28.5637 186.698 29.5026C187.699 30.431 188.497 31.662 189.092 33.1955C189.687 34.7291 189.984 36.6173 189.984 38.8602V40.4251H171.456V37.2328H186.228C186.228 35.8766 185.957 34.6665 185.415 33.6024C184.883 32.5383 184.121 31.6985 183.13 31.083C182.149 30.4675 180.991 30.1598 179.656 30.1598C178.185 30.1598 176.912 30.5249 175.838 31.2552C174.774 31.975 173.955 32.9139 173.381 34.0718C172.807 35.2298 172.52 36.4713 172.52 37.7961V39.9243C172.52 41.7395 172.833 43.2783 173.459 44.5406C174.096 45.7924 174.977 46.747 176.104 47.4042C177.231 48.051 178.54 48.3744 180.032 48.3744C181.002 48.3744 181.878 48.2388 182.66 47.9675C183.453 47.6859 184.137 47.2686 184.71 46.7157C185.284 46.1523 185.728 45.4534 186.04 44.6188L189.608 45.6203C189.233 46.8304 188.602 47.8945 187.715 48.8125C186.828 49.7201 185.733 50.4295 184.429 50.9407C183.125 51.4414 181.659 51.6918 180.032 51.6918Z" fill="#1B1D21"/>
<path d="M152.803 60.7052C151.02 60.7052 149.486 60.4757 148.203 60.0167C146.92 59.5681 145.85 58.9735 144.995 58.2328C144.15 57.5025 143.477 56.7201 142.976 55.8856L145.918 53.82C146.252 54.2581 146.675 54.7589 147.186 55.3222C147.697 55.896 148.396 56.3915 149.283 56.8088C150.18 57.2365 151.353 57.4504 152.803 57.4504C154.744 57.4504 156.345 56.9809 157.607 56.042C158.87 55.1031 159.501 53.6322 159.501 51.6292V46.747H159.188C158.917 47.1851 158.531 47.7276 158.03 48.3744C157.54 49.0107 156.83 49.5793 155.902 50.08C154.984 50.5704 153.742 50.8155 152.178 50.8155C150.237 50.8155 148.495 50.3565 146.951 49.4385C145.417 48.5204 144.202 47.1851 143.305 45.4325C142.418 43.6799 141.975 41.5517 141.975 39.048C141.975 36.586 142.408 34.4422 143.274 32.6166C144.14 30.7805 145.344 29.3617 146.888 28.3602C148.432 27.3483 150.216 26.8423 152.24 26.8423C153.805 26.8423 155.046 27.1032 155.964 27.6248C156.893 28.1359 157.602 28.7201 158.093 29.3774C158.593 30.0242 158.979 30.5562 159.251 30.9735H159.626V27.1553H163.194V51.8796C163.194 53.9452 162.724 55.6247 161.786 56.9183C160.857 58.2224 159.605 59.1769 158.03 59.782C156.465 60.3975 154.723 60.7052 152.803 60.7052ZM152.678 47.4981C154.16 47.4981 155.412 47.159 156.434 46.4809C157.456 45.8028 158.233 44.8274 158.765 43.5547C159.297 42.282 159.564 40.7589 159.564 38.9854C159.564 37.2537 159.303 35.7254 158.781 34.4005C158.259 33.0756 157.488 32.0376 156.465 31.2865C155.443 30.5353 154.181 30.1598 152.678 30.1598C151.113 30.1598 149.809 30.5562 148.766 31.349C147.733 32.1419 146.956 33.206 146.435 34.5413C145.923 35.8766 145.668 37.358 145.668 38.9854C145.668 40.6546 145.929 42.1307 146.45 43.4139C146.982 44.6866 147.765 45.6881 148.798 46.4183C149.841 47.1382 151.134 47.4981 152.678 47.4981Z" fill="#1B1D21"/>
<path d="M125.344 51.7544C123.821 51.7544 122.439 51.4675 121.198 50.8937C119.956 50.3095 118.97 49.4698 118.24 48.3744C117.51 47.2686 117.145 45.9332 117.145 44.3684C117.145 42.9914 117.416 41.8751 117.958 41.0197C118.501 40.1538 119.226 39.4757 120.134 38.9854C121.041 38.4951 122.043 38.13 123.138 37.89C124.244 37.6397 125.355 37.4414 126.471 37.2954C127.932 37.1076 129.116 36.9668 130.023 36.8729C130.941 36.7686 131.609 36.5964 132.026 36.3565C132.454 36.1166 132.668 35.6993 132.668 35.1046V34.9794C132.668 33.4355 132.245 32.2358 131.4 31.3803C130.566 30.5249 129.298 30.0972 127.598 30.0972C125.835 30.0972 124.453 30.4832 123.451 31.2552C122.45 32.0271 121.745 32.8513 121.339 33.7276L117.833 32.4757C118.459 31.0152 119.294 29.8781 120.337 29.0644C121.391 28.2403 122.538 27.6665 123.78 27.3431C125.032 27.0093 126.263 26.8423 127.473 26.8423C128.245 26.8423 129.131 26.9362 130.133 27.124C131.145 27.3014 132.12 27.6717 133.059 28.235C134.008 28.7984 134.796 29.6486 135.422 30.7857C136.048 31.9228 136.361 33.4459 136.361 35.355V51.1911H132.668V47.9362H132.48C132.23 48.4578 131.812 49.016 131.228 49.6106C130.644 50.2052 129.867 50.7112 128.897 51.1285C127.926 51.5458 126.742 51.7544 125.344 51.7544ZM125.908 48.437C127.368 48.437 128.599 48.1501 129.601 47.5763C130.613 47.0025 131.374 46.2619 131.885 45.3543C132.407 44.4467 132.668 43.4921 132.668 42.4906V39.1106C132.511 39.2984 132.167 39.4705 131.635 39.627C131.113 39.773 130.508 39.9034 129.82 40.0182C129.142 40.1225 128.479 40.2164 127.833 40.2999C127.196 40.3729 126.68 40.4355 126.283 40.4876C125.324 40.6128 124.426 40.8163 123.592 41.0979C122.768 41.3692 122.1 41.7812 121.589 42.3341C121.088 42.8766 120.838 43.6173 120.838 44.5562C120.838 45.8394 121.312 46.8096 122.262 47.4668C123.222 48.1136 124.437 48.437 125.908 48.437Z" fill="#1B1D21"/>
<path d="M112.716 27.1554V30.285H100.26V27.1554H112.716ZM103.891 21.3968H107.584V44.3059C107.584 45.3491 107.735 46.1315 108.037 46.6531C108.35 47.1643 108.747 47.5086 109.227 47.6859C109.717 47.8528 110.233 47.9363 110.776 47.9363C111.183 47.9363 111.517 47.9154 111.777 47.8737C112.038 47.8215 112.247 47.7798 112.403 47.7485L113.154 51.0659C112.904 51.1598 112.555 51.2537 112.106 51.3476C111.657 51.4519 111.089 51.5041 110.4 51.5041C109.357 51.5041 108.335 51.2798 107.333 50.8312C106.342 50.3826 105.518 49.6993 104.861 48.7813C104.214 47.8632 103.891 46.7053 103.891 45.3074V21.3968Z" fill="#1B1D21"/>
<path d="M92.1897 27.1554C92.002 25.5697 91.2404 24.3387 89.9051 23.4624C88.5698 22.5861 86.9319 22.1479 84.9915 22.1479C83.5728 22.1479 82.3313 22.3775 81.2672 22.8365C80.2136 23.2955 79.3894 23.9266 78.7948 24.7299C78.2106 25.5332 77.9185 26.446 77.9185 27.4684C77.9185 28.3238 78.1219 29.0593 78.5288 29.6748C78.9461 30.2798 79.4781 30.7858 80.1249 31.1926C80.7717 31.5891 81.4498 31.9177 82.1592 32.1785C82.8686 32.4289 83.5206 32.6323 84.1152 32.7888L87.3701 33.6651C88.2046 33.8842 89.1331 34.1867 90.1555 34.5727C91.1883 34.9587 92.1741 35.4855 93.113 36.1532C94.0623 36.8104 94.8447 37.6554 95.4602 38.6882C96.0757 39.721 96.3835 40.9885 96.3835 42.4907C96.3835 44.2224 95.9297 45.7873 95.0221 47.1852C94.1249 48.5831 92.8105 49.6941 91.0787 50.5183C89.3574 51.3424 87.2658 51.7545 84.8038 51.7545C82.5087 51.7545 80.5213 51.3841 78.8418 50.6435C77.1726 49.9028 75.8582 48.87 74.8984 47.5451C73.9491 46.2202 73.4118 44.6815 73.2866 42.9289H77.2926C77.3969 44.139 77.8038 45.1405 78.5131 45.9333C79.233 46.7157 80.1406 47.2999 81.2359 47.6859C82.3418 48.0615 83.531 48.2493 84.8038 48.2493C86.2851 48.2493 87.6152 48.0093 88.7941 47.5294C89.9729 47.0391 90.9066 46.361 91.5951 45.4952C92.2836 44.6189 92.6279 43.5965 92.6279 42.4281C92.6279 41.364 92.3306 40.4982 91.7359 39.8305C91.1413 39.1628 90.3589 38.6204 89.3887 38.2031C88.4185 37.7858 87.3701 37.4207 86.2434 37.1077L82.3 35.981C79.7963 35.2612 77.8142 34.2336 76.3537 32.8983C74.8932 31.563 74.1629 29.8156 74.1629 27.6561C74.1629 25.8618 74.648 24.297 75.6182 22.9617C76.5988 21.6159 77.9133 20.5727 79.5616 19.832C81.2203 19.0809 83.072 18.7053 85.1167 18.7053C87.1823 18.7053 89.0184 19.0757 90.6249 19.8164C92.2315 20.5466 93.5042 21.5481 94.4431 22.8208C95.3924 24.0935 95.8932 25.5384 95.9453 27.1554H92.1897Z" fill="#1B1D21"/>
</svg>
