<svg width="209" height="134" viewBox="0 0 209 134" fill="none" xmlns="http://www.w3.org/2000/svg">
<path fill-rule="evenodd" clip-rule="evenodd" d="M86.2992 9.3017L96.3436 15.1008V15.1045L102.708 18.779L102.708 18.7794C102.083 18.4154 101.356 18.2069 100.58 18.2069C98.268 18.2069 96.3886 20.0594 96.345 22.361L96.3436 22.3602V37.0905L82.4459 28.8416C79.7693 27.253 78.1284 24.3709 78.1284 21.2583V19.1721C78.1284 16.0595 79.7693 13.1775 82.4459 11.5888L86.2992 9.3017Z" fill="#1B1D21"/>
<path fill-rule="evenodd" clip-rule="evenodd" d="M99.8897 1.23517C102.664 -0.411722 106.117 -0.411725 108.892 1.23517L126.336 11.5888C129.012 13.1775 130.653 16.0596 130.653 19.1721V34.9095L89.3236 11.0479C88.4266 10.64 87.4301 10.4129 86.3805 10.4129C85.0998 10.4129 83.8982 10.7511 82.8599 11.343L86.2991 9.30171L99.8897 1.23517ZM82.6113 11.4916L82.6101 11.4913L82.6462 11.4698C82.6346 11.477 82.6229 11.4843 82.6113 11.4916Z" fill="#505862"/>
<path fill-rule="evenodd" clip-rule="evenodd" d="M122.482 62.6983L112.438 56.8992V56.8955L106.073 53.221L106.074 53.2206C106.699 53.5846 107.426 53.7931 108.201 53.7931C110.514 53.7931 112.393 51.9406 112.436 49.639L112.438 49.6398V34.9095L126.336 43.1584C129.012 44.747 130.653 47.6291 130.653 50.7417V52.8279C130.653 55.9405 129.012 58.8225 126.336 60.4112L122.482 62.6983Z" fill="#1B1D21"/>
<path fill-rule="evenodd" clip-rule="evenodd" d="M108.892 70.7648C106.117 72.4117 102.665 72.4117 99.8898 70.7648L82.4459 60.4112C79.7693 58.8225 78.1284 55.9404 78.1284 52.8279V37.0905L119.458 60.9521C120.355 61.36 121.351 61.5871 122.401 61.5871C123.682 61.5871 124.883 61.2489 125.922 60.657L122.482 62.6983L108.892 70.7648ZM126.17 60.5084L126.171 60.5087L126.135 60.5302C126.147 60.523 126.159 60.5157 126.17 60.5084Z" fill="#505862"/>
<path d="M197.003 124.987C195 124.987 193.232 124.481 191.698 123.469C190.165 122.446 188.965 121.007 188.099 119.15C187.233 117.282 186.8 115.076 186.8 112.53C186.8 110.006 187.233 107.815 188.099 105.958C188.965 104.101 190.17 102.667 191.714 101.655C193.258 100.643 195.042 100.137 197.066 100.137C198.63 100.137 199.867 100.398 200.774 100.919C201.692 101.431 202.391 102.015 202.871 102.672C203.361 103.319 203.742 103.851 204.013 104.268H204.326V92.4381H208.019V124.486H204.452V120.793H204.013C203.742 121.231 203.356 121.784 202.855 122.452C202.355 123.109 201.64 123.698 200.712 124.22C199.783 124.731 198.547 124.987 197.003 124.987ZM197.504 121.669C198.985 121.669 200.237 121.283 201.259 120.511C202.282 119.729 203.059 118.649 203.591 117.272C204.123 115.884 204.389 114.283 204.389 112.468C204.389 110.674 204.128 109.104 203.607 107.758C203.085 106.402 202.313 105.348 201.291 104.597C200.268 103.835 199.006 103.454 197.504 103.454C195.939 103.454 194.635 103.856 193.592 104.659C192.559 105.452 191.782 106.532 191.26 107.899C190.749 109.255 190.493 110.778 190.493 112.468C190.493 114.179 190.754 115.733 191.276 117.131C191.808 118.519 192.59 119.624 193.623 120.449C194.666 121.262 195.96 121.669 197.504 121.669Z" fill="#505862"/>
<path d="M172.357 124.986C170.041 124.986 168.043 124.475 166.364 123.453C164.695 122.42 163.406 120.98 162.499 119.134C161.601 117.277 161.153 115.118 161.153 112.656C161.153 110.194 161.601 108.024 162.499 106.146C163.406 104.258 164.668 102.787 166.285 101.733C167.913 100.669 169.812 100.137 171.981 100.137C173.233 100.137 174.47 100.346 175.69 100.763C176.911 101.18 178.022 101.858 179.023 102.797C180.025 103.726 180.823 104.957 181.417 106.49C182.012 108.024 182.309 109.912 182.309 112.155V113.72H163.782V110.527H178.554C178.554 109.171 178.282 107.961 177.74 106.897C177.208 105.833 176.446 104.993 175.455 104.378C174.475 103.762 173.317 103.454 171.981 103.454C170.511 103.454 169.238 103.82 168.163 104.55C167.099 105.27 166.28 106.208 165.706 107.366C165.133 108.524 164.846 109.766 164.846 111.091V113.219C164.846 115.034 165.159 116.573 165.785 117.835C166.421 119.087 167.303 120.042 168.429 120.699C169.556 121.346 170.865 121.669 172.357 121.669C173.327 121.669 174.204 121.533 174.986 121.262C175.779 120.98 176.462 120.563 177.036 120.01C177.61 119.447 178.053 118.748 178.366 117.913L181.934 118.915C181.558 120.125 180.927 121.189 180.04 122.107C179.154 123.015 178.058 123.724 176.754 124.235C175.45 124.736 173.984 124.986 172.357 124.986Z" fill="#505862"/>
<path d="M123.577 92.4381H128.209L139.1 119.04H139.476L150.367 92.4381H154.999V124.486H151.369V100.137H151.056L141.041 124.486H137.536L127.521 100.137H127.208V124.486H123.577V92.4381Z" fill="#505862"/>
<path d="M107.507 124.986C105.191 124.986 103.193 124.475 101.514 123.453C99.8445 122.42 98.5561 120.98 97.6485 119.134C96.7513 117.277 96.3027 115.118 96.3027 112.656C96.3027 110.194 96.7513 108.024 97.6485 106.146C98.5561 104.258 99.8184 102.787 101.435 101.733C103.063 100.669 104.961 100.137 107.131 100.137C108.383 100.137 109.619 100.346 110.84 100.763C112.061 101.18 113.172 101.858 114.173 102.797C115.175 103.726 115.973 104.957 116.567 106.49C117.162 108.024 117.459 109.912 117.459 112.155V113.72H98.9316V110.527H113.704C113.704 109.171 113.432 107.961 112.89 106.897C112.358 105.833 111.596 104.993 110.605 104.378C109.625 103.762 108.467 103.454 107.131 103.454C105.66 103.454 104.388 103.82 103.313 104.55C102.249 105.27 101.43 106.208 100.856 107.366C100.283 108.524 99.9957 109.766 99.9957 111.091V113.219C99.9957 115.034 100.309 116.573 100.935 117.835C101.571 119.087 102.453 120.042 103.579 120.699C104.706 121.346 106.015 121.669 107.507 121.669C108.477 121.669 109.353 121.533 110.136 121.262C110.929 120.98 111.612 120.563 112.186 120.01C112.76 119.447 113.203 118.748 113.516 117.913L117.084 118.915C116.708 120.125 116.077 121.189 115.19 122.107C114.303 123.015 113.208 123.724 111.904 124.235C110.6 124.736 109.134 124.986 107.507 124.986Z" fill="#1B1D21"/>
<path d="M80.2788 134C78.4949 134 76.9614 133.77 75.6782 133.311C74.395 132.863 73.3258 132.268 72.4703 131.527C71.6253 130.797 70.9524 130.015 70.4517 129.18L73.3936 127.115C73.7274 127.553 74.1499 128.053 74.6611 128.617C75.1722 129.191 75.8712 129.686 76.7579 130.103C77.6551 130.531 78.8287 130.745 80.2788 130.745C82.2192 130.745 83.8205 130.276 85.0828 129.337C86.3451 128.398 86.9763 126.927 86.9763 124.924V120.042H86.6633C86.3921 120.48 86.0061 121.022 85.5053 121.669C85.015 122.305 84.3056 122.874 83.3772 123.375C82.4591 123.865 81.2177 124.11 79.6529 124.11C77.7125 124.11 75.9703 123.651 74.4263 122.733C72.8928 121.815 71.6775 120.48 70.7803 118.727C69.8936 116.975 69.4502 114.846 69.4502 112.343C69.4502 109.881 69.8831 107.737 70.749 105.911C71.6149 104.075 72.8198 102.656 74.3638 101.655C75.9077 100.643 77.6916 100.137 79.7155 100.137C81.2803 100.137 82.5217 100.398 83.4398 100.919C84.3682 101.431 85.0776 102.015 85.5679 102.672C86.0687 103.319 86.4547 103.851 86.7259 104.268H87.1015V100.45H90.6693V125.174C90.6693 127.24 90.1998 128.919 89.2609 130.213C88.3325 131.517 87.0806 132.472 85.5053 133.077C83.9405 133.692 82.1983 134 80.2788 134ZM80.1536 120.793C81.635 120.793 82.8868 120.454 83.9092 119.776C84.9316 119.097 85.7088 118.122 86.2408 116.849C86.7728 115.577 87.0389 114.053 87.0389 112.28C87.0389 110.548 86.7781 109.02 86.2564 107.695C85.7348 106.37 84.9628 105.332 83.9405 104.581C82.9181 103.83 81.6558 103.454 80.1536 103.454C78.5888 103.454 77.2848 103.851 76.2415 104.644C75.2088 105.437 74.4316 106.501 73.91 107.836C73.3988 109.171 73.1432 110.653 73.1432 112.28C73.1432 113.949 73.404 115.425 73.9256 116.708C74.4576 117.981 75.2401 118.983 76.2728 119.713C77.3161 120.433 78.6096 120.793 80.1536 120.793Z" fill="#1B1D21"/>
<path d="M52.8198 125.049C51.2967 125.049 49.9144 124.762 48.673 124.188C47.4316 123.604 46.4457 122.764 45.7155 121.669C44.9852 120.563 44.6201 119.228 44.6201 117.663C44.6201 116.286 44.8914 115.17 45.4338 114.314C45.9763 113.448 46.7013 112.77 47.6089 112.28C48.5165 111.79 49.518 111.425 50.6134 111.185C51.7192 110.934 52.8302 110.736 53.9465 110.59C55.407 110.402 56.5911 110.261 57.4987 110.168C58.4167 110.063 59.0843 109.891 59.5016 109.651C59.9293 109.411 60.1432 108.994 60.1432 108.399V108.274C60.1432 106.73 59.7207 105.53 58.8757 104.675C58.0411 103.82 56.7736 103.392 55.0732 103.392C53.3101 103.392 51.9279 103.778 50.9264 104.55C49.9249 105.322 49.2207 106.146 48.8139 107.022L45.3086 105.77C45.9346 104.31 46.7691 103.173 47.8124 102.359C48.866 101.535 50.0136 100.961 51.255 100.638C52.5068 100.304 53.7378 100.137 54.948 100.137C55.72 100.137 56.6067 100.231 57.6082 100.419C58.6201 100.596 59.5955 100.966 60.5344 101.53C61.4837 102.093 62.2714 102.943 62.8973 104.08C63.5232 105.217 63.8362 106.741 63.8362 108.65V124.486H60.1432V121.231H59.9554C59.7051 121.752 59.2878 122.311 58.7036 122.905C58.1194 123.5 57.3422 124.006 56.372 124.423C55.4018 124.84 54.2177 125.049 52.8198 125.049ZM53.3832 121.732C54.8437 121.732 56.0747 121.445 57.0761 120.871C58.0881 120.297 58.8496 119.556 59.3608 118.649C59.8824 117.741 60.1432 116.787 60.1432 115.785V112.405C59.9867 112.593 59.6425 112.765 59.1104 112.922C58.5888 113.068 57.9837 113.198 57.2952 113.313C56.6171 113.417 55.9547 113.511 55.3079 113.594C54.6715 113.668 54.1551 113.73 53.7587 113.782C52.799 113.907 51.9018 114.111 51.0672 114.393C50.2431 114.664 49.5754 115.076 49.0642 115.629C48.5635 116.171 48.3131 116.912 48.3131 117.851C48.3131 119.134 48.7878 120.104 49.7371 120.761C50.6969 121.408 51.9122 121.732 53.3832 121.732Z" fill="#1B1D21"/>
<path d="M40.1916 100.45V103.58H27.7356V100.45H40.1916ZM31.366 94.6915H35.059V117.601C35.059 118.644 35.2103 119.426 35.5128 119.948C35.8258 120.459 36.2222 120.803 36.7021 120.981C37.1924 121.148 37.7088 121.231 38.2512 121.231C38.6581 121.231 38.9919 121.21 39.2527 121.168C39.5135 121.116 39.7222 121.075 39.8787 121.043L40.6298 124.361C40.3794 124.455 40.0299 124.548 39.5813 124.642C39.1328 124.747 38.5642 124.799 37.8757 124.799C36.8325 124.799 35.8101 124.575 34.8086 124.126C33.8176 123.677 32.9934 122.994 32.3362 122.076C31.6894 121.158 31.366 120 31.366 118.602V94.6915Z" fill="#1B1D21"/>
<path d="M19.6651 100.45C19.4773 98.8644 18.7158 97.6334 17.3804 96.7571C16.0451 95.8808 14.4073 95.4426 12.4669 95.4426C11.0481 95.4426 9.80667 95.6721 8.74259 96.1311C7.68894 96.5902 6.86479 97.2213 6.27016 98.0246C5.68595 98.8279 5.39385 99.7407 5.39385 100.763C5.39385 101.618 5.59728 102.354 6.00414 102.969C6.42142 103.575 6.95347 104.08 7.60026 104.487C8.24706 104.884 8.92515 105.212 9.63454 105.473C10.3439 105.724 10.9959 105.927 11.5906 106.083L14.8454 106.96C15.68 107.179 16.6085 107.481 17.6308 107.867C18.6636 108.253 19.6494 108.78 20.5883 109.448C21.5377 110.105 22.3201 110.95 22.9356 111.983C23.5511 113.016 23.8588 114.283 23.8588 115.785C23.8588 117.517 23.405 119.082 22.4974 120.48C21.6003 121.878 20.2858 122.989 18.5541 123.813C16.8327 124.637 14.7411 125.049 12.2791 125.049C9.98401 125.049 7.99668 124.679 6.3171 123.938C4.64795 123.197 3.3335 122.165 2.37374 120.84C1.42441 119.515 0.887149 117.976 0.761963 116.224H4.76792C4.87224 117.434 5.2791 118.435 5.98849 119.228C6.70831 120.01 7.61591 120.595 8.71129 120.981C9.8171 121.356 11.0064 121.544 12.2791 121.544C13.7605 121.544 15.0906 121.304 16.2694 120.824C17.4482 120.334 18.3819 119.656 19.0704 118.79C19.759 117.914 20.1032 116.891 20.1032 115.723C20.1032 114.659 19.8059 113.793 19.2113 113.125C18.6166 112.458 17.8342 111.915 16.864 111.498C15.8938 111.08 14.8454 110.715 13.7187 110.402L9.77537 109.276C7.27165 108.556 5.28953 107.528 3.82903 106.193C2.36852 104.858 1.63827 103.11 1.63827 100.951C1.63827 99.1565 2.12336 97.5917 3.09356 96.2563C4.07418 94.9106 5.38864 93.8674 7.03692 93.1267C8.69564 92.3756 10.5474 92 12.5921 92C14.6576 92 16.4937 92.3703 18.1003 93.111C19.7068 93.8413 20.9795 94.8428 21.9184 96.1155C22.8678 97.3882 23.3685 98.8331 23.4207 100.45H19.6651Z" fill="#1B1D21"/>
</svg>
