<svg width="280" height="73" viewBox="0 0 280 73" fill="none" xmlns="http://www.w3.org/2000/svg">
<path fill-rule="evenodd" clip-rule="evenodd" d="M8.17082 10.007L18.2152 15.8062V15.8098L24.5796 19.4843L24.5794 19.4847C23.9542 19.1207 23.2272 18.9123 22.4516 18.9123C20.1395 18.9123 18.2602 20.7647 18.2166 23.0663L18.2152 23.0655V37.7958L4.31749 29.547C1.64087 27.9583 0 25.0762 0 21.9636V19.8774C0 16.7649 1.64086 13.8828 4.31749 12.2941L8.17082 10.007Z" fill="#073149"/>
<path fill-rule="evenodd" clip-rule="evenodd" d="M21.7614 1.94049C24.5361 0.2936 27.9887 0.293597 30.7634 1.94049L48.2073 12.2941C50.8839 13.8828 52.5248 16.7649 52.5248 19.8775V35.6148L11.1953 11.7532C10.2983 11.3454 9.30179 11.1182 8.25217 11.1182C6.97152 11.1182 5.76986 11.4564 4.73163 12.0483L8.17083 10.007L21.7614 1.94049ZM4.48301 12.1969L4.48181 12.1966L4.51795 12.1752C4.50628 12.1824 4.49463 12.1896 4.48301 12.1969Z" fill="#39E6C9"/>
<path fill-rule="evenodd" clip-rule="evenodd" d="M44.3538 63.4036L34.3094 57.6045V57.6008L27.945 53.9263L27.9452 53.9259C28.5705 54.2899 29.2974 54.4984 30.0731 54.4984C32.3851 54.4984 34.2645 52.646 34.3081 50.3443L34.3094 50.3451V35.6148L48.2072 43.8637C50.8838 45.4524 52.5247 48.3344 52.5247 51.447V53.5332C52.5247 56.6458 50.8838 59.5278 48.2072 61.1165L44.3538 63.4036Z" fill="#073149"/>
<path fill-rule="evenodd" clip-rule="evenodd" d="M30.7633 71.4701C27.9886 73.117 24.536 73.117 21.7613 71.4702L4.31738 61.1165C1.64076 59.5278 -0.000107139 56.6458 -0.000107139 53.5332V37.7959L41.3293 61.6574C42.2263 62.0653 43.2229 62.2925 44.2725 62.2925C45.5531 62.2925 46.7548 61.9543 47.793 61.3623L44.3538 63.4036L30.7633 71.4701ZM48.0417 61.2138L48.0428 61.214L48.0067 61.2355C48.0184 61.2283 48.03 61.221 48.0417 61.2138Z" fill="#39E6C9"/>
<path d="M268.766 51.6918C266.763 51.6918 264.995 51.1859 263.461 50.174C261.928 49.1516 260.728 47.712 259.862 45.855C258.996 43.9877 258.563 41.7813 258.563 39.2358C258.563 36.7112 258.996 34.5205 259.862 32.6635C260.728 30.8066 261.933 29.3722 263.477 28.3603C265.021 27.3483 266.805 26.8424 268.828 26.8424C270.393 26.8424 271.63 27.1032 272.537 27.6248C273.455 28.136 274.154 28.7202 274.634 29.3774C275.124 30.0242 275.505 30.5562 275.776 30.9735H276.089V19.1434H279.782V51.1911H276.214V47.4981H275.776C275.505 47.9363 275.119 48.4892 274.618 49.1568C274.118 49.8141 273.403 50.4035 272.475 50.9251C271.546 51.4363 270.31 51.6918 268.766 51.6918ZM269.267 48.3744C270.748 48.3744 272 47.9884 273.022 47.2164C274.045 46.434 274.822 45.3543 275.354 43.9773C275.886 42.5898 276.152 40.9884 276.152 39.1732C276.152 37.3789 275.891 35.8088 275.369 34.4631C274.848 33.1069 274.076 32.0533 273.054 31.3021C272.031 30.5406 270.769 30.1598 269.267 30.1598C267.702 30.1598 266.398 30.5615 265.355 31.3647C264.322 32.1576 263.545 33.2373 263.023 34.6039C262.512 35.9601 262.256 37.4832 262.256 39.1732C262.256 40.8841 262.517 42.4385 263.039 43.8364C263.571 45.2239 264.353 46.3297 265.386 47.1538C266.429 47.9676 267.723 48.3744 269.267 48.3744Z" fill="#39E6C9"/>
<path d="M244.12 51.6918C241.804 51.6918 239.806 51.1806 238.127 50.1583C236.458 49.1255 235.169 47.6859 234.262 45.8394C233.364 43.9824 232.916 41.823 232.916 39.361C232.916 36.899 233.364 34.7291 234.262 32.8513C235.169 30.9631 236.431 29.4921 238.048 28.4385C239.676 27.3744 241.574 26.8423 243.744 26.8423C244.996 26.8423 246.232 27.051 247.453 27.4683C248.674 27.8856 249.785 28.5637 250.786 29.5026C251.788 30.431 252.586 31.662 253.18 33.1955C253.775 34.7291 254.072 36.6173 254.072 38.8602V40.4251H235.545V37.2328H250.317C250.317 35.8766 250.045 34.6665 249.503 33.6024C248.971 32.5383 248.209 31.6985 247.218 31.083C246.238 30.4675 245.08 30.1598 243.744 30.1598C242.273 30.1598 241.001 30.5249 239.926 31.2552C238.862 31.975 238.043 32.9139 237.469 34.0718C236.896 35.2298 236.609 36.4713 236.609 37.7961V39.9243C236.609 41.7395 236.922 43.2783 237.548 44.5406C238.184 45.7924 239.066 46.747 240.192 47.4042C241.319 48.051 242.628 48.3744 244.12 48.3744C245.09 48.3744 245.966 48.2388 246.749 47.9675C247.542 47.6859 248.225 47.2686 248.799 46.7157C249.373 46.1523 249.816 45.4534 250.129 44.6188L253.697 45.6203C253.321 46.8304 252.69 47.8945 251.803 48.8125C250.917 49.7201 249.821 50.4295 248.517 50.9407C247.213 51.4414 245.747 51.6918 244.12 51.6918Z" fill="#39E6C9"/>
<path d="M195.34 19.1434H199.972L210.863 45.7455H211.239L222.13 19.1434H226.762V51.1911H223.132V26.8424H222.819L212.804 51.1911H209.298L199.284 26.8424H198.971V51.1911H195.34V19.1434Z" fill="#39E6C9"/>
<path d="M179.27 51.6918C176.954 51.6918 174.956 51.1806 173.276 50.1583C171.607 49.1255 170.319 47.6859 169.411 45.8394C168.514 43.9824 168.065 41.823 168.065 39.361C168.065 36.899 168.514 34.7291 169.411 32.8513C170.319 30.9631 171.581 29.4921 173.198 28.4385C174.825 27.3744 176.724 26.8423 178.894 26.8423C180.146 26.8423 181.382 27.051 182.603 27.4683C183.823 27.8856 184.934 28.5637 185.936 29.5026C186.937 30.431 187.735 31.662 188.33 33.1955C188.925 34.7291 189.222 36.6173 189.222 38.8602V40.4251H170.694V37.2328H185.466C185.466 35.8766 185.195 34.6665 184.653 33.6024C184.121 32.5383 183.359 31.6985 182.368 31.083C181.387 30.4675 180.229 30.1598 178.894 30.1598C177.423 30.1598 176.15 30.5249 175.076 31.2552C174.012 31.975 173.193 32.9139 172.619 34.0718C172.045 35.2298 171.758 36.4713 171.758 37.7961V39.9243C171.758 41.7395 172.071 43.2783 172.697 44.5406C173.334 45.7924 174.215 46.747 175.342 47.4042C176.469 48.051 177.778 48.3744 179.27 48.3744C180.24 48.3744 181.116 48.2388 181.899 47.9675C182.691 47.6859 183.375 47.2686 183.948 46.7157C184.522 46.1523 184.966 45.4534 185.279 44.6188L188.846 45.6203C188.471 46.8304 187.84 47.8945 186.953 48.8125C186.066 49.7201 184.971 50.4295 183.667 50.9407C182.363 51.4414 180.897 51.6918 179.27 51.6918Z" fill="#073149"/>
<path d="M152.041 60.7052C150.258 60.7052 148.724 60.4757 147.441 60.0167C146.158 59.5681 145.088 58.9735 144.233 58.2328C143.388 57.5025 142.715 56.7201 142.214 55.8856L145.156 53.82C145.49 54.2581 145.913 54.7589 146.424 55.3222C146.935 55.896 147.634 56.3915 148.521 56.8088C149.418 57.2365 150.591 57.4504 152.041 57.4504C153.982 57.4504 155.583 56.9809 156.846 56.042C158.108 55.1031 158.739 53.6322 158.739 51.6292V46.747H158.426C158.155 47.1851 157.769 47.7276 157.268 48.3744C156.778 49.0107 156.068 49.5793 155.14 50.08C154.222 50.5704 152.98 50.8155 151.416 50.8155C149.475 50.8155 147.733 50.3565 146.189 49.4385C144.656 48.5204 143.44 47.1851 142.543 45.4325C141.656 43.6799 141.213 41.5517 141.213 39.048C141.213 36.586 141.646 34.4422 142.512 32.6166C143.378 30.7805 144.582 29.3617 146.126 28.3602C147.67 27.3483 149.454 26.8423 151.478 26.8423C153.043 26.8423 154.284 27.1032 155.202 27.6248C156.131 28.1359 156.84 28.7201 157.331 29.3774C157.831 30.0242 158.217 30.5562 158.489 30.9735H158.864V27.1553H162.432V51.8796C162.432 53.9452 161.963 55.6247 161.024 56.9183C160.095 58.2224 158.843 59.1769 157.268 59.782C155.703 60.3975 153.961 60.7052 152.041 60.7052ZM151.916 47.4981C153.398 47.4981 154.65 47.159 155.672 46.4809C156.694 45.8028 157.471 44.8274 158.003 43.5547C158.536 42.282 158.802 40.7589 158.802 38.9854C158.802 37.2537 158.541 35.7254 158.019 34.4005C157.498 33.0756 156.726 32.0376 155.703 31.2865C154.681 30.5353 153.419 30.1598 151.916 30.1598C150.351 30.1598 149.047 30.5562 148.004 31.349C146.971 32.1419 146.194 33.206 145.673 34.5413C145.161 35.8766 144.906 37.358 144.906 38.9854C144.906 40.6546 145.167 42.1307 145.688 43.4139C146.22 44.6866 147.003 45.6881 148.036 46.4183C149.079 47.1382 150.372 47.4981 151.916 47.4981Z" fill="#073149"/>
<path d="M124.583 51.7544C123.06 51.7544 121.677 51.4675 120.436 50.8937C119.194 50.3095 118.209 49.4698 117.478 48.3744C116.748 47.2686 116.383 45.9332 116.383 44.3684C116.383 42.9914 116.654 41.8751 117.197 41.0197C117.739 40.1538 118.464 39.4757 119.372 38.9854C120.279 38.4951 121.281 38.13 122.376 37.89C123.482 37.6397 124.593 37.4414 125.709 37.2954C127.17 37.1076 128.354 36.9668 129.261 36.8729C130.18 36.7686 130.847 36.5964 131.264 36.3565C131.692 36.1166 131.906 35.6993 131.906 35.1046V34.9794C131.906 33.4355 131.484 32.2358 130.639 31.3803C129.804 30.5249 128.536 30.0972 126.836 30.0972C125.073 30.0972 123.691 30.4832 122.689 31.2552C121.688 32.0271 120.984 32.8513 120.577 33.7276L117.071 32.4757C117.697 31.0152 118.532 29.8781 119.575 29.0644C120.629 28.2403 121.776 27.6665 123.018 27.3431C124.27 27.0093 125.501 26.8423 126.711 26.8423C127.483 26.8423 128.37 26.9362 129.371 27.124C130.383 27.3014 131.358 27.6717 132.297 28.235C133.247 28.7984 134.034 29.6486 134.66 30.7857C135.286 31.9228 135.599 33.4459 135.599 35.355V51.1911H131.906V47.9362H131.718C131.468 48.4578 131.051 49.016 130.466 49.6106C129.882 50.2052 129.105 50.7112 128.135 51.1285C127.165 51.5458 125.981 51.7544 124.583 51.7544ZM125.146 48.437C126.606 48.437 127.837 48.1501 128.839 47.5763C129.851 47.0025 130.612 46.2619 131.124 45.3543C131.645 44.4467 131.906 43.4921 131.906 42.4906V39.1106C131.75 39.2984 131.405 39.4705 130.873 39.627C130.352 39.773 129.747 39.9034 129.058 40.0182C128.38 40.1225 127.718 40.2164 127.071 40.2999C126.434 40.3729 125.918 40.4355 125.522 40.4876C124.562 40.6128 123.665 40.8163 122.83 41.0979C122.006 41.3692 121.338 41.7812 120.827 42.3341C120.326 42.8766 120.076 43.6173 120.076 44.5562C120.076 45.8394 120.551 46.8096 121.5 47.4668C122.46 48.1136 123.675 48.437 125.146 48.437Z" fill="#073149"/>
<path d="M111.954 27.1554V30.285H99.4984V27.1554H111.954ZM103.129 21.3968H106.822V44.3059C106.822 45.3491 106.973 46.1315 107.276 46.6531C107.589 47.1643 107.985 47.5086 108.465 47.6859C108.955 47.8528 109.472 47.9363 110.014 47.9363C110.421 47.9363 110.755 47.9154 111.016 47.8737C111.276 47.8215 111.485 47.7798 111.641 47.7485L112.393 51.0659C112.142 51.1598 111.793 51.2537 111.344 51.3476C110.896 51.4519 110.327 51.5041 109.639 51.5041C108.595 51.5041 107.573 51.2798 106.571 50.8312C105.58 50.3826 104.756 49.6993 104.099 48.7813C103.452 47.8632 103.129 46.7053 103.129 45.3074V21.3968Z" fill="#073149"/>
<path d="M91.4279 27.1554C91.2401 25.5697 90.4786 24.3387 89.1433 23.4624C87.8079 22.5861 86.1701 22.1479 84.2297 22.1479C82.8109 22.1479 81.5695 22.3775 80.5054 22.8365C79.4518 23.2955 78.6276 23.9266 78.033 24.7299C77.4488 25.5332 77.1567 26.446 77.1567 27.4684C77.1567 28.3238 77.3601 29.0593 77.767 29.6748C78.1842 30.2798 78.7163 30.7858 79.3631 31.1926C80.0099 31.5891 80.688 31.9177 81.3974 32.1785C82.1067 32.4289 82.7588 32.6323 83.3534 32.7888L86.6082 33.6651C87.4428 33.8842 88.3713 34.1867 89.3936 34.5727C90.4264 34.9587 91.4123 35.4855 92.3511 36.1532C93.3005 36.8104 94.0829 37.6554 94.6984 38.6882C95.3139 39.721 95.6216 40.9885 95.6216 42.4907C95.6216 44.2224 95.1678 45.7873 94.2602 47.1852C93.3631 48.5831 92.0486 49.6941 90.3169 50.5183C88.5956 51.3424 86.5039 51.7545 84.0419 51.7545C81.7468 51.7545 79.7595 51.3841 78.0799 50.6435C76.4108 49.9028 75.0963 48.87 74.1366 47.5451C73.1872 46.2202 72.65 44.6815 72.5248 42.9289H76.5307C76.6351 44.139 77.0419 45.1405 77.7513 45.9333C78.4711 46.7157 79.3787 47.2999 80.4741 47.6859C81.5799 48.0615 82.7692 48.2493 84.0419 48.2493C85.5233 48.2493 86.8534 48.0093 88.0322 47.5294C89.2111 47.0391 90.1447 46.361 90.8333 45.4952C91.5218 44.6189 91.8661 43.5965 91.8661 42.4281C91.8661 41.364 91.5687 40.4982 90.9741 39.8305C90.3795 39.1628 89.5971 38.6204 88.6269 38.2031C87.6567 37.7858 86.6082 37.4207 85.4816 37.1077L81.5382 35.981C79.0345 35.2612 77.0523 34.2336 75.5918 32.8983C74.1313 31.563 73.4011 29.8156 73.4011 27.6561C73.4011 25.8618 73.8862 24.297 74.8564 22.9617C75.837 21.6159 77.1515 20.5727 78.7997 19.832C80.4585 19.0809 82.3102 18.7053 84.3549 18.7053C86.4205 18.7053 88.2565 19.0757 89.8631 19.8164C91.4696 20.5466 92.7424 21.5481 93.6813 22.8208C94.6306 24.0935 95.1313 25.5384 95.1835 27.1554H91.4279Z" fill="#073149"/>
</svg>
